<mxfile host="app.diagrams.net" agent="Mozilla/5.0 (Windows NT 10.0; Win64; x64; rv:132.0) Gecko/20100101 Firefox/132.0" version="24.8.3">
  <diagram name="第 1 页" id="CSqLPtNgL-avwrGDaTlB">
    <mxGraphModel dx="5340" dy="5084" grid="1" gridSize="10" guides="1" tooltips="1" connect="1" arrows="1" fold="1" page="1" pageScale="1" pageWidth="827" pageHeight="1169" math="0" shadow="0">
      <root>
        <mxCell id="0" />
        <mxCell id="1" parent="0" />
        <mxCell id="C2iRjYQwUr5vMglBMvX1-1" value="List&amp;lt;DemandPackageVo&amp;gt;" style="swimlane;fontStyle=0;childLayout=stackLayout;horizontal=1;startSize=30;horizontalStack=0;resizeParent=1;resizeParentMax=0;resizeLast=0;collapsible=1;marginBottom=0;whiteSpace=wrap;html=1;fillColor=#dae8fc;strokeColor=#6c8ebf;fontFamily=Comic Sans MS;" parent="1" vertex="1">
          <mxGeometry x="-370" y="30" width="520" height="1680" as="geometry">
            <mxRectangle x="160" y="20" width="60" height="30" as="alternateBounds" />
          </mxGeometry>
        </mxCell>
        <mxCell id="C2iRjYQwUr5vMglBMvX1-3" value="String demandId（）" style="text;strokeColor=none;fillColor=none;align=left;verticalAlign=middle;spacingLeft=4;spacingRight=4;overflow=hidden;points=[[0,0.5],[1,0.5]];portConstraint=eastwest;rotatable=0;whiteSpace=wrap;html=1;labelBackgroundColor=default;textShadow=0;fontFamily=Comic Sans MS;" parent="C2iRjYQwUr5vMglBMvX1-1" vertex="1">
          <mxGeometry y="30" width="520" height="30" as="geometry" />
        </mxCell>
        <mxCell id="jJFGgtmmb8NNKWefRlXa-54" value="&lt;b&gt;String operationCode&lt;/b&gt;（）" style="text;strokeColor=none;fillColor=none;align=left;verticalAlign=middle;spacingLeft=4;spacingRight=4;overflow=hidden;points=[[0,0.5],[1,0.5]];portConstraint=eastwest;rotatable=0;whiteSpace=wrap;html=1;labelBackgroundColor=default;textShadow=0;fontFamily=Comic Sans MS;" parent="C2iRjYQwUr5vMglBMvX1-1" vertex="1">
          <mxGeometry y="60" width="520" height="30" as="geometry" />
        </mxCell>
        <mxCell id="m__d6OJdyXCMt7KyZCjO-17" value="String packageId" style="text;strokeColor=none;fillColor=none;align=left;verticalAlign=middle;spacingLeft=4;spacingRight=4;overflow=hidden;points=[[0,0.5],[1,0.5]];portConstraint=eastwest;rotatable=0;whiteSpace=wrap;html=1;fontFamily=Comic Sans MS;" parent="C2iRjYQwUr5vMglBMvX1-1" vertex="1">
          <mxGeometry y="90" width="520" height="30" as="geometry" />
        </mxCell>
        <mxCell id="C2iRjYQwUr5vMglBMvX1-4" value="String projectId" style="text;strokeColor=none;fillColor=none;align=left;verticalAlign=middle;spacingLeft=4;spacingRight=4;overflow=hidden;points=[[0,0.5],[1,0.5]];portConstraint=eastwest;rotatable=0;whiteSpace=wrap;html=1;labelBackgroundColor=default;fontFamily=Comic Sans MS;" parent="C2iRjYQwUr5vMglBMvX1-1" vertex="1">
          <mxGeometry y="120" width="520" height="30" as="geometry" />
        </mxCell>
        <mxCell id="C2iRjYQwUr5vMglBMvX1-77" value="String projectCode" style="text;strokeColor=none;fillColor=none;align=left;verticalAlign=middle;spacingLeft=4;spacingRight=4;overflow=hidden;points=[[0,0.5],[1,0.5]];portConstraint=eastwest;rotatable=0;whiteSpace=wrap;html=1;labelBackgroundColor=default;fontFamily=Comic Sans MS;" parent="C2iRjYQwUr5vMglBMvX1-1" vertex="1">
          <mxGeometry y="150" width="520" height="30" as="geometry" />
        </mxCell>
        <mxCell id="C2iRjYQwUr5vMglBMvX1-76" value="String projectName" style="text;strokeColor=none;fillColor=none;align=left;verticalAlign=middle;spacingLeft=4;spacingRight=4;overflow=hidden;points=[[0,0.5],[1,0.5]];portConstraint=eastwest;rotatable=0;whiteSpace=wrap;html=1;labelBackgroundColor=default;fontFamily=Comic Sans MS;" parent="C2iRjYQwUr5vMglBMvX1-1" vertex="1">
          <mxGeometry y="180" width="520" height="30" as="geometry" />
        </mxCell>
        <mxCell id="C2iRjYQwUr5vMglBMvX1-75" value="String projectTypeCode（项目类型A/C）" style="text;strokeColor=none;fillColor=none;align=left;verticalAlign=middle;spacingLeft=4;spacingRight=4;overflow=hidden;points=[[0,0.5],[1,0.5]];portConstraint=eastwest;rotatable=0;whiteSpace=wrap;html=1;labelBackgroundColor=default;fontFamily=Comic Sans MS;" parent="C2iRjYQwUr5vMglBMvX1-1" vertex="1">
          <mxGeometry y="210" width="520" height="30" as="geometry" />
        </mxCell>
        <mxCell id="C2iRjYQwUr5vMglBMvX1-74" value="String projectTypeName（货物类/服务类）" style="text;strokeColor=none;fillColor=none;align=left;verticalAlign=middle;spacingLeft=4;spacingRight=4;overflow=hidden;points=[[0,0.5],[1,0.5]];portConstraint=eastwest;rotatable=0;whiteSpace=wrap;html=1;labelBackgroundColor=default;fontFamily=Comic Sans MS;" parent="C2iRjYQwUr5vMglBMvX1-1" vertex="1">
          <mxGeometry y="240" width="520" height="30" as="geometry" />
        </mxCell>
        <mxCell id="C2iRjYQwUr5vMglBMvX1-72" value="String ownerOrgId（征集人主键）" style="text;strokeColor=none;fillColor=none;align=left;verticalAlign=middle;spacingLeft=4;spacingRight=4;overflow=hidden;points=[[0,0.5],[1,0.5]];portConstraint=eastwest;rotatable=0;whiteSpace=wrap;html=1;labelBackgroundColor=default;fontFamily=Comic Sans MS;" parent="C2iRjYQwUr5vMglBMvX1-1" vertex="1">
          <mxGeometry y="270" width="520" height="30" as="geometry" />
        </mxCell>
        <mxCell id="C2iRjYQwUr5vMglBMvX1-71" value="String ownerOrgCode（征集人编码）" style="text;strokeColor=none;fillColor=none;align=left;verticalAlign=middle;spacingLeft=4;spacingRight=4;overflow=hidden;points=[[0,0.5],[1,0.5]];portConstraint=eastwest;rotatable=0;whiteSpace=wrap;html=1;labelBackgroundColor=default;fontFamily=Comic Sans MS;" parent="C2iRjYQwUr5vMglBMvX1-1" vertex="1">
          <mxGeometry y="300" width="520" height="30" as="geometry" />
        </mxCell>
        <mxCell id="C2iRjYQwUr5vMglBMvX1-70" value="String ownerOrgName（征集人编码）" style="text;strokeColor=none;fillColor=none;align=left;verticalAlign=middle;spacingLeft=4;spacingRight=4;overflow=hidden;points=[[0,0.5],[1,0.5]];portConstraint=eastwest;rotatable=0;whiteSpace=wrap;html=1;labelBackgroundColor=default;fontFamily=Comic Sans MS;" parent="C2iRjYQwUr5vMglBMvX1-1" vertex="1">
          <mxGeometry y="330" width="520" height="30" as="geometry" />
        </mxCell>
        <mxCell id="C2iRjYQwUr5vMglBMvX1-69" value="String ownerOrgTypeCode（征集人类型）" style="text;strokeColor=none;fillColor=none;align=left;verticalAlign=middle;spacingLeft=4;spacingRight=4;overflow=hidden;points=[[0,0.5],[1,0.5]];portConstraint=eastwest;rotatable=0;whiteSpace=wrap;html=1;labelBackgroundColor=default;fontFamily=Comic Sans MS;" parent="C2iRjYQwUr5vMglBMvX1-1" vertex="1">
          <mxGeometry y="360" width="520" height="30" as="geometry" />
        </mxCell>
        <mxCell id="C2iRjYQwUr5vMglBMvX1-68" value="String ownerOrgTypeName（征集人类型）" style="text;strokeColor=none;fillColor=none;align=left;verticalAlign=middle;spacingLeft=4;spacingRight=4;overflow=hidden;points=[[0,0.5],[1,0.5]];portConstraint=eastwest;rotatable=0;whiteSpace=wrap;html=1;labelBackgroundColor=default;fontFamily=Comic Sans MS;" parent="C2iRjYQwUr5vMglBMvX1-1" vertex="1">
          <mxGeometry y="390" width="520" height="30" as="geometry" />
        </mxCell>
        <mxCell id="C2iRjYQwUr5vMglBMvX1-67" value="String agreementTypeCode（协议类型0/1）" style="text;strokeColor=none;fillColor=none;align=left;verticalAlign=middle;spacingLeft=4;spacingRight=4;overflow=hidden;points=[[0,0.5],[1,0.5]];portConstraint=eastwest;rotatable=0;whiteSpace=wrap;html=1;labelBackgroundColor=default;fontFamily=Comic Sans MS;" parent="C2iRjYQwUr5vMglBMvX1-1" vertex="1">
          <mxGeometry y="420" width="520" height="30" as="geometry" />
        </mxCell>
        <mxCell id="C2iRjYQwUr5vMglBMvX1-80" value="String agreementPeriod（封闭式/开放式）" style="text;strokeColor=none;fillColor=none;align=left;verticalAlign=middle;spacingLeft=4;spacingRight=4;overflow=hidden;points=[[0,0.5],[1,0.5]];portConstraint=eastwest;rotatable=0;whiteSpace=wrap;html=1;labelBackgroundColor=default;fontFamily=Comic Sans MS;" parent="C2iRjYQwUr5vMglBMvX1-1" vertex="1">
          <mxGeometry y="450" width="520" height="30" as="geometry" />
        </mxCell>
        <mxCell id="C2iRjYQwUr5vMglBMvX1-81" value="String agreementPeriodUnit（协议期限单位）" style="text;strokeColor=none;fillColor=none;align=left;verticalAlign=middle;spacingLeft=4;spacingRight=4;overflow=hidden;points=[[0,0.5],[1,0.5]];portConstraint=eastwest;rotatable=0;whiteSpace=wrap;html=1;labelBackgroundColor=default;fontFamily=Comic Sans MS;" parent="C2iRjYQwUr5vMglBMvX1-1" vertex="1">
          <mxGeometry y="480" width="520" height="30" as="geometry" />
        </mxCell>
        <mxCell id="C2iRjYQwUr5vMglBMvX1-82" value="LocalDateTime effectiveDate（生效日期）" style="text;strokeColor=none;fillColor=none;align=left;verticalAlign=middle;spacingLeft=4;spacingRight=4;overflow=hidden;points=[[0,0.5],[1,0.5]];portConstraint=eastwest;rotatable=0;whiteSpace=wrap;html=1;labelBackgroundColor=default;fontFamily=Comic Sans MS;" parent="C2iRjYQwUr5vMglBMvX1-1" vertex="1">
          <mxGeometry y="510" width="520" height="30" as="geometry" />
        </mxCell>
        <mxCell id="C2iRjYQwUr5vMglBMvX1-83" value="Integer effectiveFlag（生效方式）" style="text;strokeColor=none;fillColor=none;align=left;verticalAlign=middle;spacingLeft=4;spacingRight=4;overflow=hidden;points=[[0,0.5],[1,0.5]];portConstraint=eastwest;rotatable=0;whiteSpace=wrap;html=1;labelBackgroundColor=default;fontFamily=Comic Sans MS;" parent="C2iRjYQwUr5vMglBMvX1-1" vertex="1">
          <mxGeometry y="540" width="520" height="30" as="geometry" />
        </mxCell>
        <mxCell id="C2iRjYQwUr5vMglBMvX1-84" value="LocalDateTime expirationDate（失效日期）" style="text;strokeColor=none;fillColor=none;align=left;verticalAlign=middle;spacingLeft=4;spacingRight=4;overflow=hidden;points=[[0,0.5],[1,0.5]];portConstraint=eastwest;rotatable=0;whiteSpace=wrap;html=1;labelBackgroundColor=default;fontFamily=Comic Sans MS;" parent="C2iRjYQwUr5vMglBMvX1-1" vertex="1">
          <mxGeometry y="570" width="520" height="30" as="geometry" />
        </mxCell>
        <mxCell id="C2iRjYQwUr5vMglBMvX1-85" value="Integer expirationFlag（失效方式）" style="text;strokeColor=none;fillColor=none;align=left;verticalAlign=middle;spacingLeft=4;spacingRight=4;overflow=hidden;points=[[0,0.5],[1,0.5]];portConstraint=eastwest;rotatable=0;whiteSpace=wrap;html=1;labelBackgroundColor=default;fontFamily=Comic Sans MS;" parent="C2iRjYQwUr5vMglBMvX1-1" vertex="1">
          <mxGeometry y="600" width="520" height="30" as="geometry" />
        </mxCell>
        <mxCell id="C2iRjYQwUr5vMglBMvX1-87" value="String priceDefinition（开放式报价规则）" style="text;strokeColor=none;fillColor=none;align=left;verticalAlign=middle;spacingLeft=4;spacingRight=4;overflow=hidden;points=[[0,0.5],[1,0.5]];portConstraint=eastwest;rotatable=0;whiteSpace=wrap;html=1;labelBackgroundColor=default;fontFamily=Comic Sans MS;" parent="C2iRjYQwUr5vMglBMvX1-1" vertex="1">
          <mxGeometry y="630" width="520" height="30" as="geometry" />
        </mxCell>
        <mxCell id="C2iRjYQwUr5vMglBMvX1-88" value="Integer autoEffectFlag（是否协议自动生效的标识）" style="text;strokeColor=none;fillColor=none;align=left;verticalAlign=middle;spacingLeft=4;spacingRight=4;overflow=hidden;points=[[0,0.5],[1,0.5]];portConstraint=eastwest;rotatable=0;whiteSpace=wrap;html=1;labelBackgroundColor=default;fontFamily=Comic Sans MS;" parent="C2iRjYQwUr5vMglBMvX1-1" vertex="1">
          <mxGeometry y="660" width="520" height="30" as="geometry" />
        </mxCell>
        <mxCell id="C2iRjYQwUr5vMglBMvX1-89" value="Integer minorEnterpriseStatus（是否面向中小企业）" style="text;strokeColor=none;fillColor=none;align=left;verticalAlign=middle;spacingLeft=4;spacingRight=4;overflow=hidden;points=[[0,0.5],[1,0.5]];portConstraint=eastwest;rotatable=0;whiteSpace=wrap;html=1;labelBackgroundColor=default;fontFamily=Comic Sans MS;" parent="C2iRjYQwUr5vMglBMvX1-1" vertex="1">
          <mxGeometry y="690" width="520" height="30" as="geometry" />
        </mxCell>
        <mxCell id="C2iRjYQwUr5vMglBMvX1-90" value="Integer unionPurchaseStatus（是否联合采购）" style="text;strokeColor=none;fillColor=none;align=left;verticalAlign=middle;spacingLeft=4;spacingRight=4;overflow=hidden;points=[[0,0.5],[1,0.5]];portConstraint=eastwest;rotatable=0;whiteSpace=wrap;html=1;labelBackgroundColor=default;fontFamily=Comic Sans MS;" parent="C2iRjYQwUr5vMglBMvX1-1" vertex="1">
          <mxGeometry y="720" width="520" height="30" as="geometry" />
        </mxCell>
        <mxCell id="m__d6OJdyXCMt7KyZCjO-7" value="String buyerTypeCode（选购人方式，区划、采购单位）" style="text;strokeColor=none;fillColor=none;align=left;verticalAlign=middle;spacingLeft=4;spacingRight=4;overflow=hidden;points=[[0,0.5],[1,0.5]];portConstraint=eastwest;rotatable=0;whiteSpace=wrap;html=1;labelBackgroundColor=default;fontFamily=Comic Sans MS;" parent="C2iRjYQwUr5vMglBMvX1-1" vertex="1">
          <mxGeometry y="750" width="520" height="30" as="geometry" />
        </mxCell>
        <mxCell id="m__d6OJdyXCMt7KyZCjO-6" value="String buyerTypeName（选购人方式，区划、采购单位）" style="text;strokeColor=none;fillColor=none;align=left;verticalAlign=middle;spacingLeft=4;spacingRight=4;overflow=hidden;points=[[0,0.5],[1,0.5]];portConstraint=eastwest;rotatable=0;whiteSpace=wrap;html=1;labelBackgroundColor=default;fontFamily=Comic Sans MS;" parent="C2iRjYQwUr5vMglBMvX1-1" vertex="1">
          <mxGeometry y="780" width="520" height="30" as="geometry" />
        </mxCell>
        <mxCell id="m__d6OJdyXCMt7KyZCjO-5" value="String zoneCode（区划编码）" style="text;strokeColor=none;fillColor=none;align=left;verticalAlign=middle;spacingLeft=4;spacingRight=4;overflow=hidden;points=[[0,0.5],[1,0.5]];portConstraint=eastwest;rotatable=0;whiteSpace=wrap;html=1;labelBackgroundColor=default;fontFamily=Comic Sans MS;" parent="C2iRjYQwUr5vMglBMvX1-1" vertex="1">
          <mxGeometry y="810" width="520" height="30" as="geometry" />
        </mxCell>
        <mxCell id="m__d6OJdyXCMt7KyZCjO-27" value="String outsidePackageId（外部包ID）" style="text;strokeColor=none;fillColor=none;align=left;verticalAlign=middle;spacingLeft=4;spacingRight=4;overflow=hidden;points=[[0,0.5],[1,0.5]];portConstraint=eastwest;rotatable=0;whiteSpace=wrap;html=1;fontFamily=Comic Sans MS;" parent="C2iRjYQwUr5vMglBMvX1-1" vertex="1">
          <mxGeometry y="840" width="520" height="30" as="geometry" />
        </mxCell>
        <mxCell id="m__d6OJdyXCMt7KyZCjO-28" value="String outsidePackageNumber（外部包号）" style="text;strokeColor=none;fillColor=none;align=left;verticalAlign=middle;spacingLeft=4;spacingRight=4;overflow=hidden;points=[[0,0.5],[1,0.5]];portConstraint=eastwest;rotatable=0;whiteSpace=wrap;html=1;fontFamily=Comic Sans MS;" parent="C2iRjYQwUr5vMglBMvX1-1" vertex="1">
          <mxGeometry y="870" width="520" height="30" as="geometry" />
        </mxCell>
        <mxCell id="m__d6OJdyXCMt7KyZCjO-16" value="Integer packageNumber（包号）" style="text;strokeColor=none;fillColor=none;align=left;verticalAlign=middle;spacingLeft=4;spacingRight=4;overflow=hidden;points=[[0,0.5],[1,0.5]];portConstraint=eastwest;rotatable=0;whiteSpace=wrap;html=1;fontFamily=Comic Sans MS;" parent="C2iRjYQwUr5vMglBMvX1-1" vertex="1">
          <mxGeometry y="900" width="520" height="30" as="geometry" />
        </mxCell>
        <mxCell id="m__d6OJdyXCMt7KyZCjO-15" value="String packageName（包名）" style="text;strokeColor=none;fillColor=none;align=left;verticalAlign=middle;spacingLeft=4;spacingRight=4;overflow=hidden;points=[[0,0.5],[1,0.5]];portConstraint=eastwest;rotatable=0;whiteSpace=wrap;html=1;fontFamily=Comic Sans MS;" parent="C2iRjYQwUr5vMglBMvX1-1" vertex="1">
          <mxGeometry y="930" width="520" height="30" as="geometry" />
        </mxCell>
        <mxCell id="m__d6OJdyXCMt7KyZCjO-14" value="BigDecimal priceLimit（最高限价）" style="text;strokeColor=none;fillColor=none;align=left;verticalAlign=middle;spacingLeft=4;spacingRight=4;overflow=hidden;points=[[0,0.5],[1,0.5]];portConstraint=eastwest;rotatable=0;whiteSpace=wrap;html=1;fontFamily=Comic Sans MS;" parent="C2iRjYQwUr5vMglBMvX1-1" vertex="1">
          <mxGeometry y="960" width="520" height="30" as="geometry" />
        </mxCell>
        <mxCell id="m__d6OJdyXCMt7KyZCjO-13" value="String priceLimitCn（最高限制单价（大写））" style="text;strokeColor=none;fillColor=none;align=left;verticalAlign=middle;spacingLeft=4;spacingRight=4;overflow=hidden;points=[[0,0.5],[1,0.5]];portConstraint=eastwest;rotatable=0;whiteSpace=wrap;html=1;fontFamily=Comic Sans MS;" parent="C2iRjYQwUr5vMglBMvX1-1" vertex="1">
          <mxGeometry y="990" width="520" height="30" as="geometry" />
        </mxCell>
        <mxCell id="m__d6OJdyXCMt7KyZCjO-12" value="String secondRoundDealMethod（二阶段成交方式，逗号间隔）" style="text;strokeColor=none;fillColor=none;align=left;verticalAlign=middle;spacingLeft=4;spacingRight=4;overflow=hidden;points=[[0,0.5],[1,0.5]];portConstraint=eastwest;rotatable=0;whiteSpace=wrap;html=1;fontFamily=Comic Sans MS;" parent="C2iRjYQwUr5vMglBMvX1-1" vertex="1">
          <mxGeometry y="1020" width="520" height="30" as="geometry" />
        </mxCell>
        <mxCell id="m__d6OJdyXCMt7KyZCjO-11" value="Integer numPriceDiscountStatus（是否量价折扣状态）" style="text;strokeColor=none;fillColor=none;align=left;verticalAlign=middle;spacingLeft=4;spacingRight=4;overflow=hidden;points=[[0,0.5],[1,0.5]];portConstraint=eastwest;rotatable=0;whiteSpace=wrap;html=1;fontFamily=Comic Sans MS;" parent="C2iRjYQwUr5vMglBMvX1-1" vertex="1">
          <mxGeometry y="1050" width="520" height="30" as="geometry" />
        </mxCell>
        <mxCell id="m__d6OJdyXCMt7KyZCjO-10" value="Integer numPriceDiscountMethod（量价折扣数量计算方式）" style="text;strokeColor=none;fillColor=none;align=left;verticalAlign=middle;spacingLeft=4;spacingRight=4;overflow=hidden;points=[[0,0.5],[1,0.5]];portConstraint=eastwest;rotatable=0;whiteSpace=wrap;html=1;fontFamily=Comic Sans MS;" parent="C2iRjYQwUr5vMglBMvX1-1" vertex="1">
          <mxGeometry y="1080" width="520" height="30" as="geometry" />
        </mxCell>
        <mxCell id="m__d6OJdyXCMt7KyZCjO-9" value="String offerPriceForm（报价方式）" style="text;strokeColor=none;fillColor=none;align=left;verticalAlign=middle;spacingLeft=4;spacingRight=4;overflow=hidden;points=[[0,0.5],[1,0.5]];portConstraint=eastwest;rotatable=0;whiteSpace=wrap;html=1;fontFamily=Comic Sans MS;" parent="C2iRjYQwUr5vMglBMvX1-1" vertex="1">
          <mxGeometry y="1110" width="520" height="30" as="geometry" />
        </mxCell>
        <mxCell id="m__d6OJdyXCMt7KyZCjO-8" value="String offerPriceFormName（报价方式）" style="text;strokeColor=none;fillColor=none;align=left;verticalAlign=middle;spacingLeft=4;spacingRight=4;overflow=hidden;points=[[0,0.5],[1,0.5]];portConstraint=eastwest;rotatable=0;whiteSpace=wrap;html=1;fontFamily=Comic Sans MS;" parent="C2iRjYQwUr5vMglBMvX1-1" vertex="1">
          <mxGeometry y="1140" width="520" height="30" as="geometry" />
        </mxCell>
        <mxCell id="m__d6OJdyXCMt7KyZCjO-1" value="Integer weedOutShortlistMax（入围上限）" style="text;strokeColor=none;fillColor=none;align=left;verticalAlign=middle;spacingLeft=4;spacingRight=4;overflow=hidden;points=[[0,0.5],[1,0.5]];portConstraint=eastwest;rotatable=0;whiteSpace=wrap;html=1;fontFamily=Comic Sans MS;" parent="C2iRjYQwUr5vMglBMvX1-1" vertex="1">
          <mxGeometry y="1170" width="520" height="30" as="geometry" />
        </mxCell>
        <mxCell id="m__d6OJdyXCMt7KyZCjO-26" value="BigDecimal weedOutRate（淘汰率）" style="text;strokeColor=none;fillColor=none;align=left;verticalAlign=middle;spacingLeft=4;spacingRight=4;overflow=hidden;points=[[0,0.5],[1,0.5]];portConstraint=eastwest;rotatable=0;whiteSpace=wrap;html=1;fontFamily=Comic Sans MS;" parent="C2iRjYQwUr5vMglBMvX1-1" vertex="1">
          <mxGeometry y="1200" width="520" height="30" as="geometry" />
        </mxCell>
        <mxCell id="m__d6OJdyXCMt7KyZCjO-25" value="Integer weedOutMinCount（至少淘汰家数）" style="text;strokeColor=none;fillColor=none;align=left;verticalAlign=middle;spacingLeft=4;spacingRight=4;overflow=hidden;points=[[0,0.5],[1,0.5]];portConstraint=eastwest;rotatable=0;whiteSpace=wrap;html=1;fontFamily=Comic Sans MS;" parent="C2iRjYQwUr5vMglBMvX1-1" vertex="1">
          <mxGeometry y="1230" width="520" height="30" as="geometry" />
        </mxCell>
        <mxCell id="m__d6OJdyXCMt7KyZCjO-24" value="Integer weedOutRoundRule（淘汰取整规则）" style="text;strokeColor=none;fillColor=none;align=left;verticalAlign=middle;spacingLeft=4;spacingRight=4;overflow=hidden;points=[[0,0.5],[1,0.5]];portConstraint=eastwest;rotatable=0;whiteSpace=wrap;html=1;fontFamily=Comic Sans MS;" parent="C2iRjYQwUr5vMglBMvX1-1" vertex="1">
          <mxGeometry y="1260" width="520" height="30" as="geometry" />
        </mxCell>
        <mxCell id="m__d6OJdyXCMt7KyZCjO-23" value="String payMethodCode（支付方式）" style="text;strokeColor=none;fillColor=none;align=left;verticalAlign=middle;spacingLeft=4;spacingRight=4;overflow=hidden;points=[[0,0.5],[1,0.5]];portConstraint=eastwest;rotatable=0;whiteSpace=wrap;html=1;fontFamily=Comic Sans MS;" parent="C2iRjYQwUr5vMglBMvX1-1" vertex="1">
          <mxGeometry y="1290" width="520" height="30" as="geometry" />
        </mxCell>
        <mxCell id="m__d6OJdyXCMt7KyZCjO-22" value="String payMethod（支付方式）" style="text;strokeColor=none;fillColor=none;align=left;verticalAlign=middle;spacingLeft=4;spacingRight=4;overflow=hidden;points=[[0,0.5],[1,0.5]];portConstraint=eastwest;rotatable=0;whiteSpace=wrap;html=1;fontFamily=Comic Sans MS;" parent="C2iRjYQwUr5vMglBMvX1-1" vertex="1">
          <mxGeometry y="1320" width="520" height="30" as="geometry" />
        </mxCell>
        <mxCell id="m__d6OJdyXCMt7KyZCjO-21" value="String payDescribe（支付描述）" style="text;strokeColor=none;fillColor=none;align=left;verticalAlign=middle;spacingLeft=4;spacingRight=4;overflow=hidden;points=[[0,0.5],[1,0.5]];portConstraint=eastwest;rotatable=0;whiteSpace=wrap;html=1;fontFamily=Comic Sans MS;" parent="C2iRjYQwUr5vMglBMvX1-1" vertex="1">
          <mxGeometry y="1350" width="520" height="30" as="geometry" />
        </mxCell>
        <mxCell id="m__d6OJdyXCMt7KyZCjO-18" value="List&amp;lt;KcAgreementCatalogDetailDTO&amp;gt; catalogDetailList（标的）" style="text;strokeColor=none;fillColor=none;align=left;verticalAlign=middle;spacingLeft=4;spacingRight=4;overflow=hidden;points=[[0,0.5],[1,0.5]];portConstraint=eastwest;rotatable=0;whiteSpace=wrap;html=1;fontStyle=1;fontFamily=Comic Sans MS;" parent="C2iRjYQwUr5vMglBMvX1-1" vertex="1">
          <mxGeometry y="1380" width="520" height="30" as="geometry" />
        </mxCell>
        <mxCell id="m__d6OJdyXCMt7KyZCjO-164" value="List&amp;lt;KcAgreementClauseDTO&amp;gt; clauseList（条款）" style="text;strokeColor=none;fillColor=none;align=left;verticalAlign=middle;spacingLeft=4;spacingRight=4;overflow=hidden;points=[[0,0.5],[1,0.5]];portConstraint=eastwest;rotatable=0;whiteSpace=wrap;html=1;fontStyle=1;fontFamily=Comic Sans MS;" parent="C2iRjYQwUr5vMglBMvX1-1" vertex="1">
          <mxGeometry y="1410" width="520" height="30" as="geometry" />
        </mxCell>
        <mxCell id="m__d6OJdyXCMt7KyZCjO-166" value="List&amp;lt;KcAgreementClauseTypeDTO&amp;gt; clauseTypeList（条款类型）" style="text;strokeColor=none;fillColor=none;align=left;verticalAlign=middle;spacingLeft=4;spacingRight=4;overflow=hidden;points=[[0,0.5],[1,0.5]];portConstraint=eastwest;rotatable=0;whiteSpace=wrap;html=1;fontStyle=1;fontFamily=Comic Sans MS;" parent="C2iRjYQwUr5vMglBMvX1-1" vertex="1">
          <mxGeometry y="1440" width="520" height="30" as="geometry" />
        </mxCell>
        <mxCell id="m__d6OJdyXCMt7KyZCjO-167" value="Map&amp;lt;String, Object&amp;gt; projectExtMap（项目级扩展信息）" style="text;strokeColor=none;fillColor=none;align=left;verticalAlign=middle;spacingLeft=4;spacingRight=4;overflow=hidden;points=[[0,0.5],[1,0.5]];portConstraint=eastwest;rotatable=0;whiteSpace=wrap;html=1;fontStyle=1;fontFamily=Comic Sans MS;" parent="C2iRjYQwUr5vMglBMvX1-1" vertex="1">
          <mxGeometry y="1470" width="520" height="30" as="geometry" />
        </mxCell>
        <mxCell id="JMdAkeIzqonVhZbLqowp-2" value="Map&amp;lt;String, Object&amp;gt; packageExtMap（包级级扩展信息）" style="text;strokeColor=none;fillColor=none;align=left;verticalAlign=middle;spacingLeft=4;spacingRight=4;overflow=hidden;points=[[0,0.5],[1,0.5]];portConstraint=eastwest;rotatable=0;whiteSpace=wrap;html=1;fontStyle=1;fontFamily=Comic Sans MS;" parent="C2iRjYQwUr5vMglBMvX1-1" vertex="1">
          <mxGeometry y="1500" width="520" height="30" as="geometry" />
        </mxCell>
        <mxCell id="jJFGgtmmb8NNKWefRlXa-52" value="List&amp;lt;KcAgreementBusinessClasueDTO&amp;gt; packageBusinessClauseList" style="text;align=left;verticalAlign=middle;spacingLeft=4;spacingRight=4;overflow=hidden;points=[[0,0.5],[1,0.5]];portConstraint=eastwest;rotatable=0;whiteSpace=wrap;html=1;fontStyle=1;fillColor=#FF0000;fillStyle=auto;fontFamily=Comic Sans MS;" parent="C2iRjYQwUr5vMglBMvX1-1" vertex="1">
          <mxGeometry y="1530" width="520" height="30" as="geometry" />
        </mxCell>
        <mxCell id="jJFGgtmmb8NNKWefRlXa-29" value="List&amp;lt;KcAgreementProjectAcquisitionDTO&amp;gt; projectAcquisitionList（采购适用人范围）" style="text;strokeColor=none;fillColor=none;align=left;verticalAlign=middle;spacingLeft=4;spacingRight=4;overflow=hidden;points=[[0,0.5],[1,0.5]];portConstraint=eastwest;rotatable=0;whiteSpace=wrap;html=1;fontStyle=1;fontFamily=Comic Sans MS;" parent="C2iRjYQwUr5vMglBMvX1-1" vertex="1">
          <mxGeometry y="1560" width="520" height="30" as="geometry" />
        </mxCell>
        <mxCell id="m__d6OJdyXCMt7KyZCjO-168" value="List&amp;lt;KcAgreementSupplierProjectCandidateDTO&amp;gt; supplierList（供应商雷彪）" style="text;strokeColor=none;fillColor=none;align=left;verticalAlign=middle;spacingLeft=4;spacingRight=4;overflow=hidden;points=[[0,0.5],[1,0.5]];portConstraint=eastwest;rotatable=0;whiteSpace=wrap;html=1;fontStyle=1;fontFamily=Comic Sans MS;" parent="C2iRjYQwUr5vMglBMvX1-1" vertex="1">
          <mxGeometry y="1590" width="520" height="30" as="geometry" />
        </mxCell>
        <mxCell id="VYcQnqmnNoIjzm7rmO-Z-4" value="List&amp;lt;KcAgreementCatalogServiceRequireDTO&amp;gt; serviceRequireList（旧版报价要求）" style="text;strokeColor=none;fillColor=none;align=left;verticalAlign=middle;spacingLeft=4;spacingRight=4;overflow=hidden;points=[[0,0.5],[1,0.5]];portConstraint=eastwest;rotatable=0;whiteSpace=wrap;html=1;fontStyle=1;fontFamily=Comic Sans MS;" parent="C2iRjYQwUr5vMglBMvX1-1" vertex="1">
          <mxGeometry y="1620" width="520" height="30" as="geometry" />
        </mxCell>
        <mxCell id="JMdAkeIzqonVhZbLqowp-96" value="List&amp;lt;KcAgreementQuotationDetailDTO&amp;gt; quotationDetailsList（新版报价要求）" style="text;strokeColor=none;fillColor=none;align=left;verticalAlign=middle;spacingLeft=4;spacingRight=4;overflow=hidden;points=[[0,0.5],[1,0.5]];portConstraint=eastwest;rotatable=0;whiteSpace=wrap;html=1;labelBackgroundColor=default;fontStyle=1;fontFamily=Comic Sans MS;" parent="C2iRjYQwUr5vMglBMvX1-1" vertex="1">
          <mxGeometry y="1650" width="520" height="30" as="geometry" />
        </mxCell>
        <mxCell id="m__d6OJdyXCMt7KyZCjO-29" value="KcAgreementCatalogDetailDTO" style="swimlane;fontStyle=0;childLayout=stackLayout;horizontal=1;startSize=30;horizontalStack=0;resizeParent=1;resizeParentMax=0;resizeLast=0;collapsible=1;marginBottom=0;whiteSpace=wrap;html=1;fillColor=#fff2cc;strokeColor=#d6b656;fontFamily=Comic Sans MS;" parent="1" vertex="1">
          <mxGeometry x="680" y="-2290" width="570" height="1080" as="geometry">
            <mxRectangle x="70" y="50" width="60" height="30" as="alternateBounds" />
          </mxGeometry>
        </mxCell>
        <mxCell id="m__d6OJdyXCMt7KyZCjO-30" value="String id" style="text;strokeColor=none;fillColor=none;align=left;verticalAlign=middle;spacingLeft=4;spacingRight=4;overflow=hidden;points=[[0,0.5],[1,0.5]];portConstraint=eastwest;rotatable=0;whiteSpace=wrap;html=1;labelBackgroundColor=default;fontFamily=Comic Sans MS;" parent="m__d6OJdyXCMt7KyZCjO-29" vertex="1">
          <mxGeometry y="30" width="570" height="30" as="geometry" />
        </mxCell>
        <mxCell id="m__d6OJdyXCMt7KyZCjO-31" value="String packageId" style="text;strokeColor=none;fillColor=none;align=left;verticalAlign=middle;spacingLeft=4;spacingRight=4;overflow=hidden;points=[[0,0.5],[1,0.5]];portConstraint=eastwest;rotatable=0;whiteSpace=wrap;html=1;labelBackgroundColor=default;textShadow=0;fontFamily=Comic Sans MS;" parent="m__d6OJdyXCMt7KyZCjO-29" vertex="1">
          <mxGeometry y="60" width="570" height="30" as="geometry" />
        </mxCell>
        <mxCell id="m__d6OJdyXCMt7KyZCjO-32" value="String detailSequence（）" style="text;strokeColor=none;fillColor=none;align=left;verticalAlign=middle;spacingLeft=4;spacingRight=4;overflow=hidden;points=[[0,0.5],[1,0.5]];portConstraint=eastwest;rotatable=0;whiteSpace=wrap;html=1;labelBackgroundColor=default;fontFamily=Comic Sans MS;" parent="m__d6OJdyXCMt7KyZCjO-29" vertex="1">
          <mxGeometry y="90" width="570" height="30" as="geometry" />
        </mxCell>
        <mxCell id="m__d6OJdyXCMt7KyZCjO-33" value="String catalogId（）" style="text;strokeColor=none;fillColor=none;align=left;verticalAlign=middle;spacingLeft=4;spacingRight=4;overflow=hidden;points=[[0,0.5],[1,0.5]];portConstraint=eastwest;rotatable=0;whiteSpace=wrap;html=1;labelBackgroundColor=default;fontFamily=Comic Sans MS;" parent="m__d6OJdyXCMt7KyZCjO-29" vertex="1">
          <mxGeometry y="120" width="570" height="30" as="geometry" />
        </mxCell>
        <mxCell id="m__d6OJdyXCMt7KyZCjO-34" value="String catalogIdCode（）" style="text;strokeColor=none;fillColor=none;align=left;verticalAlign=middle;spacingLeft=4;spacingRight=4;overflow=hidden;points=[[0,0.5],[1,0.5]];portConstraint=eastwest;rotatable=0;whiteSpace=wrap;html=1;labelBackgroundColor=default;fontFamily=Comic Sans MS;" parent="m__d6OJdyXCMt7KyZCjO-29" vertex="1">
          <mxGeometry y="150" width="570" height="30" as="geometry" />
        </mxCell>
        <mxCell id="m__d6OJdyXCMt7KyZCjO-35" value="String catalogCode（）" style="text;strokeColor=none;fillColor=none;align=left;verticalAlign=middle;spacingLeft=4;spacingRight=4;overflow=hidden;points=[[0,0.5],[1,0.5]];portConstraint=eastwest;rotatable=0;whiteSpace=wrap;html=1;labelBackgroundColor=default;fontFamily=Comic Sans MS;" parent="m__d6OJdyXCMt7KyZCjO-29" vertex="1">
          <mxGeometry y="180" width="570" height="30" as="geometry" />
        </mxCell>
        <mxCell id="m__d6OJdyXCMt7KyZCjO-36" value="String catalogName（）" style="text;strokeColor=none;fillColor=none;align=left;verticalAlign=middle;spacingLeft=4;spacingRight=4;overflow=hidden;points=[[0,0.5],[1,0.5]];portConstraint=eastwest;rotatable=0;whiteSpace=wrap;html=1;labelBackgroundColor=default;fontFamily=Comic Sans MS;" parent="m__d6OJdyXCMt7KyZCjO-29" vertex="1">
          <mxGeometry y="210" width="570" height="30" as="geometry" />
        </mxCell>
        <mxCell id="m__d6OJdyXCMt7KyZCjO-37" value="String detailName（）" style="text;strokeColor=none;fillColor=none;align=left;verticalAlign=middle;spacingLeft=4;spacingRight=4;overflow=hidden;points=[[0,0.5],[1,0.5]];portConstraint=eastwest;rotatable=0;whiteSpace=wrap;html=1;labelBackgroundColor=default;fontFamily=Comic Sans MS;" parent="m__d6OJdyXCMt7KyZCjO-29" vertex="1">
          <mxGeometry y="240" width="570" height="30" as="geometry" />
        </mxCell>
        <mxCell id="m__d6OJdyXCMt7KyZCjO-38" value="String priceMode（）" style="text;strokeColor=none;fillColor=none;align=left;verticalAlign=middle;spacingLeft=4;spacingRight=4;overflow=hidden;points=[[0,0.5],[1,0.5]];portConstraint=eastwest;rotatable=0;whiteSpace=wrap;html=1;labelBackgroundColor=default;fontFamily=Comic Sans MS;" parent="m__d6OJdyXCMt7KyZCjO-29" vertex="1">
          <mxGeometry y="270" width="570" height="30" as="geometry" />
        </mxCell>
        <mxCell id="m__d6OJdyXCMt7KyZCjO-39" value="String priceModeName（）" style="text;strokeColor=none;fillColor=none;align=left;verticalAlign=middle;spacingLeft=4;spacingRight=4;overflow=hidden;points=[[0,0.5],[1,0.5]];portConstraint=eastwest;rotatable=0;whiteSpace=wrap;html=1;labelBackgroundColor=default;fontFamily=Comic Sans MS;" parent="m__d6OJdyXCMt7KyZCjO-29" vertex="1">
          <mxGeometry y="300" width="570" height="30" as="geometry" />
        </mxCell>
        <mxCell id="m__d6OJdyXCMt7KyZCjO-40" value="String unit（）" style="text;strokeColor=none;fillColor=none;align=left;verticalAlign=middle;spacingLeft=4;spacingRight=4;overflow=hidden;points=[[0,0.5],[1,0.5]];portConstraint=eastwest;rotatable=0;whiteSpace=wrap;html=1;labelBackgroundColor=default;fontFamily=Comic Sans MS;" parent="m__d6OJdyXCMt7KyZCjO-29" vertex="1">
          <mxGeometry y="330" width="570" height="30" as="geometry" />
        </mxCell>
        <mxCell id="m__d6OJdyXCMt7KyZCjO-41" value="String unitCode（）" style="text;strokeColor=none;fillColor=none;align=left;verticalAlign=middle;spacingLeft=4;spacingRight=4;overflow=hidden;points=[[0,0.5],[1,0.5]];portConstraint=eastwest;rotatable=0;whiteSpace=wrap;html=1;labelBackgroundColor=default;fontFamily=Comic Sans MS;" parent="m__d6OJdyXCMt7KyZCjO-29" vertex="1">
          <mxGeometry y="360" width="570" height="30" as="geometry" />
        </mxCell>
        <mxCell id="m__d6OJdyXCMt7KyZCjO-42" value="Integer govServiceStatus（）" style="text;strokeColor=none;fillColor=none;align=left;verticalAlign=middle;spacingLeft=4;spacingRight=4;overflow=hidden;points=[[0,0.5],[1,0.5]];portConstraint=eastwest;rotatable=0;whiteSpace=wrap;html=1;labelBackgroundColor=default;fontFamily=Comic Sans MS;" parent="m__d6OJdyXCMt7KyZCjO-29" vertex="1">
          <mxGeometry y="390" width="570" height="30" as="geometry" />
        </mxCell>
        <mxCell id="m__d6OJdyXCMt7KyZCjO-43" value="BigDecimal forecastPurchaseNum（）" style="text;strokeColor=none;fillColor=none;align=left;verticalAlign=middle;spacingLeft=4;spacingRight=4;overflow=hidden;points=[[0,0.5],[1,0.5]];portConstraint=eastwest;rotatable=0;whiteSpace=wrap;html=1;labelBackgroundColor=default;fontFamily=Comic Sans MS;" parent="m__d6OJdyXCMt7KyZCjO-29" vertex="1">
          <mxGeometry y="420" width="570" height="30" as="geometry" />
        </mxCell>
        <mxCell id="m__d6OJdyXCMt7KyZCjO-44" value="String govServiceCode（）" style="text;strokeColor=none;fillColor=none;align=left;verticalAlign=middle;spacingLeft=4;spacingRight=4;overflow=hidden;points=[[0,0.5],[1,0.5]];portConstraint=eastwest;rotatable=0;whiteSpace=wrap;html=1;labelBackgroundColor=default;fontFamily=Comic Sans MS;" parent="m__d6OJdyXCMt7KyZCjO-29" vertex="1">
          <mxGeometry y="450" width="570" height="30" as="geometry" />
        </mxCell>
        <mxCell id="m__d6OJdyXCMt7KyZCjO-45" value="String govServiceName（）" style="text;strokeColor=none;fillColor=none;align=left;verticalAlign=middle;spacingLeft=4;spacingRight=4;overflow=hidden;points=[[0,0.5],[1,0.5]];portConstraint=eastwest;rotatable=0;whiteSpace=wrap;html=1;labelBackgroundColor=default;fontFamily=Comic Sans MS;" parent="m__d6OJdyXCMt7KyZCjO-29" vertex="1">
          <mxGeometry y="480" width="570" height="30" as="geometry" />
        </mxCell>
        <mxCell id="m__d6OJdyXCMt7KyZCjO-46" value="BigDecimal priceLimit（）" style="text;strokeColor=none;fillColor=none;align=left;verticalAlign=middle;spacingLeft=4;spacingRight=4;overflow=hidden;points=[[0,0.5],[1,0.5]];portConstraint=eastwest;rotatable=0;whiteSpace=wrap;html=1;labelBackgroundColor=default;fontFamily=Comic Sans MS;" parent="m__d6OJdyXCMt7KyZCjO-29" vertex="1">
          <mxGeometry y="510" width="570" height="30" as="geometry" />
        </mxCell>
        <mxCell id="m__d6OJdyXCMt7KyZCjO-47" value="BigDecimal discountRate（）" style="text;strokeColor=none;fillColor=none;align=left;verticalAlign=middle;spacingLeft=4;spacingRight=4;overflow=hidden;points=[[0,0.5],[1,0.5]];portConstraint=eastwest;rotatable=0;whiteSpace=wrap;html=1;labelBackgroundColor=default;fontFamily=Comic Sans MS;" parent="m__d6OJdyXCMt7KyZCjO-29" vertex="1">
          <mxGeometry y="540" width="570" height="30" as="geometry" />
        </mxCell>
        <mxCell id="m__d6OJdyXCMt7KyZCjO-48" value="String industryCode（）" style="text;strokeColor=none;fillColor=none;align=left;verticalAlign=middle;spacingLeft=4;spacingRight=4;overflow=hidden;points=[[0,0.5],[1,0.5]];portConstraint=eastwest;rotatable=0;whiteSpace=wrap;html=1;labelBackgroundColor=default;fontFamily=Comic Sans MS;" parent="m__d6OJdyXCMt7KyZCjO-29" vertex="1">
          <mxGeometry y="570" width="570" height="30" as="geometry" />
        </mxCell>
        <mxCell id="m__d6OJdyXCMt7KyZCjO-49" value="String industryName（）" style="text;strokeColor=none;fillColor=none;align=left;verticalAlign=middle;spacingLeft=4;spacingRight=4;overflow=hidden;points=[[0,0.5],[1,0.5]];portConstraint=eastwest;rotatable=0;whiteSpace=wrap;html=1;labelBackgroundColor=default;fontFamily=Comic Sans MS;" parent="m__d6OJdyXCMt7KyZCjO-29" vertex="1">
          <mxGeometry y="600" width="570" height="30" as="geometry" />
        </mxCell>
        <mxCell id="m__d6OJdyXCMt7KyZCjO-50" value="Integer importedStatus（）" style="text;strokeColor=none;fillColor=none;align=left;verticalAlign=middle;spacingLeft=4;spacingRight=4;overflow=hidden;points=[[0,0.5],[1,0.5]];portConstraint=eastwest;rotatable=0;whiteSpace=wrap;html=1;labelBackgroundColor=default;fontFamily=Comic Sans MS;" parent="m__d6OJdyXCMt7KyZCjO-29" vertex="1">
          <mxGeometry y="630" width="570" height="30" as="geometry" />
        </mxCell>
        <mxCell id="m__d6OJdyXCMt7KyZCjO-51" value="Integer energyConservationStatus（）" style="text;strokeColor=none;fillColor=none;align=left;verticalAlign=middle;spacingLeft=4;spacingRight=4;overflow=hidden;points=[[0,0.5],[1,0.5]];portConstraint=eastwest;rotatable=0;whiteSpace=wrap;html=1;labelBackgroundColor=default;fontFamily=Comic Sans MS;" parent="m__d6OJdyXCMt7KyZCjO-29" vertex="1">
          <mxGeometry y="660" width="570" height="30" as="geometry" />
        </mxCell>
        <mxCell id="m__d6OJdyXCMt7KyZCjO-52" value="String energyReason（）" style="text;strokeColor=none;fillColor=none;align=left;verticalAlign=middle;spacingLeft=4;spacingRight=4;overflow=hidden;points=[[0,0.5],[1,0.5]];portConstraint=eastwest;rotatable=0;whiteSpace=wrap;html=1;labelBackgroundColor=default;fontFamily=Comic Sans MS;" parent="m__d6OJdyXCMt7KyZCjO-29" vertex="1">
          <mxGeometry y="690" width="570" height="30" as="geometry" />
        </mxCell>
        <mxCell id="m__d6OJdyXCMt7KyZCjO-53" value="Integer coreProductStatus（）" style="text;strokeColor=none;fillColor=none;align=left;verticalAlign=middle;spacingLeft=4;spacingRight=4;overflow=hidden;points=[[0,0.5],[1,0.5]];portConstraint=eastwest;rotatable=0;whiteSpace=wrap;html=1;fontFamily=Comic Sans MS;" parent="m__d6OJdyXCMt7KyZCjO-29" vertex="1">
          <mxGeometry y="720" width="570" height="30" as="geometry" />
        </mxCell>
        <mxCell id="m__d6OJdyXCMt7KyZCjO-54" value="Integer environmentalProtectionStatus（）" style="text;strokeColor=none;fillColor=none;align=left;verticalAlign=middle;spacingLeft=4;spacingRight=4;overflow=hidden;points=[[0,0.5],[1,0.5]];portConstraint=eastwest;rotatable=0;whiteSpace=wrap;html=1;fontFamily=Comic Sans MS;" parent="m__d6OJdyXCMt7KyZCjO-29" vertex="1">
          <mxGeometry y="750" width="570" height="30" as="geometry" />
        </mxCell>
        <mxCell id="m__d6OJdyXCMt7KyZCjO-55" value="String deliveryTime（）" style="text;strokeColor=none;fillColor=none;align=left;verticalAlign=middle;spacingLeft=4;spacingRight=4;overflow=hidden;points=[[0,0.5],[1,0.5]];portConstraint=eastwest;rotatable=0;whiteSpace=wrap;html=1;labelBackgroundColor=default;fontFamily=Comic Sans MS;" parent="m__d6OJdyXCMt7KyZCjO-29" vertex="1">
          <mxGeometry y="780" width="570" height="30" as="geometry" />
        </mxCell>
        <mxCell id="m__d6OJdyXCMt7KyZCjO-56" value="String deliveryScope（）" style="text;strokeColor=none;fillColor=none;align=left;verticalAlign=middle;spacingLeft=4;spacingRight=4;overflow=hidden;points=[[0,0.5],[1,0.5]];portConstraint=eastwest;rotatable=0;whiteSpace=wrap;html=1;labelBackgroundColor=default;fontFamily=Comic Sans MS;" parent="m__d6OJdyXCMt7KyZCjO-29" vertex="1">
          <mxGeometry y="810" width="570" height="30" as="geometry" />
        </mxCell>
        <mxCell id="m__d6OJdyXCMt7KyZCjO-57" value="String deliveryScopeName（）" style="text;strokeColor=none;fillColor=none;align=left;verticalAlign=middle;spacingLeft=4;spacingRight=4;overflow=hidden;points=[[0,0.5],[1,0.5]];portConstraint=eastwest;rotatable=0;whiteSpace=wrap;html=1;labelBackgroundColor=default;fontFamily=Comic Sans MS;" parent="m__d6OJdyXCMt7KyZCjO-29" vertex="1">
          <mxGeometry y="840" width="570" height="30" as="geometry" />
        </mxCell>
        <mxCell id="m__d6OJdyXCMt7KyZCjO-58" value="Integer simulationLifeCycle（）" style="text;strokeColor=none;fillColor=none;align=left;verticalAlign=middle;spacingLeft=4;spacingRight=4;overflow=hidden;points=[[0,0.5],[1,0.5]];portConstraint=eastwest;rotatable=0;whiteSpace=wrap;html=1;fontFamily=Comic Sans MS;" parent="m__d6OJdyXCMt7KyZCjO-29" vertex="1">
          <mxGeometry y="870" width="570" height="30" as="geometry" />
        </mxCell>
        <mxCell id="m__d6OJdyXCMt7KyZCjO-59" value="String warrantyPeriod（）" style="text;strokeColor=none;fillColor=none;align=left;verticalAlign=middle;spacingLeft=4;spacingRight=4;overflow=hidden;points=[[0,0.5],[1,0.5]];portConstraint=eastwest;rotatable=0;whiteSpace=wrap;html=1;fontFamily=Comic Sans MS;" parent="m__d6OJdyXCMt7KyZCjO-29" vertex="1">
          <mxGeometry y="900" width="570" height="30" as="geometry" />
        </mxCell>
        <mxCell id="m__d6OJdyXCMt7KyZCjO-76" value="List&amp;lt;KcAgreementCatalogComponentDTO&amp;gt; catalogComponentList（配件耗材）" style="text;strokeColor=none;fillColor=none;align=left;verticalAlign=middle;spacingLeft=4;spacingRight=4;overflow=hidden;points=[[0,0.5],[1,0.5]];portConstraint=eastwest;rotatable=0;whiteSpace=wrap;html=1;fontStyle=1;fontFamily=Comic Sans MS;" parent="m__d6OJdyXCMt7KyZCjO-29" vertex="1">
          <mxGeometry y="930" width="570" height="30" as="geometry" />
        </mxCell>
        <mxCell id="m__d6OJdyXCMt7KyZCjO-77" value="List&amp;lt;KcAgreementCatalogParamDTO&amp;gt; packageParamList（货物类参数）" style="text;strokeColor=none;fillColor=none;align=left;verticalAlign=middle;spacingLeft=4;spacingRight=4;overflow=hidden;points=[[0,0.5],[1,0.5]];portConstraint=eastwest;rotatable=0;whiteSpace=wrap;html=1;fontStyle=1;fontFamily=Comic Sans MS;" parent="m__d6OJdyXCMt7KyZCjO-29" vertex="1">
          <mxGeometry y="960" width="570" height="30" as="geometry" />
        </mxCell>
        <mxCell id="m__d6OJdyXCMt7KyZCjO-78" value="List&amp;lt;KcAgreementCatalogServiceHumanDTO&amp;gt; serviceHumanRequireList（服务类服务人员要求）" style="text;strokeColor=none;fillColor=none;align=left;verticalAlign=middle;spacingLeft=4;spacingRight=4;overflow=hidden;points=[[0,0.5],[1,0.5]];portConstraint=eastwest;rotatable=0;whiteSpace=wrap;html=1;fontStyle=1;fontFamily=Comic Sans MS;" parent="m__d6OJdyXCMt7KyZCjO-29" vertex="1">
          <mxGeometry y="990" width="570" height="30" as="geometry" />
        </mxCell>
        <mxCell id="uhuIzP3Es-dFqJNIFF9s-1" value="List&amp;lt;KcAgreementCatalogServiceRequireDTO&amp;gt; serviceRequireList（服务类服务要求）" style="text;strokeColor=none;fillColor=none;align=left;verticalAlign=middle;spacingLeft=4;spacingRight=4;overflow=hidden;points=[[0,0.5],[1,0.5]];portConstraint=eastwest;rotatable=0;whiteSpace=wrap;html=1;fontStyle=1;fontFamily=Comic Sans MS;" parent="m__d6OJdyXCMt7KyZCjO-29" vertex="1">
          <mxGeometry y="1020" width="570" height="30" as="geometry" />
        </mxCell>
        <mxCell id="uhuIzP3Es-dFqJNIFF9s-2" value="List&amp;lt;KcAgreementDiscountDTO&amp;gt; agreementDiscountList（量价折扣关系）" style="text;strokeColor=none;fillColor=none;align=left;verticalAlign=middle;spacingLeft=4;spacingRight=4;overflow=hidden;points=[[0,0.5],[1,0.5]];portConstraint=eastwest;rotatable=0;whiteSpace=wrap;html=1;fontStyle=1;fontFamily=Comic Sans MS;" parent="m__d6OJdyXCMt7KyZCjO-29" vertex="1">
          <mxGeometry y="1050" width="570" height="30" as="geometry" />
        </mxCell>
        <mxCell id="m__d6OJdyXCMt7KyZCjO-80" value="KcAgreementCatalogComponentDTO" style="swimlane;fontStyle=0;childLayout=stackLayout;horizontal=1;startSize=30;horizontalStack=0;resizeParent=1;resizeParentMax=0;resizeLast=0;collapsible=1;marginBottom=0;whiteSpace=wrap;html=1;fillColor=#fff2cc;strokeColor=#d6b656;fontFamily=Comic Sans MS;" parent="1" vertex="1">
          <mxGeometry x="1640" y="-2690" width="340" height="480" as="geometry">
            <mxRectangle x="70" y="50" width="60" height="30" as="alternateBounds" />
          </mxGeometry>
        </mxCell>
        <mxCell id="m__d6OJdyXCMt7KyZCjO-81" value="String id" style="text;strokeColor=none;fillColor=none;align=left;verticalAlign=middle;spacingLeft=4;spacingRight=4;overflow=hidden;points=[[0,0.5],[1,0.5]];portConstraint=eastwest;rotatable=0;whiteSpace=wrap;html=1;labelBackgroundColor=default;fontFamily=Comic Sans MS;" parent="m__d6OJdyXCMt7KyZCjO-80" vertex="1">
          <mxGeometry y="30" width="340" height="30" as="geometry" />
        </mxCell>
        <mxCell id="m__d6OJdyXCMt7KyZCjO-82" value="Integer sequence" style="text;strokeColor=none;fillColor=none;align=left;verticalAlign=middle;spacingLeft=4;spacingRight=4;overflow=hidden;points=[[0,0.5],[1,0.5]];portConstraint=eastwest;rotatable=0;whiteSpace=wrap;html=1;labelBackgroundColor=default;textShadow=0;fontFamily=Comic Sans MS;" parent="m__d6OJdyXCMt7KyZCjO-80" vertex="1">
          <mxGeometry y="60" width="340" height="30" as="geometry" />
        </mxCell>
        <mxCell id="m__d6OJdyXCMt7KyZCjO-83" value="String catalogDetailId" style="text;strokeColor=none;fillColor=none;align=left;verticalAlign=middle;spacingLeft=4;spacingRight=4;overflow=hidden;points=[[0,0.5],[1,0.5]];portConstraint=eastwest;rotatable=0;whiteSpace=wrap;html=1;labelBackgroundColor=default;fontFamily=Comic Sans MS;" parent="m__d6OJdyXCMt7KyZCjO-80" vertex="1">
          <mxGeometry y="90" width="340" height="30" as="geometry" />
        </mxCell>
        <mxCell id="m__d6OJdyXCMt7KyZCjO-84" value="String packageId" style="text;strokeColor=none;fillColor=none;align=left;verticalAlign=middle;spacingLeft=4;spacingRight=4;overflow=hidden;points=[[0,0.5],[1,0.5]];portConstraint=eastwest;rotatable=0;whiteSpace=wrap;html=1;labelBackgroundColor=default;fontFamily=Comic Sans MS;" parent="m__d6OJdyXCMt7KyZCjO-80" vertex="1">
          <mxGeometry y="120" width="340" height="30" as="geometry" />
        </mxCell>
        <mxCell id="m__d6OJdyXCMt7KyZCjO-85" value="String catalogId（品目ID）" style="text;strokeColor=none;fillColor=none;align=left;verticalAlign=middle;spacingLeft=4;spacingRight=4;overflow=hidden;points=[[0,0.5],[1,0.5]];portConstraint=eastwest;rotatable=0;whiteSpace=wrap;html=1;labelBackgroundColor=default;fontFamily=Comic Sans MS;" parent="m__d6OJdyXCMt7KyZCjO-80" vertex="1">
          <mxGeometry y="150" width="340" height="30" as="geometry" />
        </mxCell>
        <mxCell id="m__d6OJdyXCMt7KyZCjO-86" value="String technicalRequirementCode（技术要求编码）" style="text;strokeColor=none;fillColor=none;align=left;verticalAlign=middle;spacingLeft=4;spacingRight=4;overflow=hidden;points=[[0,0.5],[1,0.5]];portConstraint=eastwest;rotatable=0;whiteSpace=wrap;html=1;labelBackgroundColor=default;fontFamily=Comic Sans MS;" parent="m__d6OJdyXCMt7KyZCjO-80" vertex="1">
          <mxGeometry y="180" width="340" height="30" as="geometry" />
        </mxCell>
        <mxCell id="m__d6OJdyXCMt7KyZCjO-87" value="String technicalRequirement（技术要求）" style="text;strokeColor=none;fillColor=none;align=left;verticalAlign=middle;spacingLeft=4;spacingRight=4;overflow=hidden;points=[[0,0.5],[1,0.5]];portConstraint=eastwest;rotatable=0;whiteSpace=wrap;html=1;labelBackgroundColor=default;fontFamily=Comic Sans MS;" parent="m__d6OJdyXCMt7KyZCjO-80" vertex="1">
          <mxGeometry y="210" width="340" height="30" as="geometry" />
        </mxCell>
        <mxCell id="m__d6OJdyXCMt7KyZCjO-88" value="String componentName（配件名称）" style="text;strokeColor=none;fillColor=none;align=left;verticalAlign=middle;spacingLeft=4;spacingRight=4;overflow=hidden;points=[[0,0.5],[1,0.5]];portConstraint=eastwest;rotatable=0;whiteSpace=wrap;html=1;labelBackgroundColor=default;fontFamily=Comic Sans MS;" parent="m__d6OJdyXCMt7KyZCjO-80" vertex="1">
          <mxGeometry y="240" width="340" height="30" as="geometry" />
        </mxCell>
        <mxCell id="m__d6OJdyXCMt7KyZCjO-89" value="String componentDesc（配件描述）" style="text;strokeColor=none;fillColor=none;align=left;verticalAlign=middle;spacingLeft=4;spacingRight=4;overflow=hidden;points=[[0,0.5],[1,0.5]];portConstraint=eastwest;rotatable=0;whiteSpace=wrap;html=1;labelBackgroundColor=default;fontFamily=Comic Sans MS;" parent="m__d6OJdyXCMt7KyZCjO-80" vertex="1">
          <mxGeometry y="270" width="340" height="30" as="geometry" />
        </mxCell>
        <mxCell id="m__d6OJdyXCMt7KyZCjO-90" value="BigDecimal lifeSimulationNum（生命周期内模拟数量）" style="text;strokeColor=none;fillColor=none;align=left;verticalAlign=middle;spacingLeft=4;spacingRight=4;overflow=hidden;points=[[0,0.5],[1,0.5]];portConstraint=eastwest;rotatable=0;whiteSpace=wrap;html=1;labelBackgroundColor=default;fontFamily=Comic Sans MS;" parent="m__d6OJdyXCMt7KyZCjO-80" vertex="1">
          <mxGeometry y="300" width="340" height="30" as="geometry" />
        </mxCell>
        <mxCell id="m__d6OJdyXCMt7KyZCjO-91" value="String unit（计量单位）" style="text;strokeColor=none;fillColor=none;align=left;verticalAlign=middle;spacingLeft=4;spacingRight=4;overflow=hidden;points=[[0,0.5],[1,0.5]];portConstraint=eastwest;rotatable=0;whiteSpace=wrap;html=1;labelBackgroundColor=default;fontFamily=Comic Sans MS;" parent="m__d6OJdyXCMt7KyZCjO-80" vertex="1">
          <mxGeometry y="330" width="340" height="30" as="geometry" />
        </mxCell>
        <mxCell id="m__d6OJdyXCMt7KyZCjO-92" value="BigDecimal priceLimit（priceLimit）" style="text;strokeColor=none;fillColor=none;align=left;verticalAlign=middle;spacingLeft=4;spacingRight=4;overflow=hidden;points=[[0,0.5],[1,0.5]];portConstraint=eastwest;rotatable=0;whiteSpace=wrap;html=1;labelBackgroundColor=default;fontFamily=Comic Sans MS;" parent="m__d6OJdyXCMt7KyZCjO-80" vertex="1">
          <mxGeometry y="360" width="340" height="30" as="geometry" />
        </mxCell>
        <mxCell id="m__d6OJdyXCMt7KyZCjO-93" value="String priceLimitCn（最高限制单价（大写））" style="text;strokeColor=none;fillColor=none;align=left;verticalAlign=middle;spacingLeft=4;spacingRight=4;overflow=hidden;points=[[0,0.5],[1,0.5]];portConstraint=eastwest;rotatable=0;whiteSpace=wrap;html=1;labelBackgroundColor=default;fontFamily=Comic Sans MS;" parent="m__d6OJdyXCMt7KyZCjO-80" vertex="1">
          <mxGeometry y="390" width="340" height="30" as="geometry" />
        </mxCell>
        <mxCell id="m__d6OJdyXCMt7KyZCjO-94" value="String serviceExpire（服务期限）" style="text;strokeColor=none;fillColor=none;align=left;verticalAlign=middle;spacingLeft=4;spacingRight=4;overflow=hidden;points=[[0,0.5],[1,0.5]];portConstraint=eastwest;rotatable=0;whiteSpace=wrap;html=1;labelBackgroundColor=default;fontFamily=Comic Sans MS;" parent="m__d6OJdyXCMt7KyZCjO-80" vertex="1">
          <mxGeometry y="420" width="340" height="30" as="geometry" />
        </mxCell>
        <mxCell id="m__d6OJdyXCMt7KyZCjO-95" value="Integer quantity（数量）" style="text;strokeColor=none;fillColor=none;align=left;verticalAlign=middle;spacingLeft=4;spacingRight=4;overflow=hidden;points=[[0,0.5],[1,0.5]];portConstraint=eastwest;rotatable=0;whiteSpace=wrap;html=1;labelBackgroundColor=default;fontFamily=Comic Sans MS;" parent="m__d6OJdyXCMt7KyZCjO-80" vertex="1">
          <mxGeometry y="450" width="340" height="30" as="geometry" />
        </mxCell>
        <mxCell id="m__d6OJdyXCMt7KyZCjO-115" value="KcAgreementCatalogParamDTO" style="swimlane;fontStyle=0;childLayout=stackLayout;horizontal=1;startSize=30;horizontalStack=0;resizeParent=1;resizeParentMax=0;resizeLast=0;collapsible=1;marginBottom=0;whiteSpace=wrap;html=1;fillColor=#fff2cc;strokeColor=#d6b656;fontFamily=Comic Sans MS;" parent="1" vertex="1">
          <mxGeometry x="1640" y="-2170" width="440" height="640" as="geometry">
            <mxRectangle x="70" y="50" width="60" height="30" as="alternateBounds" />
          </mxGeometry>
        </mxCell>
        <mxCell id="m__d6OJdyXCMt7KyZCjO-116" value="String id" style="text;strokeColor=none;fillColor=none;align=left;verticalAlign=middle;spacingLeft=4;spacingRight=4;overflow=hidden;points=[[0,0.5],[1,0.5]];portConstraint=eastwest;rotatable=0;whiteSpace=wrap;html=1;labelBackgroundColor=default;fontFamily=Comic Sans MS;" parent="m__d6OJdyXCMt7KyZCjO-115" vertex="1">
          <mxGeometry y="30" width="440" height="30" as="geometry" />
        </mxCell>
        <mxCell id="m__d6OJdyXCMt7KyZCjO-117" value="String packageId" style="text;strokeColor=none;fillColor=none;align=left;verticalAlign=middle;spacingLeft=4;spacingRight=4;overflow=hidden;points=[[0,0.5],[1,0.5]];portConstraint=eastwest;rotatable=0;whiteSpace=wrap;html=1;labelBackgroundColor=default;textShadow=0;fontFamily=Comic Sans MS;" parent="m__d6OJdyXCMt7KyZCjO-115" vertex="1">
          <mxGeometry y="60" width="440" height="30" as="geometry" />
        </mxCell>
        <mxCell id="m__d6OJdyXCMt7KyZCjO-118" value="String catalogDetailId" style="text;strokeColor=none;fillColor=none;align=left;verticalAlign=middle;spacingLeft=4;spacingRight=4;overflow=hidden;points=[[0,0.5],[1,0.5]];portConstraint=eastwest;rotatable=0;whiteSpace=wrap;html=1;labelBackgroundColor=default;fontFamily=Comic Sans MS;" parent="m__d6OJdyXCMt7KyZCjO-115" vertex="1">
          <mxGeometry y="90" width="440" height="30" as="geometry" />
        </mxCell>
        <mxCell id="m__d6OJdyXCMt7KyZCjO-120" value="Integer deviation（偏离）" style="text;strokeColor=none;fillColor=none;align=left;verticalAlign=middle;spacingLeft=4;spacingRight=4;overflow=hidden;points=[[0,0.5],[1,0.5]];portConstraint=eastwest;rotatable=0;whiteSpace=wrap;html=1;labelBackgroundColor=default;fontFamily=Comic Sans MS;" parent="m__d6OJdyXCMt7KyZCjO-115" vertex="1">
          <mxGeometry y="120" width="440" height="30" as="geometry" />
        </mxCell>
        <mxCell id="m__d6OJdyXCMt7KyZCjO-121" value="String deviationName（偏离规则）" style="text;strokeColor=none;fillColor=none;align=left;verticalAlign=middle;spacingLeft=4;spacingRight=4;overflow=hidden;points=[[0,0.5],[1,0.5]];portConstraint=eastwest;rotatable=0;whiteSpace=wrap;html=1;labelBackgroundColor=default;fontFamily=Comic Sans MS;" parent="m__d6OJdyXCMt7KyZCjO-115" vertex="1">
          <mxGeometry y="150" width="440" height="30" as="geometry" />
        </mxCell>
        <mxCell id="m__d6OJdyXCMt7KyZCjO-122" value="String catalogId（品目ID）" style="text;strokeColor=none;fillColor=none;align=left;verticalAlign=middle;spacingLeft=4;spacingRight=4;overflow=hidden;points=[[0,0.5],[1,0.5]];portConstraint=eastwest;rotatable=0;whiteSpace=wrap;html=1;labelBackgroundColor=default;fontFamily=Comic Sans MS;" parent="m__d6OJdyXCMt7KyZCjO-115" vertex="1">
          <mxGeometry y="180" width="440" height="30" as="geometry" />
        </mxCell>
        <mxCell id="VYcQnqmnNoIjzm7rmO-Z-49" value="String catalogName（品目名称）" style="text;strokeColor=none;fillColor=none;align=left;verticalAlign=middle;spacingLeft=4;spacingRight=4;overflow=hidden;points=[[0,0.5],[1,0.5]];portConstraint=eastwest;rotatable=0;whiteSpace=wrap;html=1;labelBackgroundColor=default;fontFamily=Comic Sans MS;" parent="m__d6OJdyXCMt7KyZCjO-115" vertex="1">
          <mxGeometry y="210" width="440" height="30" as="geometry" />
        </mxCell>
        <mxCell id="m__d6OJdyXCMt7KyZCjO-123" value="String paramOptionInterfaceCode（技术参数选项的interfaceCode）" style="text;strokeColor=none;fillColor=none;align=left;verticalAlign=middle;spacingLeft=4;spacingRight=4;overflow=hidden;points=[[0,0.5],[1,0.5]];portConstraint=eastwest;rotatable=0;whiteSpace=wrap;html=1;labelBackgroundColor=default;fontFamily=Comic Sans MS;" parent="m__d6OJdyXCMt7KyZCjO-115" vertex="1">
          <mxGeometry y="240" width="440" height="40" as="geometry" />
        </mxCell>
        <mxCell id="m__d6OJdyXCMt7KyZCjO-124" value="String goodsclassParamGuid（品目参数id）" style="text;strokeColor=none;fillColor=none;align=left;verticalAlign=middle;spacingLeft=4;spacingRight=4;overflow=hidden;points=[[0,0.5],[1,0.5]];portConstraint=eastwest;rotatable=0;whiteSpace=wrap;html=1;labelBackgroundColor=default;fontFamily=Comic Sans MS;" parent="m__d6OJdyXCMt7KyZCjO-115" vertex="1">
          <mxGeometry y="280" width="440" height="30" as="geometry" />
        </mxCell>
        <mxCell id="m__d6OJdyXCMt7KyZCjO-125" value="String paramName（参数名称）" style="text;strokeColor=none;fillColor=none;align=left;verticalAlign=middle;spacingLeft=4;spacingRight=4;overflow=hidden;points=[[0,0.5],[1,0.5]];portConstraint=eastwest;rotatable=0;whiteSpace=wrap;html=1;labelBackgroundColor=default;fontFamily=Comic Sans MS;" parent="m__d6OJdyXCMt7KyZCjO-115" vertex="1">
          <mxGeometry y="310" width="440" height="30" as="geometry" />
        </mxCell>
        <mxCell id="m__d6OJdyXCMt7KyZCjO-126" value="String paramValue（参数值）" style="text;strokeColor=none;fillColor=none;align=left;verticalAlign=middle;spacingLeft=4;spacingRight=4;overflow=hidden;points=[[0,0.5],[1,0.5]];portConstraint=eastwest;rotatable=0;whiteSpace=wrap;html=1;labelBackgroundColor=default;fontFamily=Comic Sans MS;" parent="m__d6OJdyXCMt7KyZCjO-115" vertex="1">
          <mxGeometry y="340" width="440" height="30" as="geometry" />
        </mxCell>
        <mxCell id="m__d6OJdyXCMt7KyZCjO-127" value="String inputType（参数输入方式）" style="text;strokeColor=none;fillColor=none;align=left;verticalAlign=middle;spacingLeft=4;spacingRight=4;overflow=hidden;points=[[0,0.5],[1,0.5]];portConstraint=eastwest;rotatable=0;whiteSpace=wrap;html=1;labelBackgroundColor=default;fontFamily=Comic Sans MS;" parent="m__d6OJdyXCMt7KyZCjO-115" vertex="1">
          <mxGeometry y="370" width="440" height="30" as="geometry" />
        </mxCell>
        <mxCell id="m__d6OJdyXCMt7KyZCjO-128" value="String paramClass（技术参数分类）" style="text;strokeColor=none;fillColor=none;align=left;verticalAlign=middle;spacingLeft=4;spacingRight=4;overflow=hidden;points=[[0,0.5],[1,0.5]];portConstraint=eastwest;rotatable=0;whiteSpace=wrap;html=1;labelBackgroundColor=default;fontFamily=Comic Sans MS;" parent="m__d6OJdyXCMt7KyZCjO-115" vertex="1">
          <mxGeometry y="400" width="440" height="30" as="geometry" />
        </mxCell>
        <mxCell id="m__d6OJdyXCMt7KyZCjO-129" value="String paramClassName（技术参数分类名称）" style="text;strokeColor=none;fillColor=none;align=left;verticalAlign=middle;spacingLeft=4;spacingRight=4;overflow=hidden;points=[[0,0.5],[1,0.5]];portConstraint=eastwest;rotatable=0;whiteSpace=wrap;html=1;labelBackgroundColor=default;fontFamily=Comic Sans MS;" parent="m__d6OJdyXCMt7KyZCjO-115" vertex="1">
          <mxGeometry y="430" width="440" height="30" as="geometry" />
        </mxCell>
        <mxCell id="m__d6OJdyXCMt7KyZCjO-130" value="String compare（参数比较方法）" style="text;strokeColor=none;fillColor=none;align=left;verticalAlign=middle;spacingLeft=4;spacingRight=4;overflow=hidden;points=[[0,0.5],[1,0.5]];portConstraint=eastwest;rotatable=0;whiteSpace=wrap;html=1;labelBackgroundColor=default;fontFamily=Comic Sans MS;" parent="m__d6OJdyXCMt7KyZCjO-115" vertex="1">
          <mxGeometry y="460" width="440" height="30" as="geometry" />
        </mxCell>
        <mxCell id="m__d6OJdyXCMt7KyZCjO-134" value="Integer sequence（排序）" style="text;strokeColor=none;fillColor=none;align=left;verticalAlign=middle;spacingLeft=4;spacingRight=4;overflow=hidden;points=[[0,0.5],[1,0.5]];portConstraint=eastwest;rotatable=0;whiteSpace=wrap;html=1;labelBackgroundColor=default;fontFamily=Comic Sans MS;" parent="m__d6OJdyXCMt7KyZCjO-115" vertex="1">
          <mxGeometry y="490" width="440" height="30" as="geometry" />
        </mxCell>
        <mxCell id="m__d6OJdyXCMt7KyZCjO-132" value="String paramImportanceCode（参数性质编码）" style="text;strokeColor=none;fillColor=none;align=left;verticalAlign=middle;spacingLeft=4;spacingRight=4;overflow=hidden;points=[[0,0.5],[1,0.5]];portConstraint=eastwest;rotatable=0;whiteSpace=wrap;html=1;labelBackgroundColor=default;fontFamily=Comic Sans MS;" parent="m__d6OJdyXCMt7KyZCjO-115" vertex="1">
          <mxGeometry y="520" width="440" height="30" as="geometry" />
        </mxCell>
        <mxCell id="m__d6OJdyXCMt7KyZCjO-131" value="String paramImportanceName（参数性质名称）" style="text;strokeColor=none;fillColor=none;align=left;verticalAlign=middle;spacingLeft=4;spacingRight=4;overflow=hidden;points=[[0,0.5],[1,0.5]];portConstraint=eastwest;rotatable=0;whiteSpace=wrap;html=1;labelBackgroundColor=default;fontFamily=Comic Sans MS;" parent="m__d6OJdyXCMt7KyZCjO-115" vertex="1">
          <mxGeometry y="550" width="440" height="30" as="geometry" />
        </mxCell>
        <mxCell id="m__d6OJdyXCMt7KyZCjO-140" value="String paramSymbol（参数性质标识）" style="text;strokeColor=none;fillColor=none;align=left;verticalAlign=middle;spacingLeft=4;spacingRight=4;overflow=hidden;points=[[0,0.5],[1,0.5]];portConstraint=eastwest;rotatable=0;whiteSpace=wrap;html=1;labelBackgroundColor=default;fontFamily=Comic Sans MS;" parent="m__d6OJdyXCMt7KyZCjO-115" vertex="1">
          <mxGeometry y="580" width="440" height="30" as="geometry" />
        </mxCell>
        <mxCell id="m__d6OJdyXCMt7KyZCjO-139" value="String paramValueRule（参数值规则）" style="text;strokeColor=none;fillColor=none;align=left;verticalAlign=middle;spacingLeft=4;spacingRight=4;overflow=hidden;points=[[0,0.5],[1,0.5]];portConstraint=eastwest;rotatable=0;whiteSpace=wrap;html=1;labelBackgroundColor=default;fontFamily=Comic Sans MS;" parent="m__d6OJdyXCMt7KyZCjO-115" vertex="1">
          <mxGeometry y="610" width="440" height="30" as="geometry" />
        </mxCell>
        <mxCell id="m__d6OJdyXCMt7KyZCjO-141" value="KcAgreementCatalogServiceRequireDTO" style="swimlane;fontStyle=0;childLayout=stackLayout;horizontal=1;startSize=30;horizontalStack=0;resizeParent=1;resizeParentMax=0;resizeLast=0;collapsible=1;marginBottom=0;whiteSpace=wrap;html=1;fillColor=#fff2cc;strokeColor=#d6b656;fontFamily=Comic Sans MS;" parent="1" vertex="1">
          <mxGeometry x="1640" y="-1070" width="340" height="360" as="geometry">
            <mxRectangle x="70" y="50" width="60" height="30" as="alternateBounds" />
          </mxGeometry>
        </mxCell>
        <mxCell id="VYcQnqmnNoIjzm7rmO-Z-5" value="String id" style="text;strokeColor=none;fillColor=none;align=left;verticalAlign=middle;spacingLeft=4;spacingRight=4;overflow=hidden;points=[[0,0.5],[1,0.5]];portConstraint=eastwest;rotatable=0;whiteSpace=wrap;html=1;labelBackgroundColor=default;fontFamily=Comic Sans MS;" parent="m__d6OJdyXCMt7KyZCjO-141" vertex="1">
          <mxGeometry y="30" width="340" height="30" as="geometry" />
        </mxCell>
        <mxCell id="m__d6OJdyXCMt7KyZCjO-143" value="String packageId" style="text;strokeColor=none;fillColor=none;align=left;verticalAlign=middle;spacingLeft=4;spacingRight=4;overflow=hidden;points=[[0,0.5],[1,0.5]];portConstraint=eastwest;rotatable=0;whiteSpace=wrap;html=1;labelBackgroundColor=default;textShadow=0;fontFamily=Comic Sans MS;" parent="m__d6OJdyXCMt7KyZCjO-141" vertex="1">
          <mxGeometry y="60" width="340" height="30" as="geometry" />
        </mxCell>
        <mxCell id="-4W3cBTythjbGOp8FqpT-1" value="String catalogDetaiId" style="text;strokeColor=none;fillColor=none;align=left;verticalAlign=middle;spacingLeft=4;spacingRight=4;overflow=hidden;points=[[0,0.5],[1,0.5]];portConstraint=eastwest;rotatable=0;whiteSpace=wrap;html=1;labelBackgroundColor=default;fontFamily=Comic Sans MS;" parent="m__d6OJdyXCMt7KyZCjO-141" vertex="1">
          <mxGeometry y="90" width="340" height="30" as="geometry" />
        </mxCell>
        <mxCell id="m__d6OJdyXCMt7KyZCjO-148" value="String catalogId（品目ID）" style="text;strokeColor=none;fillColor=none;align=left;verticalAlign=middle;spacingLeft=4;spacingRight=4;overflow=hidden;points=[[0,0.5],[1,0.5]];portConstraint=eastwest;rotatable=0;whiteSpace=wrap;html=1;labelBackgroundColor=default;fontFamily=Comic Sans MS;" parent="m__d6OJdyXCMt7KyZCjO-141" vertex="1">
          <mxGeometry y="120" width="340" height="30" as="geometry" />
        </mxCell>
        <mxCell id="m__d6OJdyXCMt7KyZCjO-163" value="Integer sequence（排序）" style="text;strokeColor=none;fillColor=none;align=left;verticalAlign=middle;spacingLeft=4;spacingRight=4;overflow=hidden;points=[[0,0.5],[1,0.5]];portConstraint=eastwest;rotatable=0;whiteSpace=wrap;html=1;labelBackgroundColor=default;fontFamily=Comic Sans MS;" parent="m__d6OJdyXCMt7KyZCjO-141" vertex="1">
          <mxGeometry y="150" width="340" height="30" as="geometry" />
        </mxCell>
        <mxCell id="m__d6OJdyXCMt7KyZCjO-146" value="String serviceName (remark)（服务名称）" style="text;strokeColor=none;fillColor=none;align=left;verticalAlign=middle;spacingLeft=4;spacingRight=4;overflow=hidden;points=[[0,0.5],[1,0.5]];portConstraint=eastwest;rotatable=0;whiteSpace=wrap;html=1;labelBackgroundColor=default;fontFamily=Comic Sans MS;" parent="m__d6OJdyXCMt7KyZCjO-141" vertex="1">
          <mxGeometry y="180" width="340" height="30" as="geometry" />
        </mxCell>
        <mxCell id="m__d6OJdyXCMt7KyZCjO-147" value="String serviceClassName (paramClassName)（服务类型）" style="text;strokeColor=none;fillColor=none;align=left;verticalAlign=middle;spacingLeft=4;spacingRight=4;overflow=hidden;points=[[0,0.5],[1,0.5]];portConstraint=eastwest;rotatable=0;whiteSpace=wrap;html=1;labelBackgroundColor=default;fontFamily=Comic Sans MS;" parent="m__d6OJdyXCMt7KyZCjO-141" vertex="1">
          <mxGeometry y="210" width="340" height="30" as="geometry" />
        </mxCell>
        <mxCell id="m__d6OJdyXCMt7KyZCjO-153" value="String serviceDesc (serviceStandard)（服务描述）" style="text;strokeColor=none;fillColor=none;align=left;verticalAlign=middle;spacingLeft=4;spacingRight=4;overflow=hidden;points=[[0,0.5],[1,0.5]];portConstraint=eastwest;rotatable=0;whiteSpace=wrap;html=1;labelBackgroundColor=default;fontFamily=Comic Sans MS;" parent="m__d6OJdyXCMt7KyZCjO-141" vertex="1">
          <mxGeometry y="240" width="340" height="30" as="geometry" />
        </mxCell>
        <mxCell id="m__d6OJdyXCMt7KyZCjO-159" value="Integer breakdown（是否分项报价）" style="text;strokeColor=none;fillColor=none;align=left;verticalAlign=middle;spacingLeft=4;spacingRight=4;overflow=hidden;points=[[0,0.5],[1,0.5]];portConstraint=eastwest;rotatable=0;whiteSpace=wrap;html=1;labelBackgroundColor=default;fontFamily=Comic Sans MS;" parent="m__d6OJdyXCMt7KyZCjO-141" vertex="1">
          <mxGeometry y="270" width="340" height="30" as="geometry" />
        </mxCell>
        <mxCell id="m__d6OJdyXCMt7KyZCjO-160" value="BigDecimal breakUnitPrice（分项报价单价）" style="text;strokeColor=none;fillColor=none;align=left;verticalAlign=middle;spacingLeft=4;spacingRight=4;overflow=hidden;points=[[0,0.5],[1,0.5]];portConstraint=eastwest;rotatable=0;whiteSpace=wrap;html=1;labelBackgroundColor=default;fontFamily=Comic Sans MS;" parent="m__d6OJdyXCMt7KyZCjO-141" vertex="1">
          <mxGeometry y="300" width="340" height="30" as="geometry" />
        </mxCell>
        <mxCell id="m__d6OJdyXCMt7KyZCjO-161" value="BigDecimal breakDiscountRate（分项报价折扣率）" style="text;strokeColor=none;fillColor=none;align=left;verticalAlign=middle;spacingLeft=4;spacingRight=4;overflow=hidden;points=[[0,0.5],[1,0.5]];portConstraint=eastwest;rotatable=0;whiteSpace=wrap;html=1;labelBackgroundColor=default;fontFamily=Comic Sans MS;" parent="m__d6OJdyXCMt7KyZCjO-141" vertex="1">
          <mxGeometry y="330" width="340" height="30" as="geometry" />
        </mxCell>
        <mxCell id="m__d6OJdyXCMt7KyZCjO-170" value="KcAgreementClauseDTO" style="swimlane;fontStyle=0;childLayout=stackLayout;horizontal=1;startSize=30;horizontalStack=0;resizeParent=1;resizeParentMax=0;resizeLast=0;collapsible=1;marginBottom=0;whiteSpace=wrap;html=1;fillColor=#fff2cc;strokeColor=#d6b656;fontFamily=Comic Sans MS;" parent="1" vertex="1">
          <mxGeometry x="680" y="-1140" width="310" height="1080" as="geometry">
            <mxRectangle x="70" y="50" width="60" height="30" as="alternateBounds" />
          </mxGeometry>
        </mxCell>
        <mxCell id="m__d6OJdyXCMt7KyZCjO-171" value="String id" style="text;strokeColor=none;fillColor=none;align=left;verticalAlign=middle;spacingLeft=4;spacingRight=4;overflow=hidden;points=[[0,0.5],[1,0.5]];portConstraint=eastwest;rotatable=0;whiteSpace=wrap;html=1;labelBackgroundColor=default;fontFamily=Comic Sans MS;" parent="m__d6OJdyXCMt7KyZCjO-170" vertex="1">
          <mxGeometry y="30" width="310" height="30" as="geometry" />
        </mxCell>
        <mxCell id="m__d6OJdyXCMt7KyZCjO-172" value="String packageId" style="text;strokeColor=none;fillColor=none;align=left;verticalAlign=middle;spacingLeft=4;spacingRight=4;overflow=hidden;points=[[0,0.5],[1,0.5]];portConstraint=eastwest;rotatable=0;whiteSpace=wrap;html=1;labelBackgroundColor=default;textShadow=0;fontFamily=Comic Sans MS;" parent="m__d6OJdyXCMt7KyZCjO-170" vertex="1">
          <mxGeometry y="60" width="310" height="30" as="geometry" />
        </mxCell>
        <mxCell id="m__d6OJdyXCMt7KyZCjO-173" value="String clauseId（）" style="text;strokeColor=none;fillColor=none;align=left;verticalAlign=middle;spacingLeft=4;spacingRight=4;overflow=hidden;points=[[0,0.5],[1,0.5]];portConstraint=eastwest;rotatable=0;whiteSpace=wrap;html=1;labelBackgroundColor=default;fontFamily=Comic Sans MS;" parent="m__d6OJdyXCMt7KyZCjO-170" vertex="1">
          <mxGeometry y="90" width="310" height="30" as="geometry" />
        </mxCell>
        <mxCell id="m__d6OJdyXCMt7KyZCjO-174" value="String clauseTypeId（）" style="text;strokeColor=none;fillColor=none;align=left;verticalAlign=middle;spacingLeft=4;spacingRight=4;overflow=hidden;points=[[0,0.5],[1,0.5]];portConstraint=eastwest;rotatable=0;whiteSpace=wrap;html=1;labelBackgroundColor=default;fontFamily=Comic Sans MS;" parent="m__d6OJdyXCMt7KyZCjO-170" vertex="1">
          <mxGeometry y="120" width="310" height="30" as="geometry" />
        </mxCell>
        <mxCell id="m__d6OJdyXCMt7KyZCjO-175" value="String catalogIdCode（）" style="text;strokeColor=none;fillColor=none;align=left;verticalAlign=middle;spacingLeft=4;spacingRight=4;overflow=hidden;points=[[0,0.5],[1,0.5]];portConstraint=eastwest;rotatable=0;whiteSpace=wrap;html=1;labelBackgroundColor=default;fontFamily=Comic Sans MS;" parent="m__d6OJdyXCMt7KyZCjO-170" vertex="1">
          <mxGeometry y="150" width="310" height="30" as="geometry" />
        </mxCell>
        <mxCell id="m__d6OJdyXCMt7KyZCjO-176" value="String clauseTypeCode（）" style="text;strokeColor=none;fillColor=none;align=left;verticalAlign=middle;spacingLeft=4;spacingRight=4;overflow=hidden;points=[[0,0.5],[1,0.5]];portConstraint=eastwest;rotatable=0;whiteSpace=wrap;html=1;labelBackgroundColor=default;fontFamily=Comic Sans MS;" parent="m__d6OJdyXCMt7KyZCjO-170" vertex="1">
          <mxGeometry y="180" width="310" height="30" as="geometry" />
        </mxCell>
        <mxCell id="m__d6OJdyXCMt7KyZCjO-177" value="String clauseTypeName（）" style="text;strokeColor=none;fillColor=none;align=left;verticalAlign=middle;spacingLeft=4;spacingRight=4;overflow=hidden;points=[[0,0.5],[1,0.5]];portConstraint=eastwest;rotatable=0;whiteSpace=wrap;html=1;labelBackgroundColor=default;fontFamily=Comic Sans MS;" parent="m__d6OJdyXCMt7KyZCjO-170" vertex="1">
          <mxGeometry y="210" width="310" height="30" as="geometry" />
        </mxCell>
        <mxCell id="m__d6OJdyXCMt7KyZCjO-178" value="String clauseName（）" style="text;strokeColor=none;fillColor=none;align=left;verticalAlign=middle;spacingLeft=4;spacingRight=4;overflow=hidden;points=[[0,0.5],[1,0.5]];portConstraint=eastwest;rotatable=0;whiteSpace=wrap;html=1;labelBackgroundColor=default;fontFamily=Comic Sans MS;" parent="m__d6OJdyXCMt7KyZCjO-170" vertex="1">
          <mxGeometry y="240" width="310" height="30" as="geometry" />
        </mxCell>
        <mxCell id="m__d6OJdyXCMt7KyZCjO-179" value="String clauseDesc（）" style="text;strokeColor=none;fillColor=none;align=left;verticalAlign=middle;spacingLeft=4;spacingRight=4;overflow=hidden;points=[[0,0.5],[1,0.5]];portConstraint=eastwest;rotatable=0;whiteSpace=wrap;html=1;labelBackgroundColor=default;fontFamily=Comic Sans MS;" parent="m__d6OJdyXCMt7KyZCjO-170" vertex="1">
          <mxGeometry y="270" width="310" height="30" as="geometry" />
        </mxCell>
        <mxCell id="m__d6OJdyXCMt7KyZCjO-180" value="BigDecimal score（）" style="text;strokeColor=none;fillColor=none;align=left;verticalAlign=middle;spacingLeft=4;spacingRight=4;overflow=hidden;points=[[0,0.5],[1,0.5]];portConstraint=eastwest;rotatable=0;whiteSpace=wrap;html=1;labelBackgroundColor=default;fontFamily=Comic Sans MS;" parent="m__d6OJdyXCMt7KyZCjO-170" vertex="1">
          <mxGeometry y="300" width="310" height="30" as="geometry" />
        </mxCell>
        <mxCell id="m__d6OJdyXCMt7KyZCjO-181" value="String scoreType（）" style="text;strokeColor=none;fillColor=none;align=left;verticalAlign=middle;spacingLeft=4;spacingRight=4;overflow=hidden;points=[[0,0.5],[1,0.5]];portConstraint=eastwest;rotatable=0;whiteSpace=wrap;html=1;labelBackgroundColor=default;fontFamily=Comic Sans MS;" parent="m__d6OJdyXCMt7KyZCjO-170" vertex="1">
          <mxGeometry y="330" width="310" height="30" as="geometry" />
        </mxCell>
        <mxCell id="m__d6OJdyXCMt7KyZCjO-182" value="Integer objectiveStatus（）" style="text;strokeColor=none;fillColor=none;align=left;verticalAlign=middle;spacingLeft=4;spacingRight=4;overflow=hidden;points=[[0,0.5],[1,0.5]];portConstraint=eastwest;rotatable=0;whiteSpace=wrap;html=1;labelBackgroundColor=default;fontFamily=Comic Sans MS;" parent="m__d6OJdyXCMt7KyZCjO-170" vertex="1">
          <mxGeometry y="360" width="310" height="30" as="geometry" />
        </mxCell>
        <mxCell id="m__d6OJdyXCMt7KyZCjO-183" value="Integer stepSizeStatus（）" style="text;strokeColor=none;fillColor=none;align=left;verticalAlign=middle;spacingLeft=4;spacingRight=4;overflow=hidden;points=[[0,0.5],[1,0.5]];portConstraint=eastwest;rotatable=0;whiteSpace=wrap;html=1;labelBackgroundColor=default;fontFamily=Comic Sans MS;" parent="m__d6OJdyXCMt7KyZCjO-170" vertex="1">
          <mxGeometry y="390" width="310" height="30" as="geometry" />
        </mxCell>
        <mxCell id="m__d6OJdyXCMt7KyZCjO-184" value="String deductionType（）" style="text;strokeColor=none;fillColor=none;align=left;verticalAlign=middle;spacingLeft=4;spacingRight=4;overflow=hidden;points=[[0,0.5],[1,0.5]];portConstraint=eastwest;rotatable=0;whiteSpace=wrap;html=1;labelBackgroundColor=default;fontFamily=Comic Sans MS;" parent="m__d6OJdyXCMt7KyZCjO-170" vertex="1">
          <mxGeometry y="420" width="310" height="30" as="geometry" />
        </mxCell>
        <mxCell id="m__d6OJdyXCMt7KyZCjO-185" value="BigDecimal minDeduction（）" style="text;strokeColor=none;fillColor=none;align=left;verticalAlign=middle;spacingLeft=4;spacingRight=4;overflow=hidden;points=[[0,0.5],[1,0.5]];portConstraint=eastwest;rotatable=0;whiteSpace=wrap;html=1;labelBackgroundColor=default;fontFamily=Comic Sans MS;" parent="m__d6OJdyXCMt7KyZCjO-170" vertex="1">
          <mxGeometry y="450" width="310" height="30" as="geometry" />
        </mxCell>
        <mxCell id="m__d6OJdyXCMt7KyZCjO-186" value="BigDecimal maxDeduction（）" style="text;strokeColor=none;fillColor=none;align=left;verticalAlign=middle;spacingLeft=4;spacingRight=4;overflow=hidden;points=[[0,0.5],[1,0.5]];portConstraint=eastwest;rotatable=0;whiteSpace=wrap;html=1;labelBackgroundColor=default;fontFamily=Comic Sans MS;" parent="m__d6OJdyXCMt7KyZCjO-170" vertex="1">
          <mxGeometry y="480" width="310" height="30" as="geometry" />
        </mxCell>
        <mxCell id="m__d6OJdyXCMt7KyZCjO-187" value="Integer clauseSupplierReplyStatus（）" style="text;strokeColor=none;fillColor=none;align=left;verticalAlign=middle;spacingLeft=4;spacingRight=4;overflow=hidden;points=[[0,0.5],[1,0.5]];portConstraint=eastwest;rotatable=0;whiteSpace=wrap;html=1;labelBackgroundColor=default;fontFamily=Comic Sans MS;" parent="m__d6OJdyXCMt7KyZCjO-170" vertex="1">
          <mxGeometry y="510" width="310" height="30" as="geometry" />
        </mxCell>
        <mxCell id="m__d6OJdyXCMt7KyZCjO-188" value="Integer clauseSequence（）" style="text;strokeColor=none;fillColor=none;align=left;verticalAlign=middle;spacingLeft=4;spacingRight=4;overflow=hidden;points=[[0,0.5],[1,0.5]];portConstraint=eastwest;rotatable=0;whiteSpace=wrap;html=1;labelBackgroundColor=default;fontFamily=Comic Sans MS;" parent="m__d6OJdyXCMt7KyZCjO-170" vertex="1">
          <mxGeometry y="540" width="310" height="30" as="geometry" />
        </mxCell>
        <mxCell id="m__d6OJdyXCMt7KyZCjO-189" value="Integer legalStatus（）" style="text;strokeColor=none;fillColor=none;align=left;verticalAlign=middle;spacingLeft=4;spacingRight=4;overflow=hidden;points=[[0,0.5],[1,0.5]];portConstraint=eastwest;rotatable=0;whiteSpace=wrap;html=1;labelBackgroundColor=default;fontFamily=Comic Sans MS;" parent="m__d6OJdyXCMt7KyZCjO-170" vertex="1">
          <mxGeometry y="570" width="310" height="30" as="geometry" />
        </mxCell>
        <mxCell id="m__d6OJdyXCMt7KyZCjO-190" value="&lt;span style=&quot;background-color: rgb(0, 255, 255);&quot;&gt;Integer priceEval&lt;/span&gt;（）" style="text;strokeColor=none;fillColor=none;align=left;verticalAlign=middle;spacingLeft=4;spacingRight=4;overflow=hidden;points=[[0,0.5],[1,0.5]];portConstraint=eastwest;rotatable=0;whiteSpace=wrap;html=1;labelBackgroundColor=default;fontFamily=Comic Sans MS;" parent="m__d6OJdyXCMt7KyZCjO-170" vertex="1">
          <mxGeometry y="600" width="310" height="30" as="geometry" />
        </mxCell>
        <mxCell id="m__d6OJdyXCMt7KyZCjO-191" value="BigDecimal weight（）" style="text;strokeColor=none;fillColor=none;align=left;verticalAlign=middle;spacingLeft=4;spacingRight=4;overflow=hidden;points=[[0,0.5],[1,0.5]];portConstraint=eastwest;rotatable=0;whiteSpace=wrap;html=1;labelBackgroundColor=default;fontFamily=Comic Sans MS;" parent="m__d6OJdyXCMt7KyZCjO-170" vertex="1">
          <mxGeometry y="630" width="310" height="30" as="geometry" />
        </mxCell>
        <mxCell id="m__d6OJdyXCMt7KyZCjO-192" value="Integer isPositive（）" style="text;strokeColor=none;fillColor=none;align=left;verticalAlign=middle;spacingLeft=4;spacingRight=4;overflow=hidden;points=[[0,0.5],[1,0.5]];portConstraint=eastwest;rotatable=0;whiteSpace=wrap;html=1;labelBackgroundColor=default;fontFamily=Comic Sans MS;" parent="m__d6OJdyXCMt7KyZCjO-170" vertex="1">
          <mxGeometry y="660" width="310" height="30" as="geometry" />
        </mxCell>
        <mxCell id="m__d6OJdyXCMt7KyZCjO-193" value="Integer isEdited（）" style="text;strokeColor=none;fillColor=none;align=left;verticalAlign=middle;spacingLeft=4;spacingRight=4;overflow=hidden;points=[[0,0.5],[1,0.5]];portConstraint=eastwest;rotatable=0;whiteSpace=wrap;html=1;labelBackgroundColor=default;fontFamily=Comic Sans MS;" parent="m__d6OJdyXCMt7KyZCjO-170" vertex="1">
          <mxGeometry y="690" width="310" height="30" as="geometry" />
        </mxCell>
        <mxCell id="m__d6OJdyXCMt7KyZCjO-194" value="String formulaValue（）" style="text;strokeColor=none;fillColor=none;align=left;verticalAlign=middle;spacingLeft=4;spacingRight=4;overflow=hidden;points=[[0,0.5],[1,0.5]];portConstraint=eastwest;rotatable=0;whiteSpace=wrap;html=1;fontFamily=Comic Sans MS;" parent="m__d6OJdyXCMt7KyZCjO-170" vertex="1">
          <mxGeometry y="720" width="310" height="30" as="geometry" />
        </mxCell>
        <mxCell id="m__d6OJdyXCMt7KyZCjO-195" value="String bascPriceValue（）" style="text;strokeColor=none;fillColor=none;align=left;verticalAlign=middle;spacingLeft=4;spacingRight=4;overflow=hidden;points=[[0,0.5],[1,0.5]];portConstraint=eastwest;rotatable=0;whiteSpace=wrap;html=1;fontFamily=Comic Sans MS;" parent="m__d6OJdyXCMt7KyZCjO-170" vertex="1">
          <mxGeometry y="750" width="310" height="30" as="geometry" />
        </mxCell>
        <mxCell id="m__d6OJdyXCMt7KyZCjO-196" value="Integer offerStatus（）" style="text;strokeColor=none;fillColor=none;align=left;verticalAlign=middle;spacingLeft=4;spacingRight=4;overflow=hidden;points=[[0,0.5],[1,0.5]];portConstraint=eastwest;rotatable=0;whiteSpace=wrap;html=1;labelBackgroundColor=default;fontFamily=Comic Sans MS;" parent="m__d6OJdyXCMt7KyZCjO-170" vertex="1">
          <mxGeometry y="780" width="310" height="30" as="geometry" />
        </mxCell>
        <mxCell id="m__d6OJdyXCMt7KyZCjO-197" value="String suitable（）" style="text;strokeColor=none;fillColor=none;align=left;verticalAlign=middle;spacingLeft=4;spacingRight=4;overflow=hidden;points=[[0,0.5],[1,0.5]];portConstraint=eastwest;rotatable=0;whiteSpace=wrap;html=1;labelBackgroundColor=default;fontFamily=Comic Sans MS;" parent="m__d6OJdyXCMt7KyZCjO-170" vertex="1">
          <mxGeometry y="810" width="310" height="30" as="geometry" />
        </mxCell>
        <mxCell id="m__d6OJdyXCMt7KyZCjO-198" value="String suitableName（）" style="text;strokeColor=none;fillColor=none;align=left;verticalAlign=middle;spacingLeft=4;spacingRight=4;overflow=hidden;points=[[0,0.5],[1,0.5]];portConstraint=eastwest;rotatable=0;whiteSpace=wrap;html=1;labelBackgroundColor=default;fontFamily=Comic Sans MS;" parent="m__d6OJdyXCMt7KyZCjO-170" vertex="1">
          <mxGeometry y="840" width="310" height="30" as="geometry" />
        </mxCell>
        <mxCell id="m__d6OJdyXCMt7KyZCjO-199" value="Integer deductionProportion（）" style="text;strokeColor=none;fillColor=none;align=left;verticalAlign=middle;spacingLeft=4;spacingRight=4;overflow=hidden;points=[[0,0.5],[1,0.5]];portConstraint=eastwest;rotatable=0;whiteSpace=wrap;html=1;fontFamily=Comic Sans MS;" parent="m__d6OJdyXCMt7KyZCjO-170" vertex="1">
          <mxGeometry y="870" width="310" height="30" as="geometry" />
        </mxCell>
        <mxCell id="m__d6OJdyXCMt7KyZCjO-200" value="String pointType（）" style="text;strokeColor=none;fillColor=none;align=left;verticalAlign=middle;spacingLeft=4;spacingRight=4;overflow=hidden;points=[[0,0.5],[1,0.5]];portConstraint=eastwest;rotatable=0;whiteSpace=wrap;html=1;fontFamily=Comic Sans MS;" parent="m__d6OJdyXCMt7KyZCjO-170" vertex="1">
          <mxGeometry y="900" width="310" height="30" as="geometry" />
        </mxCell>
        <mxCell id="m__d6OJdyXCMt7KyZCjO-201" value="String formatFileMustResponse（）" style="text;strokeColor=none;fillColor=none;align=left;verticalAlign=middle;spacingLeft=4;spacingRight=4;overflow=hidden;points=[[0,0.5],[1,0.5]];portConstraint=eastwest;rotatable=0;whiteSpace=wrap;html=1;fontFamily=Comic Sans MS;" parent="m__d6OJdyXCMt7KyZCjO-170" vertex="1">
          <mxGeometry y="930" width="310" height="30" as="geometry" />
        </mxCell>
        <mxCell id="m__d6OJdyXCMt7KyZCjO-202" value="String clauseClassificationCode（）" style="text;strokeColor=none;fillColor=none;align=left;verticalAlign=middle;spacingLeft=4;spacingRight=4;overflow=hidden;points=[[0,0.5],[1,0.5]];portConstraint=eastwest;rotatable=0;whiteSpace=wrap;html=1;fontFamily=Comic Sans MS;" parent="m__d6OJdyXCMt7KyZCjO-170" vertex="1">
          <mxGeometry y="960" width="310" height="30" as="geometry" />
        </mxCell>
        <mxCell id="m__d6OJdyXCMt7KyZCjO-203" value="String clauseClassificationName（）" style="text;strokeColor=none;fillColor=none;align=left;verticalAlign=middle;spacingLeft=4;spacingRight=4;overflow=hidden;points=[[0,0.5],[1,0.5]];portConstraint=eastwest;rotatable=0;whiteSpace=wrap;html=1;fontFamily=Comic Sans MS;" parent="m__d6OJdyXCMt7KyZCjO-170" vertex="1">
          <mxGeometry y="990" width="310" height="30" as="geometry" />
        </mxCell>
        <mxCell id="m__d6OJdyXCMt7KyZCjO-204" value="String clauseQualificationType（）" style="text;strokeColor=none;fillColor=none;align=left;verticalAlign=middle;spacingLeft=4;spacingRight=4;overflow=hidden;points=[[0,0.5],[1,0.5]];portConstraint=eastwest;rotatable=0;whiteSpace=wrap;html=1;fontFamily=Comic Sans MS;" parent="m__d6OJdyXCMt7KyZCjO-170" vertex="1">
          <mxGeometry y="1020" width="310" height="30" as="geometry" />
        </mxCell>
        <mxCell id="m__d6OJdyXCMt7KyZCjO-208" value="String clauseQualificationName（）" style="text;strokeColor=none;fillColor=none;align=left;verticalAlign=middle;spacingLeft=4;spacingRight=4;overflow=hidden;points=[[0,0.5],[1,0.5]];portConstraint=eastwest;rotatable=0;whiteSpace=wrap;html=1;fontFamily=Comic Sans MS;" parent="m__d6OJdyXCMt7KyZCjO-170" vertex="1">
          <mxGeometry y="1050" width="310" height="30" as="geometry" />
        </mxCell>
        <mxCell id="m__d6OJdyXCMt7KyZCjO-209" value="KcAgreementClauseTypeDTO" style="swimlane;fontStyle=0;childLayout=stackLayout;horizontal=1;startSize=30;horizontalStack=0;resizeParent=1;resizeParentMax=0;resizeLast=0;collapsible=1;marginBottom=0;whiteSpace=wrap;html=1;fillColor=#fff2cc;strokeColor=#d6b656;fontFamily=Comic Sans MS;" parent="1" vertex="1">
          <mxGeometry x="660" y="20" width="310" height="360" as="geometry">
            <mxRectangle x="70" y="50" width="60" height="30" as="alternateBounds" />
          </mxGeometry>
        </mxCell>
        <mxCell id="m__d6OJdyXCMt7KyZCjO-210" value="String id" style="text;strokeColor=none;fillColor=none;align=left;verticalAlign=middle;spacingLeft=4;spacingRight=4;overflow=hidden;points=[[0,0.5],[1,0.5]];portConstraint=eastwest;rotatable=0;whiteSpace=wrap;html=1;labelBackgroundColor=default;fontFamily=Comic Sans MS;" parent="m__d6OJdyXCMt7KyZCjO-209" vertex="1">
          <mxGeometry y="30" width="310" height="30" as="geometry" />
        </mxCell>
        <mxCell id="m__d6OJdyXCMt7KyZCjO-211" value="String packageId" style="text;strokeColor=none;fillColor=none;align=left;verticalAlign=middle;spacingLeft=4;spacingRight=4;overflow=hidden;points=[[0,0.5],[1,0.5]];portConstraint=eastwest;rotatable=0;whiteSpace=wrap;html=1;labelBackgroundColor=default;textShadow=0;fontFamily=Comic Sans MS;" parent="m__d6OJdyXCMt7KyZCjO-209" vertex="1">
          <mxGeometry y="60" width="310" height="30" as="geometry" />
        </mxCell>
        <mxCell id="m__d6OJdyXCMt7KyZCjO-213" value="String clauseTypeId（）" style="text;strokeColor=none;fillColor=none;align=left;verticalAlign=middle;spacingLeft=4;spacingRight=4;overflow=hidden;points=[[0,0.5],[1,0.5]];portConstraint=eastwest;rotatable=0;whiteSpace=wrap;html=1;labelBackgroundColor=default;fontFamily=Comic Sans MS;" parent="m__d6OJdyXCMt7KyZCjO-209" vertex="1">
          <mxGeometry y="90" width="310" height="30" as="geometry" />
        </mxCell>
        <mxCell id="m__d6OJdyXCMt7KyZCjO-215" value="String clauseTypeCode（）" style="text;strokeColor=none;fillColor=none;align=left;verticalAlign=middle;spacingLeft=4;spacingRight=4;overflow=hidden;points=[[0,0.5],[1,0.5]];portConstraint=eastwest;rotatable=0;whiteSpace=wrap;html=1;labelBackgroundColor=default;fontFamily=Comic Sans MS;" parent="m__d6OJdyXCMt7KyZCjO-209" vertex="1">
          <mxGeometry y="120" width="310" height="30" as="geometry" />
        </mxCell>
        <mxCell id="m__d6OJdyXCMt7KyZCjO-216" value="String clauseTypeName（）" style="text;strokeColor=none;fillColor=none;align=left;verticalAlign=middle;spacingLeft=4;spacingRight=4;overflow=hidden;points=[[0,0.5],[1,0.5]];portConstraint=eastwest;rotatable=0;whiteSpace=wrap;html=1;labelBackgroundColor=default;fontFamily=Comic Sans MS;" parent="m__d6OJdyXCMt7KyZCjO-209" vertex="1">
          <mxGeometry y="150" width="310" height="30" as="geometry" />
        </mxCell>
        <mxCell id="m__d6OJdyXCMt7KyZCjO-217" value="BigDecimal totalScore（）" style="text;strokeColor=none;fillColor=none;align=left;verticalAlign=middle;spacingLeft=4;spacingRight=4;overflow=hidden;points=[[0,0.5],[1,0.5]];portConstraint=eastwest;rotatable=0;whiteSpace=wrap;html=1;labelBackgroundColor=default;fontFamily=Comic Sans MS;" parent="m__d6OJdyXCMt7KyZCjO-209" vertex="1">
          <mxGeometry y="180" width="310" height="30" as="geometry" />
        </mxCell>
        <mxCell id="m__d6OJdyXCMt7KyZCjO-218" value="String scoreType（）" style="text;strokeColor=none;fillColor=none;align=left;verticalAlign=middle;spacingLeft=4;spacingRight=4;overflow=hidden;points=[[0,0.5],[1,0.5]];portConstraint=eastwest;rotatable=0;whiteSpace=wrap;html=1;labelBackgroundColor=default;fontFamily=Comic Sans MS;" parent="m__d6OJdyXCMt7KyZCjO-209" vertex="1">
          <mxGeometry y="210" width="310" height="30" as="geometry" />
        </mxCell>
        <mxCell id="m__d6OJdyXCMt7KyZCjO-221" value="String sourceClauseTypeId（）" style="text;strokeColor=none;fillColor=none;align=left;verticalAlign=middle;spacingLeft=4;spacingRight=4;overflow=hidden;points=[[0,0.5],[1,0.5]];portConstraint=eastwest;rotatable=0;whiteSpace=wrap;html=1;labelBackgroundColor=default;fontFamily=Comic Sans MS;" parent="m__d6OJdyXCMt7KyZCjO-209" vertex="1">
          <mxGeometry y="240" width="310" height="30" as="geometry" />
        </mxCell>
        <mxCell id="m__d6OJdyXCMt7KyZCjO-222" value="Integer clauseSequence（）" style="text;strokeColor=none;fillColor=none;align=left;verticalAlign=middle;spacingLeft=4;spacingRight=4;overflow=hidden;points=[[0,0.5],[1,0.5]];portConstraint=eastwest;rotatable=0;whiteSpace=wrap;html=1;labelBackgroundColor=default;fontFamily=Comic Sans MS;" parent="m__d6OJdyXCMt7KyZCjO-209" vertex="1">
          <mxGeometry y="270" width="310" height="30" as="geometry" />
        </mxCell>
        <mxCell id="m__d6OJdyXCMt7KyZCjO-223" value="String expertReviewMode（）" style="text;strokeColor=none;fillColor=none;align=left;verticalAlign=middle;spacingLeft=4;spacingRight=4;overflow=hidden;points=[[0,0.5],[1,0.5]];portConstraint=eastwest;rotatable=0;whiteSpace=wrap;html=1;labelBackgroundColor=default;fontFamily=Comic Sans MS;" parent="m__d6OJdyXCMt7KyZCjO-209" vertex="1">
          <mxGeometry y="300" width="310" height="30" as="geometry" />
        </mxCell>
        <mxCell id="m__d6OJdyXCMt7KyZCjO-224" value="String clauseMarkerType（）" style="text;strokeColor=none;fillColor=none;align=left;verticalAlign=middle;spacingLeft=4;spacingRight=4;overflow=hidden;points=[[0,0.5],[1,0.5]];portConstraint=eastwest;rotatable=0;whiteSpace=wrap;html=1;labelBackgroundColor=default;fontFamily=Comic Sans MS;" parent="m__d6OJdyXCMt7KyZCjO-209" vertex="1">
          <mxGeometry y="330" width="310" height="30" as="geometry" />
        </mxCell>
        <mxCell id="JMdAkeIzqonVhZbLqowp-50" value="KcAgreementSupplierProjectCandidateDTO" style="swimlane;fontStyle=0;childLayout=stackLayout;horizontal=1;startSize=30;horizontalStack=0;resizeParent=1;resizeParentMax=0;resizeLast=0;collapsible=1;marginBottom=0;whiteSpace=wrap;html=1;fillColor=#fff2cc;strokeColor=#d6b656;fontFamily=Comic Sans MS;" parent="1" vertex="1">
          <mxGeometry x="-1170" y="30" width="490" height="660" as="geometry">
            <mxRectangle x="70" y="50" width="60" height="30" as="alternateBounds" />
          </mxGeometry>
        </mxCell>
        <mxCell id="JMdAkeIzqonVhZbLqowp-51" value="String id" style="text;strokeColor=none;fillColor=none;align=left;verticalAlign=middle;spacingLeft=4;spacingRight=4;overflow=hidden;points=[[0,0.5],[1,0.5]];portConstraint=eastwest;rotatable=0;whiteSpace=wrap;html=1;labelBackgroundColor=default;fontFamily=Comic Sans MS;" parent="JMdAkeIzqonVhZbLqowp-50" vertex="1">
          <mxGeometry y="30" width="490" height="30" as="geometry" />
        </mxCell>
        <mxCell id="JMdAkeIzqonVhZbLqowp-52" value="String packageId" style="text;strokeColor=none;fillColor=none;align=left;verticalAlign=middle;spacingLeft=4;spacingRight=4;overflow=hidden;points=[[0,0.5],[1,0.5]];portConstraint=eastwest;rotatable=0;whiteSpace=wrap;html=1;labelBackgroundColor=default;textShadow=0;fontFamily=Comic Sans MS;" parent="JMdAkeIzqonVhZbLqowp-50" vertex="1">
          <mxGeometry y="60" width="490" height="30" as="geometry" />
        </mxCell>
        <mxCell id="JMdAkeIzqonVhZbLqowp-53" value="Integer packageNumber（）" style="text;strokeColor=none;fillColor=none;align=left;verticalAlign=middle;spacingLeft=4;spacingRight=4;overflow=hidden;points=[[0,0.5],[1,0.5]];portConstraint=eastwest;rotatable=0;whiteSpace=wrap;html=1;labelBackgroundColor=default;fontFamily=Comic Sans MS;" parent="JMdAkeIzqonVhZbLqowp-50" vertex="1">
          <mxGeometry y="90" width="490" height="30" as="geometry" />
        </mxCell>
        <mxCell id="JMdAkeIzqonVhZbLqowp-54" value="String packageName（）" style="text;strokeColor=none;fillColor=none;align=left;verticalAlign=middle;spacingLeft=4;spacingRight=4;overflow=hidden;points=[[0,0.5],[1,0.5]];portConstraint=eastwest;rotatable=0;whiteSpace=wrap;html=1;labelBackgroundColor=default;fontFamily=Comic Sans MS;" parent="JMdAkeIzqonVhZbLqowp-50" vertex="1">
          <mxGeometry y="120" width="490" height="30" as="geometry" />
        </mxCell>
        <mxCell id="JMdAkeIzqonVhZbLqowp-55" value="String supplierName（）" style="text;strokeColor=none;fillColor=none;align=left;verticalAlign=middle;spacingLeft=4;spacingRight=4;overflow=hidden;points=[[0,0.5],[1,0.5]];portConstraint=eastwest;rotatable=0;whiteSpace=wrap;html=1;labelBackgroundColor=default;fontFamily=Comic Sans MS;" parent="JMdAkeIzqonVhZbLqowp-50" vertex="1">
          <mxGeometry y="150" width="490" height="30" as="geometry" />
        </mxCell>
        <mxCell id="JMdAkeIzqonVhZbLqowp-56" value="String supplierCode（）" style="text;strokeColor=none;fillColor=none;align=left;verticalAlign=middle;spacingLeft=4;spacingRight=4;overflow=hidden;points=[[0,0.5],[1,0.5]];portConstraint=eastwest;rotatable=0;whiteSpace=wrap;html=1;labelBackgroundColor=default;fontFamily=Comic Sans MS;" parent="JMdAkeIzqonVhZbLqowp-50" vertex="1">
          <mxGeometry y="180" width="490" height="30" as="geometry" />
        </mxCell>
        <mxCell id="JMdAkeIzqonVhZbLqowp-57" value="String supplierId（）" style="text;strokeColor=none;fillColor=none;align=left;verticalAlign=middle;spacingLeft=4;spacingRight=4;overflow=hidden;points=[[0,0.5],[1,0.5]];portConstraint=eastwest;rotatable=0;whiteSpace=wrap;html=1;labelBackgroundColor=default;fontFamily=Comic Sans MS;" parent="JMdAkeIzqonVhZbLqowp-50" vertex="1">
          <mxGeometry y="210" width="490" height="30" as="geometry" />
        </mxCell>
        <mxCell id="JMdAkeIzqonVhZbLqowp-58" value="Integer bidderCodeType（）" style="text;strokeColor=none;fillColor=none;align=left;verticalAlign=middle;spacingLeft=4;spacingRight=4;overflow=hidden;points=[[0,0.5],[1,0.5]];portConstraint=eastwest;rotatable=0;whiteSpace=wrap;html=1;labelBackgroundColor=default;fontFamily=Comic Sans MS;" parent="JMdAkeIzqonVhZbLqowp-50" vertex="1">
          <mxGeometry y="240" width="490" height="30" as="geometry" />
        </mxCell>
        <mxCell id="JMdAkeIzqonVhZbLqowp-59" value="Integer ranking（）" style="text;strokeColor=none;fillColor=none;align=left;verticalAlign=middle;spacingLeft=4;spacingRight=4;overflow=hidden;points=[[0,0.5],[1,0.5]];portConstraint=eastwest;rotatable=0;whiteSpace=wrap;html=1;labelBackgroundColor=default;fontFamily=Comic Sans MS;" parent="JMdAkeIzqonVhZbLqowp-50" vertex="1">
          <mxGeometry y="270" width="490" height="30" as="geometry" />
        </mxCell>
        <mxCell id="JMdAkeIzqonVhZbLqowp-60" value="Integer isBid（）" style="text;strokeColor=none;fillColor=none;align=left;verticalAlign=middle;spacingLeft=4;spacingRight=4;overflow=hidden;points=[[0,0.5],[1,0.5]];portConstraint=eastwest;rotatable=0;whiteSpace=wrap;html=1;labelBackgroundColor=default;fontFamily=Comic Sans MS;" parent="JMdAkeIzqonVhZbLqowp-50" vertex="1">
          <mxGeometry y="300" width="490" height="30" as="geometry" />
        </mxCell>
        <mxCell id="JMdAkeIzqonVhZbLqowp-61" value="LocalDateTime shortlistedTime（）" style="text;strokeColor=none;fillColor=none;align=left;verticalAlign=middle;spacingLeft=4;spacingRight=4;overflow=hidden;points=[[0,0.5],[1,0.5]];portConstraint=eastwest;rotatable=0;whiteSpace=wrap;html=1;labelBackgroundColor=default;fontFamily=Comic Sans MS;" parent="JMdAkeIzqonVhZbLqowp-50" vertex="1">
          <mxGeometry y="330" width="490" height="30" as="geometry" />
        </mxCell>
        <mxCell id="JMdAkeIzqonVhZbLqowp-62" value="BigDecimal bidPrice（）" style="text;strokeColor=none;fillColor=none;align=left;verticalAlign=middle;spacingLeft=4;spacingRight=4;overflow=hidden;points=[[0,0.5],[1,0.5]];portConstraint=eastwest;rotatable=0;whiteSpace=wrap;html=1;labelBackgroundColor=default;fontFamily=Comic Sans MS;" parent="JMdAkeIzqonVhZbLqowp-50" vertex="1">
          <mxGeometry y="360" width="490" height="30" as="geometry" />
        </mxCell>
        <mxCell id="JMdAkeIzqonVhZbLqowp-63" value="BigDecimal evaluationResult（）" style="text;strokeColor=none;fillColor=none;align=left;verticalAlign=middle;spacingLeft=4;spacingRight=4;overflow=hidden;points=[[0,0.5],[1,0.5]];portConstraint=eastwest;rotatable=0;whiteSpace=wrap;html=1;labelBackgroundColor=default;fontFamily=Comic Sans MS;" parent="JMdAkeIzqonVhZbLqowp-50" vertex="1">
          <mxGeometry y="390" width="490" height="30" as="geometry" />
        </mxCell>
        <mxCell id="JMdAkeIzqonVhZbLqowp-64" value="BigDecimal bidAmount（）" style="text;strokeColor=none;fillColor=none;align=left;verticalAlign=middle;spacingLeft=4;spacingRight=4;overflow=hidden;points=[[0,0.5],[1,0.5]];portConstraint=eastwest;rotatable=0;whiteSpace=wrap;html=1;labelBackgroundColor=default;fontFamily=Comic Sans MS;" parent="JMdAkeIzqonVhZbLqowp-50" vertex="1">
          <mxGeometry y="420" width="490" height="30" as="geometry" />
        </mxCell>
        <mxCell id="JMdAkeIzqonVhZbLqowp-65" value="BigDecimal winbidAmount（）" style="text;strokeColor=none;fillColor=none;align=left;verticalAlign=middle;spacingLeft=4;spacingRight=4;overflow=hidden;points=[[0,0.5],[1,0.5]];portConstraint=eastwest;rotatable=0;whiteSpace=wrap;html=1;labelBackgroundColor=default;fontFamily=Comic Sans MS;" parent="JMdAkeIzqonVhZbLqowp-50" vertex="1">
          <mxGeometry y="450" width="490" height="30" as="geometry" />
        </mxCell>
        <mxCell id="JMdAkeIzqonVhZbLqowp-66" value="BigDecimal priceMultipleVal（）" style="text;strokeColor=none;fillColor=none;align=left;verticalAlign=middle;spacingLeft=4;spacingRight=4;overflow=hidden;points=[[0,0.5],[1,0.5]];portConstraint=eastwest;rotatable=0;whiteSpace=wrap;html=1;labelBackgroundColor=default;fontFamily=Comic Sans MS;" parent="JMdAkeIzqonVhZbLqowp-50" vertex="1">
          <mxGeometry y="480" width="490" height="30" as="geometry" />
        </mxCell>
        <mxCell id="JMdAkeIzqonVhZbLqowp-67" value="String priceMultipleName（）" style="text;strokeColor=none;fillColor=none;align=left;verticalAlign=middle;spacingLeft=4;spacingRight=4;overflow=hidden;points=[[0,0.5],[1,0.5]];portConstraint=eastwest;rotatable=0;whiteSpace=wrap;html=1;labelBackgroundColor=default;fontFamily=Comic Sans MS;" parent="JMdAkeIzqonVhZbLqowp-50" vertex="1">
          <mxGeometry y="510" width="490" height="30" as="geometry" />
        </mxCell>
        <mxCell id="JMdAkeIzqonVhZbLqowp-73" value="String confirmation（）" style="text;strokeColor=none;fillColor=none;align=left;verticalAlign=middle;spacingLeft=4;spacingRight=4;overflow=hidden;points=[[0,0.5],[1,0.5]];portConstraint=eastwest;rotatable=0;whiteSpace=wrap;html=1;labelBackgroundColor=default;fontFamily=Comic Sans MS;" parent="JMdAkeIzqonVhZbLqowp-50" vertex="1">
          <mxGeometry y="540" width="490" height="30" as="geometry" />
        </mxCell>
        <mxCell id="JMdAkeIzqonVhZbLqowp-72" value="Integer ownRanking（）" style="text;strokeColor=none;fillColor=none;align=left;verticalAlign=middle;spacingLeft=4;spacingRight=4;overflow=hidden;points=[[0,0.5],[1,0.5]];portConstraint=eastwest;rotatable=0;whiteSpace=wrap;html=1;labelBackgroundColor=default;fontFamily=Comic Sans MS;" parent="JMdAkeIzqonVhZbLqowp-50" vertex="1">
          <mxGeometry y="570" width="490" height="30" as="geometry" />
        </mxCell>
        <mxCell id="JMdAkeIzqonVhZbLqowp-97" value="List&amp;lt;KcAgreementSupplierPriceItemDTO&amp;gt; priceItemList（）" style="text;strokeColor=none;fillColor=none;align=left;verticalAlign=middle;spacingLeft=4;spacingRight=4;overflow=hidden;points=[[0,0.5],[1,0.5]];portConstraint=eastwest;rotatable=0;whiteSpace=wrap;html=1;labelBackgroundColor=default;fontStyle=1;fontFamily=Comic Sans MS;" parent="JMdAkeIzqonVhZbLqowp-50" vertex="1">
          <mxGeometry y="600" width="490" height="30" as="geometry" />
        </mxCell>
        <mxCell id="JMdAkeIzqonVhZbLqowp-95" value="List&amp;lt;KcAgreementSupplierResponseDTO&amp;gt;&amp;nbsp; supplierBusinessClauseResponseList" style="text;align=left;verticalAlign=middle;spacingLeft=4;spacingRight=4;overflow=hidden;points=[[0,0.5],[1,0.5]];portConstraint=eastwest;rotatable=0;whiteSpace=wrap;html=1;labelBackgroundColor=none;fontStyle=1;fillColor=#FF0000;strokeColor=none;fillStyle=auto;fontFamily=Comic Sans MS;" parent="JMdAkeIzqonVhZbLqowp-50" vertex="1">
          <mxGeometry y="630" width="490" height="30" as="geometry" />
        </mxCell>
        <mxCell id="JMdAkeIzqonVhZbLqowp-98" value="KcAgreementSupplierPriceItemDTO" style="swimlane;fontStyle=0;childLayout=stackLayout;horizontal=1;startSize=30;horizontalStack=0;resizeParent=1;resizeParentMax=0;resizeLast=0;collapsible=1;marginBottom=0;whiteSpace=wrap;html=1;fillColor=#fff2cc;strokeColor=#d6b656;fontFamily=Comic Sans MS;" parent="1" vertex="1">
          <mxGeometry x="-910" y="900" width="260" height="1170" as="geometry">
            <mxRectangle x="70" y="50" width="60" height="30" as="alternateBounds" />
          </mxGeometry>
        </mxCell>
        <mxCell id="JMdAkeIzqonVhZbLqowp-99" value="String id" style="text;strokeColor=none;fillColor=none;align=left;verticalAlign=middle;spacingLeft=4;spacingRight=4;overflow=hidden;points=[[0,0.5],[1,0.5]];portConstraint=eastwest;rotatable=0;whiteSpace=wrap;html=1;labelBackgroundColor=default;fontFamily=Comic Sans MS;" parent="JMdAkeIzqonVhZbLqowp-98" vertex="1">
          <mxGeometry y="30" width="260" height="30" as="geometry" />
        </mxCell>
        <mxCell id="JMdAkeIzqonVhZbLqowp-100" value="String packageId" style="text;strokeColor=none;fillColor=none;align=left;verticalAlign=middle;spacingLeft=4;spacingRight=4;overflow=hidden;points=[[0,0.5],[1,0.5]];portConstraint=eastwest;rotatable=0;whiteSpace=wrap;html=1;labelBackgroundColor=default;textShadow=0;fontFamily=Comic Sans MS;" parent="JMdAkeIzqonVhZbLqowp-98" vertex="1">
          <mxGeometry y="60" width="260" height="30" as="geometry" />
        </mxCell>
        <mxCell id="JMdAkeIzqonVhZbLqowp-101" value="String tableId（）" style="text;strokeColor=none;fillColor=none;align=left;verticalAlign=middle;spacingLeft=4;spacingRight=4;overflow=hidden;points=[[0,0.5],[1,0.5]];portConstraint=eastwest;rotatable=0;whiteSpace=wrap;html=1;labelBackgroundColor=default;fontFamily=Comic Sans MS;" parent="JMdAkeIzqonVhZbLqowp-98" vertex="1">
          <mxGeometry y="90" width="260" height="30" as="geometry" />
        </mxCell>
        <mxCell id="JMdAkeIzqonVhZbLqowp-102" value="String supplierId（）" style="text;strokeColor=none;fillColor=none;align=left;verticalAlign=middle;spacingLeft=4;spacingRight=4;overflow=hidden;points=[[0,0.5],[1,0.5]];portConstraint=eastwest;rotatable=0;whiteSpace=wrap;html=1;labelBackgroundColor=default;fontFamily=Comic Sans MS;" parent="JMdAkeIzqonVhZbLqowp-98" vertex="1">
          <mxGeometry y="120" width="260" height="30" as="geometry" />
        </mxCell>
        <mxCell id="JMdAkeIzqonVhZbLqowp-103" value="String supplierName（）" style="text;strokeColor=none;fillColor=none;align=left;verticalAlign=middle;spacingLeft=4;spacingRight=4;overflow=hidden;points=[[0,0.5],[1,0.5]];portConstraint=eastwest;rotatable=0;whiteSpace=wrap;html=1;labelBackgroundColor=default;fontFamily=Comic Sans MS;" parent="JMdAkeIzqonVhZbLqowp-98" vertex="1">
          <mxGeometry y="150" width="260" height="30" as="geometry" />
        </mxCell>
        <mxCell id="JMdAkeIzqonVhZbLqowp-104" value="String priceTableType（）" style="text;strokeColor=none;fillColor=none;align=left;verticalAlign=middle;spacingLeft=4;spacingRight=4;overflow=hidden;points=[[0,0.5],[1,0.5]];portConstraint=eastwest;rotatable=0;whiteSpace=wrap;html=1;labelBackgroundColor=default;fontFamily=Comic Sans MS;" parent="JMdAkeIzqonVhZbLqowp-98" vertex="1">
          <mxGeometry y="180" width="260" height="30" as="geometry" />
        </mxCell>
        <mxCell id="JMdAkeIzqonVhZbLqowp-105" value="String priceTableTypeName（）" style="text;strokeColor=none;fillColor=none;align=left;verticalAlign=middle;spacingLeft=4;spacingRight=4;overflow=hidden;points=[[0,0.5],[1,0.5]];portConstraint=eastwest;rotatable=0;whiteSpace=wrap;html=1;labelBackgroundColor=default;fontFamily=Comic Sans MS;" parent="JMdAkeIzqonVhZbLqowp-98" vertex="1">
          <mxGeometry y="210" width="260" height="30" as="geometry" />
        </mxCell>
        <mxCell id="JMdAkeIzqonVhZbLqowp-106" value="String dataFieldType（）" style="text;strokeColor=none;fillColor=none;align=left;verticalAlign=middle;spacingLeft=4;spacingRight=4;overflow=hidden;points=[[0,0.5],[1,0.5]];portConstraint=eastwest;rotatable=0;whiteSpace=wrap;html=1;labelBackgroundColor=default;fontFamily=Comic Sans MS;" parent="JMdAkeIzqonVhZbLqowp-98" vertex="1">
          <mxGeometry y="240" width="260" height="30" as="geometry" />
        </mxCell>
        <mxCell id="JMdAkeIzqonVhZbLqowp-107" value="String dataFieldTypeName（）" style="text;strokeColor=none;fillColor=none;align=left;verticalAlign=middle;spacingLeft=4;spacingRight=4;overflow=hidden;points=[[0,0.5],[1,0.5]];portConstraint=eastwest;rotatable=0;whiteSpace=wrap;html=1;labelBackgroundColor=default;fontFamily=Comic Sans MS;" parent="JMdAkeIzqonVhZbLqowp-98" vertex="1">
          <mxGeometry y="270" width="260" height="30" as="geometry" />
        </mxCell>
        <mxCell id="JMdAkeIzqonVhZbLqowp-108" value="String priceItemStatus（）" style="text;strokeColor=none;fillColor=none;align=left;verticalAlign=middle;spacingLeft=4;spacingRight=4;overflow=hidden;points=[[0,0.5],[1,0.5]];portConstraint=eastwest;rotatable=0;whiteSpace=wrap;html=1;labelBackgroundColor=default;fontFamily=Comic Sans MS;" parent="JMdAkeIzqonVhZbLqowp-98" vertex="1">
          <mxGeometry y="300" width="260" height="30" as="geometry" />
        </mxCell>
        <mxCell id="JMdAkeIzqonVhZbLqowp-109" value="String mainTableId（）" style="text;strokeColor=none;fillColor=none;align=left;verticalAlign=middle;spacingLeft=4;spacingRight=4;overflow=hidden;points=[[0,0.5],[1,0.5]];portConstraint=eastwest;rotatable=0;whiteSpace=wrap;html=1;labelBackgroundColor=default;fontFamily=Comic Sans MS;" parent="JMdAkeIzqonVhZbLqowp-98" vertex="1">
          <mxGeometry y="330" width="260" height="30" as="geometry" />
        </mxCell>
        <mxCell id="JMdAkeIzqonVhZbLqowp-110" value="String mainTableName（）" style="text;strokeColor=none;fillColor=none;align=left;verticalAlign=middle;spacingLeft=4;spacingRight=4;overflow=hidden;points=[[0,0.5],[1,0.5]];portConstraint=eastwest;rotatable=0;whiteSpace=wrap;html=1;labelBackgroundColor=default;fontFamily=Comic Sans MS;" parent="JMdAkeIzqonVhZbLqowp-98" vertex="1">
          <mxGeometry y="360" width="260" height="30" as="geometry" />
        </mxCell>
        <mxCell id="JMdAkeIzqonVhZbLqowp-111" value="String tableSubName（）" style="text;strokeColor=none;fillColor=none;align=left;verticalAlign=middle;spacingLeft=4;spacingRight=4;overflow=hidden;points=[[0,0.5],[1,0.5]];portConstraint=eastwest;rotatable=0;whiteSpace=wrap;html=1;labelBackgroundColor=default;fontFamily=Comic Sans MS;" parent="JMdAkeIzqonVhZbLqowp-98" vertex="1">
          <mxGeometry y="390" width="260" height="30" as="geometry" />
        </mxCell>
        <mxCell id="JMdAkeIzqonVhZbLqowp-112" value="String detailColumnId（）" style="text;strokeColor=none;fillColor=none;align=left;verticalAlign=middle;spacingLeft=4;spacingRight=4;overflow=hidden;points=[[0,0.5],[1,0.5]];portConstraint=eastwest;rotatable=0;whiteSpace=wrap;html=1;labelBackgroundColor=default;fontFamily=Comic Sans MS;" parent="JMdAkeIzqonVhZbLqowp-98" vertex="1">
          <mxGeometry y="420" width="260" height="30" as="geometry" />
        </mxCell>
        <mxCell id="JMdAkeIzqonVhZbLqowp-113" value="String detailRowId（）" style="text;strokeColor=none;fillColor=none;align=left;verticalAlign=middle;spacingLeft=4;spacingRight=4;overflow=hidden;points=[[0,0.5],[1,0.5]];portConstraint=eastwest;rotatable=0;whiteSpace=wrap;html=1;labelBackgroundColor=default;fontFamily=Comic Sans MS;" parent="JMdAkeIzqonVhZbLqowp-98" vertex="1">
          <mxGeometry y="450" width="260" height="30" as="geometry" />
        </mxCell>
        <mxCell id="JMdAkeIzqonVhZbLqowp-114" value="String detailSummaryId（）" style="text;strokeColor=none;fillColor=none;align=left;verticalAlign=middle;spacingLeft=4;spacingRight=4;overflow=hidden;points=[[0,0.5],[1,0.5]];portConstraint=eastwest;rotatable=0;whiteSpace=wrap;html=1;labelBackgroundColor=default;fontFamily=Comic Sans MS;" parent="JMdAkeIzqonVhZbLqowp-98" vertex="1">
          <mxGeometry y="480" width="260" height="30" as="geometry" />
        </mxCell>
        <mxCell id="JMdAkeIzqonVhZbLqowp-115" value="String itemType（）" style="text;strokeColor=none;fillColor=none;align=left;verticalAlign=middle;spacingLeft=4;spacingRight=4;overflow=hidden;points=[[0,0.5],[1,0.5]];portConstraint=eastwest;rotatable=0;whiteSpace=wrap;html=1;labelBackgroundColor=default;fontFamily=Comic Sans MS;" parent="JMdAkeIzqonVhZbLqowp-98" vertex="1">
          <mxGeometry y="510" width="260" height="30" as="geometry" />
        </mxCell>
        <mxCell id="JMdAkeIzqonVhZbLqowp-116" value="String itemName（）" style="text;strokeColor=none;fillColor=none;align=left;verticalAlign=middle;spacingLeft=4;spacingRight=4;overflow=hidden;points=[[0,0.5],[1,0.5]];portConstraint=eastwest;rotatable=0;whiteSpace=wrap;html=1;labelBackgroundColor=default;fontFamily=Comic Sans MS;" parent="JMdAkeIzqonVhZbLqowp-98" vertex="1">
          <mxGeometry y="540" width="260" height="30" as="geometry" />
        </mxCell>
        <mxCell id="JMdAkeIzqonVhZbLqowp-117" value="String itemValue（）" style="text;strokeColor=none;fillColor=none;align=left;verticalAlign=middle;spacingLeft=4;spacingRight=4;overflow=hidden;points=[[0,0.5],[1,0.5]];portConstraint=eastwest;rotatable=0;whiteSpace=wrap;html=1;labelBackgroundColor=default;fontFamily=Comic Sans MS;" parent="JMdAkeIzqonVhZbLqowp-98" vertex="1">
          <mxGeometry y="570" width="260" height="30" as="geometry" />
        </mxCell>
        <mxCell id="JMdAkeIzqonVhZbLqowp-127" value="String itemDesc（）" style="text;strokeColor=none;fillColor=none;align=left;verticalAlign=middle;spacingLeft=4;spacingRight=4;overflow=hidden;points=[[0,0.5],[1,0.5]];portConstraint=eastwest;rotatable=0;whiteSpace=wrap;html=1;labelBackgroundColor=default;fontFamily=Comic Sans MS;" parent="JMdAkeIzqonVhZbLqowp-98" vertex="1">
          <mxGeometry y="600" width="260" height="30" as="geometry" />
        </mxCell>
        <mxCell id="JMdAkeIzqonVhZbLqowp-126" value="BigDecimal itemWeight（）" style="text;strokeColor=none;fillColor=none;align=left;verticalAlign=middle;spacingLeft=4;spacingRight=4;overflow=hidden;points=[[0,0.5],[1,0.5]];portConstraint=eastwest;rotatable=0;whiteSpace=wrap;html=1;labelBackgroundColor=default;fontFamily=Comic Sans MS;" parent="JMdAkeIzqonVhZbLqowp-98" vertex="1">
          <mxGeometry y="630" width="260" height="30" as="geometry" />
        </mxCell>
        <mxCell id="JMdAkeIzqonVhZbLqowp-125" value="String itemUnit（）" style="text;strokeColor=none;fillColor=none;align=left;verticalAlign=middle;spacingLeft=4;spacingRight=4;overflow=hidden;points=[[0,0.5],[1,0.5]];portConstraint=eastwest;rotatable=0;whiteSpace=wrap;html=1;labelBackgroundColor=default;fontFamily=Comic Sans MS;" parent="JMdAkeIzqonVhZbLqowp-98" vertex="1">
          <mxGeometry y="660" width="260" height="30" as="geometry" />
        </mxCell>
        <mxCell id="JMdAkeIzqonVhZbLqowp-124" value="String bizJson（）" style="text;strokeColor=none;fillColor=none;align=left;verticalAlign=middle;spacingLeft=4;spacingRight=4;overflow=hidden;points=[[0,0.5],[1,0.5]];portConstraint=eastwest;rotatable=0;whiteSpace=wrap;html=1;labelBackgroundColor=default;fontFamily=Comic Sans MS;" parent="JMdAkeIzqonVhZbLqowp-98" vertex="1">
          <mxGeometry y="690" width="260" height="30" as="geometry" />
        </mxCell>
        <mxCell id="JMdAkeIzqonVhZbLqowp-123" value="String priceMode（）" style="text;strokeColor=none;fillColor=none;align=left;verticalAlign=middle;spacingLeft=4;spacingRight=4;overflow=hidden;points=[[0,0.5],[1,0.5]];portConstraint=eastwest;rotatable=0;whiteSpace=wrap;html=1;labelBackgroundColor=default;fontFamily=Comic Sans MS;" parent="JMdAkeIzqonVhZbLqowp-98" vertex="1">
          <mxGeometry y="720" width="260" height="30" as="geometry" />
        </mxCell>
        <mxCell id="JMdAkeIzqonVhZbLqowp-122" value="String priceModeName（）" style="text;strokeColor=none;fillColor=none;align=left;verticalAlign=middle;spacingLeft=4;spacingRight=4;overflow=hidden;points=[[0,0.5],[1,0.5]];portConstraint=eastwest;rotatable=0;whiteSpace=wrap;html=1;labelBackgroundColor=default;fontFamily=Comic Sans MS;" parent="JMdAkeIzqonVhZbLqowp-98" vertex="1">
          <mxGeometry y="750" width="260" height="30" as="geometry" />
        </mxCell>
        <mxCell id="JMdAkeIzqonVhZbLqowp-121" value="String catalogueUnit（）" style="text;strokeColor=none;fillColor=none;align=left;verticalAlign=middle;spacingLeft=4;spacingRight=4;overflow=hidden;points=[[0,0.5],[1,0.5]];portConstraint=eastwest;rotatable=0;whiteSpace=wrap;html=1;labelBackgroundColor=default;fontFamily=Comic Sans MS;" parent="JMdAkeIzqonVhZbLqowp-98" vertex="1">
          <mxGeometry y="780" width="260" height="30" as="geometry" />
        </mxCell>
        <mxCell id="JMdAkeIzqonVhZbLqowp-120" value="BigDecimal catalogueLimitPrice（）" style="text;strokeColor=none;fillColor=none;align=left;verticalAlign=middle;spacingLeft=4;spacingRight=4;overflow=hidden;points=[[0,0.5],[1,0.5]];portConstraint=eastwest;rotatable=0;whiteSpace=wrap;html=1;labelBackgroundColor=default;fontFamily=Comic Sans MS;" parent="JMdAkeIzqonVhZbLqowp-98" vertex="1">
          <mxGeometry y="810" width="260" height="30" as="geometry" />
        </mxCell>
        <mxCell id="JMdAkeIzqonVhZbLqowp-119" value="String priceAdjust（）" style="text;strokeColor=none;fillColor=none;align=left;verticalAlign=middle;spacingLeft=4;spacingRight=4;overflow=hidden;points=[[0,0.5],[1,0.5]];portConstraint=eastwest;rotatable=0;whiteSpace=wrap;html=1;labelBackgroundColor=default;fontFamily=Comic Sans MS;" parent="JMdAkeIzqonVhZbLqowp-98" vertex="1">
          <mxGeometry y="840" width="260" height="30" as="geometry" />
        </mxCell>
        <mxCell id="JMdAkeIzqonVhZbLqowp-118" value="String priceStandardStatus（）" style="text;strokeColor=none;fillColor=none;align=left;verticalAlign=middle;spacingLeft=4;spacingRight=4;overflow=hidden;points=[[0,0.5],[1,0.5]];portConstraint=eastwest;rotatable=0;whiteSpace=wrap;html=1;labelBackgroundColor=default;fontFamily=Comic Sans MS;" parent="JMdAkeIzqonVhZbLqowp-98" vertex="1">
          <mxGeometry y="870" width="260" height="30" as="geometry" />
        </mxCell>
        <mxCell id="JMdAkeIzqonVhZbLqowp-132" value="String extInfo（）" style="text;strokeColor=none;fillColor=none;align=left;verticalAlign=middle;spacingLeft=4;spacingRight=4;overflow=hidden;points=[[0,0.5],[1,0.5]];portConstraint=eastwest;rotatable=0;whiteSpace=wrap;html=1;labelBackgroundColor=default;fontFamily=Comic Sans MS;" parent="JMdAkeIzqonVhZbLqowp-98" vertex="1">
          <mxGeometry y="900" width="260" height="30" as="geometry" />
        </mxCell>
        <mxCell id="JMdAkeIzqonVhZbLqowp-131" value="String serviceResponse（）" style="text;strokeColor=none;fillColor=none;align=left;verticalAlign=middle;spacingLeft=4;spacingRight=4;overflow=hidden;points=[[0,0.5],[1,0.5]];portConstraint=eastwest;rotatable=0;whiteSpace=wrap;html=1;labelBackgroundColor=default;fontFamily=Comic Sans MS;" parent="JMdAkeIzqonVhZbLqowp-98" vertex="1">
          <mxGeometry y="930" width="260" height="30" as="geometry" />
        </mxCell>
        <mxCell id="JMdAkeIzqonVhZbLqowp-130" value="String detailId（）" style="text;strokeColor=none;fillColor=none;align=left;verticalAlign=middle;spacingLeft=4;spacingRight=4;overflow=hidden;points=[[0,0.5],[1,0.5]];portConstraint=eastwest;rotatable=0;whiteSpace=wrap;html=1;labelBackgroundColor=default;fontFamily=Comic Sans MS;" parent="JMdAkeIzqonVhZbLqowp-98" vertex="1">
          <mxGeometry y="960" width="260" height="30" as="geometry" />
        </mxCell>
        <mxCell id="JMdAkeIzqonVhZbLqowp-129" value="String detailType（）" style="text;strokeColor=none;fillColor=none;align=left;verticalAlign=middle;spacingLeft=4;spacingRight=4;overflow=hidden;points=[[0,0.5],[1,0.5]];portConstraint=eastwest;rotatable=0;whiteSpace=wrap;html=1;labelBackgroundColor=default;fontFamily=Comic Sans MS;" parent="JMdAkeIzqonVhZbLqowp-98" vertex="1">
          <mxGeometry y="990" width="260" height="30" as="geometry" />
        </mxCell>
        <mxCell id="JMdAkeIzqonVhZbLqowp-128" value="String responseGoodsId（）" style="text;strokeColor=none;fillColor=none;align=left;verticalAlign=middle;spacingLeft=4;spacingRight=4;overflow=hidden;points=[[0,0.5],[1,0.5]];portConstraint=eastwest;rotatable=0;whiteSpace=wrap;html=1;labelBackgroundColor=default;fontFamily=Comic Sans MS;" parent="JMdAkeIzqonVhZbLqowp-98" vertex="1">
          <mxGeometry y="1020" width="260" height="30" as="geometry" />
        </mxCell>
        <mxCell id="JMdAkeIzqonVhZbLqowp-137" value="String responseGoodsName（）" style="text;strokeColor=none;fillColor=none;align=left;verticalAlign=middle;spacingLeft=4;spacingRight=4;overflow=hidden;points=[[0,0.5],[1,0.5]];portConstraint=eastwest;rotatable=0;whiteSpace=wrap;html=1;labelBackgroundColor=default;fontFamily=Comic Sans MS;" parent="JMdAkeIzqonVhZbLqowp-98" vertex="1">
          <mxGeometry y="1050" width="260" height="30" as="geometry" />
        </mxCell>
        <mxCell id="JMdAkeIzqonVhZbLqowp-136" value="String responseGoodsDesc（）" style="text;strokeColor=none;fillColor=none;align=left;verticalAlign=middle;spacingLeft=4;spacingRight=4;overflow=hidden;points=[[0,0.5],[1,0.5]];portConstraint=eastwest;rotatable=0;whiteSpace=wrap;html=1;labelBackgroundColor=default;fontFamily=Comic Sans MS;" parent="JMdAkeIzqonVhZbLqowp-98" vertex="1">
          <mxGeometry y="1080" width="260" height="30" as="geometry" />
        </mxCell>
        <mxCell id="JMdAkeIzqonVhZbLqowp-135" value="String catalogueModel（）" style="text;strokeColor=none;fillColor=none;align=left;verticalAlign=middle;spacingLeft=4;spacingRight=4;overflow=hidden;points=[[0,0.5],[1,0.5]];portConstraint=eastwest;rotatable=0;whiteSpace=wrap;html=1;labelBackgroundColor=default;fontFamily=Comic Sans MS;" parent="JMdAkeIzqonVhZbLqowp-98" vertex="1">
          <mxGeometry y="1110" width="260" height="30" as="geometry" />
        </mxCell>
        <mxCell id="JMdAkeIzqonVhZbLqowp-134" value="String catalogueBrand（）" style="text;strokeColor=none;fillColor=none;align=left;verticalAlign=middle;spacingLeft=4;spacingRight=4;overflow=hidden;points=[[0,0.5],[1,0.5]];portConstraint=eastwest;rotatable=0;whiteSpace=wrap;html=1;labelBackgroundColor=default;fontFamily=Comic Sans MS;" parent="JMdAkeIzqonVhZbLqowp-98" vertex="1">
          <mxGeometry y="1140" width="260" height="30" as="geometry" />
        </mxCell>
        <mxCell id="yBrNCFbs29Fst5mHjsf9-1" value="KcAgreementQuotationDetailDTO" style="swimlane;fontStyle=0;childLayout=stackLayout;horizontal=1;startSize=30;horizontalStack=0;resizeParent=1;resizeParentMax=0;resizeLast=0;collapsible=1;marginBottom=0;whiteSpace=wrap;html=1;fillColor=#fff2cc;strokeColor=#d6b656;fontFamily=Comic Sans MS;" parent="1" vertex="1">
          <mxGeometry x="680" y="2070" width="550" height="540" as="geometry">
            <mxRectangle x="70" y="50" width="60" height="30" as="alternateBounds" />
          </mxGeometry>
        </mxCell>
        <mxCell id="yBrNCFbs29Fst5mHjsf9-2" value="String id" style="text;strokeColor=none;fillColor=none;align=left;verticalAlign=middle;spacingLeft=4;spacingRight=4;overflow=hidden;points=[[0,0.5],[1,0.5]];portConstraint=eastwest;rotatable=0;whiteSpace=wrap;html=1;labelBackgroundColor=default;fontFamily=Comic Sans MS;" parent="yBrNCFbs29Fst5mHjsf9-1" vertex="1">
          <mxGeometry y="30" width="550" height="30" as="geometry" />
        </mxCell>
        <mxCell id="yBrNCFbs29Fst5mHjsf9-3" value="String packageId" style="text;strokeColor=none;fillColor=none;align=left;verticalAlign=middle;spacingLeft=4;spacingRight=4;overflow=hidden;points=[[0,0.5],[1,0.5]];portConstraint=eastwest;rotatable=0;whiteSpace=wrap;html=1;labelBackgroundColor=default;textShadow=0;fontFamily=Comic Sans MS;" parent="yBrNCFbs29Fst5mHjsf9-1" vertex="1">
          <mxGeometry y="60" width="550" height="30" as="geometry" />
        </mxCell>
        <mxCell id="yBrNCFbs29Fst5mHjsf9-4" value="String catalogDetailId（标的ID）" style="text;strokeColor=none;fillColor=none;align=left;verticalAlign=middle;spacingLeft=4;spacingRight=4;overflow=hidden;points=[[0,0.5],[1,0.5]];portConstraint=eastwest;rotatable=0;whiteSpace=wrap;html=1;labelBackgroundColor=default;fontFamily=Comic Sans MS;" parent="yBrNCFbs29Fst5mHjsf9-1" vertex="1">
          <mxGeometry y="90" width="550" height="30" as="geometry" />
        </mxCell>
        <mxCell id="yBrNCFbs29Fst5mHjsf9-5" value="String serviceDemandId（服务要求ID）" style="text;strokeColor=none;fillColor=none;align=left;verticalAlign=middle;spacingLeft=4;spacingRight=4;overflow=hidden;points=[[0,0.5],[1,0.5]];portConstraint=eastwest;rotatable=0;whiteSpace=wrap;html=1;labelBackgroundColor=default;fontFamily=Comic Sans MS;" parent="yBrNCFbs29Fst5mHjsf9-1" vertex="1">
          <mxGeometry y="120" width="550" height="30" as="geometry" />
        </mxCell>
        <mxCell id="yBrNCFbs29Fst5mHjsf9-6" value="Integer seq（排序）" style="text;strokeColor=none;fillColor=none;align=left;verticalAlign=middle;spacingLeft=4;spacingRight=4;overflow=hidden;points=[[0,0.5],[1,0.5]];portConstraint=eastwest;rotatable=0;whiteSpace=wrap;html=1;labelBackgroundColor=default;fontFamily=Comic Sans MS;" parent="yBrNCFbs29Fst5mHjsf9-1" vertex="1">
          <mxGeometry y="150" width="550" height="30" as="geometry" />
        </mxCell>
        <mxCell id="yBrNCFbs29Fst5mHjsf9-7" value="String name（名称）" style="text;strokeColor=none;fillColor=none;align=left;verticalAlign=middle;spacingLeft=4;spacingRight=4;overflow=hidden;points=[[0,0.5],[1,0.5]];portConstraint=eastwest;rotatable=0;whiteSpace=wrap;html=1;labelBackgroundColor=default;fontFamily=Comic Sans MS;" parent="yBrNCFbs29Fst5mHjsf9-1" vertex="1">
          <mxGeometry y="180" width="550" height="30" as="geometry" />
        </mxCell>
        <mxCell id="yBrNCFbs29Fst5mHjsf9-8" value="String measureUnit（计量单位）" style="text;strokeColor=none;fillColor=none;align=left;verticalAlign=middle;spacingLeft=4;spacingRight=4;overflow=hidden;points=[[0,0.5],[1,0.5]];portConstraint=eastwest;rotatable=0;whiteSpace=wrap;html=1;labelBackgroundColor=default;fontFamily=Comic Sans MS;" parent="yBrNCFbs29Fst5mHjsf9-1" vertex="1">
          <mxGeometry y="210" width="550" height="30" as="geometry" />
        </mxCell>
        <mxCell id="yBrNCFbs29Fst5mHjsf9-9" value="String unit（报价单位）" style="text;strokeColor=none;fillColor=none;align=left;verticalAlign=middle;spacingLeft=4;spacingRight=4;overflow=hidden;points=[[0,0.5],[1,0.5]];portConstraint=eastwest;rotatable=0;whiteSpace=wrap;html=1;labelBackgroundColor=default;fontFamily=Comic Sans MS;" parent="yBrNCFbs29Fst5mHjsf9-1" vertex="1">
          <mxGeometry y="240" width="550" height="30" as="geometry" />
        </mxCell>
        <mxCell id="yBrNCFbs29Fst5mHjsf9-10" value="String detailName（报价明细）" style="text;strokeColor=none;fillColor=none;align=left;verticalAlign=middle;spacingLeft=4;spacingRight=4;overflow=hidden;points=[[0,0.5],[1,0.5]];portConstraint=eastwest;rotatable=0;whiteSpace=wrap;html=1;labelBackgroundColor=default;fontFamily=Comic Sans MS;" parent="yBrNCFbs29Fst5mHjsf9-1" vertex="1">
          <mxGeometry y="270" width="550" height="30" as="geometry" />
        </mxCell>
        <mxCell id="yBrNCFbs29Fst5mHjsf9-11" value="String detailRemark（报价说明）" style="text;strokeColor=none;fillColor=none;align=left;verticalAlign=middle;spacingLeft=4;spacingRight=4;overflow=hidden;points=[[0,0.5],[1,0.5]];portConstraint=eastwest;rotatable=0;whiteSpace=wrap;html=1;labelBackgroundColor=default;fontFamily=Comic Sans MS;" parent="yBrNCFbs29Fst5mHjsf9-1" vertex="1">
          <mxGeometry y="300" width="550" height="30" as="geometry" />
        </mxCell>
        <mxCell id="yBrNCFbs29Fst5mHjsf9-12" value="Integer offerPriceForm（报价类型）" style="text;strokeColor=none;fillColor=none;align=left;verticalAlign=middle;spacingLeft=4;spacingRight=4;overflow=hidden;points=[[0,0.5],[1,0.5]];portConstraint=eastwest;rotatable=0;whiteSpace=wrap;html=1;labelBackgroundColor=default;fontFamily=Comic Sans MS;" parent="yBrNCFbs29Fst5mHjsf9-1" vertex="1">
          <mxGeometry y="330" width="550" height="30" as="geometry" />
        </mxCell>
        <mxCell id="yBrNCFbs29Fst5mHjsf9-13" value="String offerPriceFormName（报价类型）" style="text;strokeColor=none;fillColor=none;align=left;verticalAlign=middle;spacingLeft=4;spacingRight=4;overflow=hidden;points=[[0,0.5],[1,0.5]];portConstraint=eastwest;rotatable=0;whiteSpace=wrap;html=1;labelBackgroundColor=default;fontFamily=Comic Sans MS;" parent="yBrNCFbs29Fst5mHjsf9-1" vertex="1">
          <mxGeometry y="360" width="550" height="30" as="geometry" />
        </mxCell>
        <mxCell id="yBrNCFbs29Fst5mHjsf9-14" value="BigDecimal maxLimitAmount（最高限价）" style="text;strokeColor=none;fillColor=none;align=left;verticalAlign=middle;spacingLeft=4;spacingRight=4;overflow=hidden;points=[[0,0.5],[1,0.5]];portConstraint=eastwest;rotatable=0;whiteSpace=wrap;html=1;labelBackgroundColor=default;fontFamily=Comic Sans MS;" parent="yBrNCFbs29Fst5mHjsf9-1" vertex="1">
          <mxGeometry y="390" width="550" height="30" as="geometry" />
        </mxCell>
        <mxCell id="yBrNCFbs29Fst5mHjsf9-15" value="BigDecimal minLimitAmount（最低限价）" style="text;strokeColor=none;fillColor=none;align=left;verticalAlign=middle;spacingLeft=4;spacingRight=4;overflow=hidden;points=[[0,0.5],[1,0.5]];portConstraint=eastwest;rotatable=0;whiteSpace=wrap;html=1;labelBackgroundColor=default;fontFamily=Comic Sans MS;" parent="yBrNCFbs29Fst5mHjsf9-1" vertex="1">
          <mxGeometry y="420" width="550" height="30" as="geometry" />
        </mxCell>
        <mxCell id="yBrNCFbs29Fst5mHjsf9-16" value="String priceVolumeOption（量价关系）" style="text;strokeColor=none;fillColor=none;align=left;verticalAlign=middle;spacingLeft=4;spacingRight=4;overflow=hidden;points=[[0,0.5],[1,0.5]];portConstraint=eastwest;rotatable=0;whiteSpace=wrap;html=1;labelBackgroundColor=default;fontFamily=Comic Sans MS;" parent="yBrNCFbs29Fst5mHjsf9-1" vertex="1">
          <mxGeometry y="450" width="550" height="30" as="geometry" />
        </mxCell>
        <mxCell id="yBrNCFbs29Fst5mHjsf9-17" value="String extendStorage（扩展存储）" style="text;strokeColor=none;fillColor=none;align=left;verticalAlign=middle;spacingLeft=4;spacingRight=4;overflow=hidden;points=[[0,0.5],[1,0.5]];portConstraint=eastwest;rotatable=0;whiteSpace=wrap;html=1;labelBackgroundColor=default;fontFamily=Comic Sans MS;" parent="yBrNCFbs29Fst5mHjsf9-1" vertex="1">
          <mxGeometry y="480" width="550" height="30" as="geometry" />
        </mxCell>
        <mxCell id="-4W3cBTythjbGOp8FqpT-94" value="&lt;b&gt;List&amp;lt;KcAgreementSupplierQuotationDetailDTO&amp;gt; detailsItemList（明细信息）&lt;/b&gt;" style="text;strokeColor=none;fillColor=none;align=left;verticalAlign=middle;spacingLeft=4;spacingRight=4;overflow=hidden;points=[[0,0.5],[1,0.5]];portConstraint=eastwest;rotatable=0;whiteSpace=wrap;html=1;labelBackgroundColor=default;fontFamily=Comic Sans MS;" parent="yBrNCFbs29Fst5mHjsf9-1" vertex="1">
          <mxGeometry y="510" width="550" height="30" as="geometry" />
        </mxCell>
        <mxCell id="PbJelDRNLOMwJ_flGZEq-47" value="" style="endArrow=classic;html=1;rounded=0;exitX=1;exitY=0.5;exitDx=0;exitDy=0;fontFamily=Comic Sans MS;entryX=1;entryY=0.229;entryDx=0;entryDy=0;entryPerimeter=0;" edge="1" parent="yBrNCFbs29Fst5mHjsf9-1" source="-4W3cBTythjbGOp8FqpT-94" target="yBrNCFbs29Fst5mHjsf9-10">
          <mxGeometry width="50" height="50" relative="1" as="geometry">
            <mxPoint x="750" y="-40" as="sourcePoint" />
            <mxPoint x="680" y="200" as="targetPoint" />
            <Array as="points">
              <mxPoint x="790" y="525" />
              <mxPoint x="790" y="277" />
            </Array>
          </mxGeometry>
        </mxCell>
        <mxCell id="yBrNCFbs29Fst5mHjsf9-46" value="KcAgreementSupplierResponseDTO" style="swimlane;fontStyle=0;childLayout=stackLayout;horizontal=1;startSize=30;horizontalStack=0;resizeParent=1;resizeParentMax=0;resizeLast=0;collapsible=1;marginBottom=0;whiteSpace=wrap;html=1;fillColor=#fff2cc;strokeColor=#d6b656;fontFamily=Comic Sans MS;" parent="1" vertex="1">
          <mxGeometry x="-1250" y="900" width="260" height="360" as="geometry">
            <mxRectangle x="70" y="50" width="60" height="30" as="alternateBounds" />
          </mxGeometry>
        </mxCell>
        <mxCell id="yBrNCFbs29Fst5mHjsf9-47" value="String id" style="text;strokeColor=none;fillColor=none;align=left;verticalAlign=middle;spacingLeft=4;spacingRight=4;overflow=hidden;points=[[0,0.5],[1,0.5]];portConstraint=eastwest;rotatable=0;whiteSpace=wrap;html=1;labelBackgroundColor=default;fontFamily=Comic Sans MS;" parent="yBrNCFbs29Fst5mHjsf9-46" vertex="1">
          <mxGeometry y="30" width="260" height="30" as="geometry" />
        </mxCell>
        <mxCell id="yBrNCFbs29Fst5mHjsf9-48" value="String packageId" style="text;strokeColor=none;fillColor=none;align=left;verticalAlign=middle;spacingLeft=4;spacingRight=4;overflow=hidden;points=[[0,0.5],[1,0.5]];portConstraint=eastwest;rotatable=0;whiteSpace=wrap;html=1;labelBackgroundColor=default;textShadow=0;fontFamily=Comic Sans MS;" parent="yBrNCFbs29Fst5mHjsf9-46" vertex="1">
          <mxGeometry y="60" width="260" height="30" as="geometry" />
        </mxCell>
        <mxCell id="yBrNCFbs29Fst5mHjsf9-49" value="String typeCode（）" style="text;strokeColor=none;fillColor=none;align=left;verticalAlign=middle;spacingLeft=4;spacingRight=4;overflow=hidden;points=[[0,0.5],[1,0.5]];portConstraint=eastwest;rotatable=0;whiteSpace=wrap;html=1;labelBackgroundColor=default;fontFamily=Comic Sans MS;" parent="yBrNCFbs29Fst5mHjsf9-46" vertex="1">
          <mxGeometry y="90" width="260" height="30" as="geometry" />
        </mxCell>
        <mxCell id="yBrNCFbs29Fst5mHjsf9-50" value="String typeName（）" style="text;strokeColor=none;fillColor=none;align=left;verticalAlign=middle;spacingLeft=4;spacingRight=4;overflow=hidden;points=[[0,0.5],[1,0.5]];portConstraint=eastwest;rotatable=0;whiteSpace=wrap;html=1;labelBackgroundColor=default;fontFamily=Comic Sans MS;" parent="yBrNCFbs29Fst5mHjsf9-46" vertex="1">
          <mxGeometry y="120" width="260" height="30" as="geometry" />
        </mxCell>
        <mxCell id="yBrNCFbs29Fst5mHjsf9-51" value="String supplierId（）" style="text;strokeColor=none;fillColor=none;align=left;verticalAlign=middle;spacingLeft=4;spacingRight=4;overflow=hidden;points=[[0,0.5],[1,0.5]];portConstraint=eastwest;rotatable=0;whiteSpace=wrap;html=1;labelBackgroundColor=default;fontFamily=Comic Sans MS;" parent="yBrNCFbs29Fst5mHjsf9-46" vertex="1">
          <mxGeometry y="150" width="260" height="30" as="geometry" />
        </mxCell>
        <mxCell id="yBrNCFbs29Fst5mHjsf9-52" value="Integer sequence（）" style="text;strokeColor=none;fillColor=none;align=left;verticalAlign=middle;spacingLeft=4;spacingRight=4;overflow=hidden;points=[[0,0.5],[1,0.5]];portConstraint=eastwest;rotatable=0;whiteSpace=wrap;html=1;labelBackgroundColor=default;fontFamily=Comic Sans MS;" parent="yBrNCFbs29Fst5mHjsf9-46" vertex="1">
          <mxGeometry y="180" width="260" height="30" as="geometry" />
        </mxCell>
        <mxCell id="yBrNCFbs29Fst5mHjsf9-53" value="Integer layTableIndex（）" style="text;strokeColor=none;fillColor=none;align=left;verticalAlign=middle;spacingLeft=4;spacingRight=4;overflow=hidden;points=[[0,0.5],[1,0.5]];portConstraint=eastwest;rotatable=0;whiteSpace=wrap;html=1;labelBackgroundColor=default;fontFamily=Comic Sans MS;" parent="yBrNCFbs29Fst5mHjsf9-46" vertex="1">
          <mxGeometry y="210" width="260" height="30" as="geometry" />
        </mxCell>
        <mxCell id="yBrNCFbs29Fst5mHjsf9-54" value="String clauseName（）" style="text;strokeColor=none;fillColor=none;align=left;verticalAlign=middle;spacingLeft=4;spacingRight=4;overflow=hidden;points=[[0,0.5],[1,0.5]];portConstraint=eastwest;rotatable=0;whiteSpace=wrap;html=1;labelBackgroundColor=default;fontFamily=Comic Sans MS;" parent="yBrNCFbs29Fst5mHjsf9-46" vertex="1">
          <mxGeometry y="240" width="260" height="30" as="geometry" />
        </mxCell>
        <mxCell id="yBrNCFbs29Fst5mHjsf9-55" value="String clauseDesc（）" style="text;strokeColor=none;fillColor=none;align=left;verticalAlign=middle;spacingLeft=4;spacingRight=4;overflow=hidden;points=[[0,0.5],[1,0.5]];portConstraint=eastwest;rotatable=0;whiteSpace=wrap;html=1;labelBackgroundColor=default;fontFamily=Comic Sans MS;" parent="yBrNCFbs29Fst5mHjsf9-46" vertex="1">
          <mxGeometry y="270" width="260" height="30" as="geometry" />
        </mxCell>
        <mxCell id="yBrNCFbs29Fst5mHjsf9-56" value="String supplierName（）" style="text;strokeColor=none;fillColor=none;align=left;verticalAlign=middle;spacingLeft=4;spacingRight=4;overflow=hidden;points=[[0,0.5],[1,0.5]];portConstraint=eastwest;rotatable=0;whiteSpace=wrap;html=1;labelBackgroundColor=default;fontFamily=Comic Sans MS;" parent="yBrNCFbs29Fst5mHjsf9-46" vertex="1">
          <mxGeometry y="300" width="260" height="30" as="geometry" />
        </mxCell>
        <mxCell id="yBrNCFbs29Fst5mHjsf9-57" value="String supplierResponse（）" style="text;strokeColor=none;fillColor=none;align=left;verticalAlign=middle;spacingLeft=4;spacingRight=4;overflow=hidden;points=[[0,0.5],[1,0.5]];portConstraint=eastwest;rotatable=0;whiteSpace=wrap;html=1;labelBackgroundColor=default;fontFamily=Comic Sans MS;" parent="yBrNCFbs29Fst5mHjsf9-46" vertex="1">
          <mxGeometry y="330" width="260" height="30" as="geometry" />
        </mxCell>
        <mxCell id="yBrNCFbs29Fst5mHjsf9-98" value="" style="endArrow=classic;html=1;rounded=0;entryX=0.446;entryY=0.014;entryDx=0;entryDy=0;entryPerimeter=0;fontFamily=Comic Sans MS;" parent="1" source="JMdAkeIzqonVhZbLqowp-95" target="yBrNCFbs29Fst5mHjsf9-46" edge="1">
          <mxGeometry width="50" height="50" relative="1" as="geometry">
            <mxPoint x="-1040" y="840" as="sourcePoint" />
            <mxPoint x="-1220" y="830" as="targetPoint" />
          </mxGeometry>
        </mxCell>
        <mxCell id="yBrNCFbs29Fst5mHjsf9-100" value="" style="endArrow=classic;html=1;rounded=0;entryX=0.5;entryY=0;entryDx=0;entryDy=0;exitX=0.567;exitY=0.889;exitDx=0;exitDy=0;exitPerimeter=0;fontFamily=Comic Sans MS;" parent="1" source="JMdAkeIzqonVhZbLqowp-95" target="JMdAkeIzqonVhZbLqowp-98" edge="1">
          <mxGeometry width="50" height="50" relative="1" as="geometry">
            <mxPoint x="-980" y="765" as="sourcePoint" />
            <mxPoint x="-1063" y="920" as="targetPoint" />
          </mxGeometry>
        </mxCell>
        <mxCell id="yBrNCFbs29Fst5mHjsf9-101" value="" style="endArrow=classic;html=1;rounded=0;entryX=0;entryY=0.5;entryDx=0;entryDy=0;exitX=1;exitY=0.5;exitDx=0;exitDy=0;fontFamily=Comic Sans MS;" parent="1" source="m__d6OJdyXCMt7KyZCjO-5" target="yBrNCFbs29Fst5mHjsf9-14" edge="1">
          <mxGeometry width="50" height="50" relative="1" as="geometry">
            <mxPoint x="-860" y="800" as="sourcePoint" />
            <mxPoint x="-769" y="915" as="targetPoint" />
          </mxGeometry>
        </mxCell>
        <mxCell id="yBrNCFbs29Fst5mHjsf9-103" value="" style="endArrow=classic;html=1;rounded=0;entryX=1;entryY=0.5;entryDx=0;entryDy=0;exitX=0;exitY=0;exitDx=0;exitDy=0;fontFamily=Comic Sans MS;" parent="1" target="JMdAkeIzqonVhZbLqowp-51" edge="1">
          <mxGeometry width="50" height="50" relative="1" as="geometry">
            <mxPoint x="-370" y="80.00000000000091" as="sourcePoint" />
            <mxPoint x="-670" y="80" as="targetPoint" />
          </mxGeometry>
        </mxCell>
        <mxCell id="yBrNCFbs29Fst5mHjsf9-104" value="" style="endArrow=classic;html=1;rounded=0;exitX=1;exitY=0.5;exitDx=0;exitDy=0;entryX=0;entryY=0.5;entryDx=0;entryDy=0;fontFamily=Comic Sans MS;" parent="1" source="C2iRjYQwUr5vMglBMvX1-87" target="m__d6OJdyXCMt7KyZCjO-46" edge="1">
          <mxGeometry width="50" height="50" relative="1" as="geometry">
            <mxPoint x="-100" y="584" as="sourcePoint" />
            <mxPoint x="200" y="64" as="targetPoint" />
          </mxGeometry>
        </mxCell>
        <mxCell id="yBrNCFbs29Fst5mHjsf9-105" value="" style="endArrow=classic;html=1;rounded=0;exitX=1;exitY=0.5;exitDx=0;exitDy=0;entryX=0;entryY=0.5;entryDx=0;entryDy=0;fontFamily=Comic Sans MS;" parent="1" source="C2iRjYQwUr5vMglBMvX1-88" target="m__d6OJdyXCMt7KyZCjO-190" edge="1">
          <mxGeometry width="50" height="50" relative="1" as="geometry">
            <mxPoint x="40" y="1240" as="sourcePoint" />
            <mxPoint x="640" y="400" as="targetPoint" />
          </mxGeometry>
        </mxCell>
        <mxCell id="yBrNCFbs29Fst5mHjsf9-107" value="" style="endArrow=classic;html=1;rounded=0;exitX=1;exitY=0.5;exitDx=0;exitDy=0;entryX=-0.013;entryY=0.133;entryDx=0;entryDy=0;entryPerimeter=0;fontFamily=Comic Sans MS;" parent="1" source="C2iRjYQwUr5vMglBMvX1-89" target="m__d6OJdyXCMt7KyZCjO-213" edge="1">
          <mxGeometry width="50" height="50" relative="1" as="geometry">
            <mxPoint x="12" y="1240" as="sourcePoint" />
            <mxPoint x="320" y="1595" as="targetPoint" />
          </mxGeometry>
        </mxCell>
        <mxCell id="yBrNCFbs29Fst5mHjsf9-111" value="" style="endArrow=classic;html=1;rounded=0;entryX=0;entryY=0.5;entryDx=0;entryDy=0;exitX=1;exitY=0.5;exitDx=0;exitDy=0;fontFamily=Comic Sans MS;" parent="1" source="m__d6OJdyXCMt7KyZCjO-48" target="m__d6OJdyXCMt7KyZCjO-87" edge="1">
          <mxGeometry width="50" height="50" relative="1" as="geometry">
            <mxPoint x="1120" y="-800" as="sourcePoint" />
            <mxPoint x="1050" y="340" as="targetPoint" />
          </mxGeometry>
        </mxCell>
        <mxCell id="yBrNCFbs29Fst5mHjsf9-112" value="" style="endArrow=classic;html=1;rounded=0;entryX=0;entryY=0.5;entryDx=0;entryDy=0;fontFamily=Comic Sans MS;exitX=1;exitY=0.5;exitDx=0;exitDy=0;" parent="1" source="m__d6OJdyXCMt7KyZCjO-48" target="m__d6OJdyXCMt7KyZCjO-123" edge="1">
          <mxGeometry width="50" height="50" relative="1" as="geometry">
            <mxPoint x="1110" y="-1176" as="sourcePoint" />
            <mxPoint x="1090" y="450" as="targetPoint" />
          </mxGeometry>
        </mxCell>
        <mxCell id="yBrNCFbs29Fst5mHjsf9-113" value="" style="endArrow=classic;html=1;rounded=0;entryX=0;entryY=0.5;entryDx=0;entryDy=0;exitX=1;exitY=0.5;exitDx=0;exitDy=0;fontFamily=Comic Sans MS;" parent="1" source="m__d6OJdyXCMt7KyZCjO-7" target="uhuIzP3Es-dFqJNIFF9s-8" edge="1">
          <mxGeometry width="50" height="50" relative="1" as="geometry">
            <mxPoint x="40" y="910" as="sourcePoint" />
            <mxPoint x="240" y="2470" as="targetPoint" />
          </mxGeometry>
        </mxCell>
        <mxCell id="jJFGgtmmb8NNKWefRlXa-15" value="KcAgreementCatalogServiceHumanDTO" style="swimlane;fontStyle=0;childLayout=stackLayout;horizontal=1;startSize=30;horizontalStack=0;resizeParent=1;resizeParentMax=0;resizeLast=0;collapsible=1;marginBottom=0;whiteSpace=wrap;html=1;fillColor=#fff2cc;strokeColor=#d6b656;fontFamily=Comic Sans MS;" parent="1" vertex="1">
          <mxGeometry x="1640" y="-1460" width="340" height="300" as="geometry">
            <mxRectangle x="70" y="50" width="60" height="30" as="alternateBounds" />
          </mxGeometry>
        </mxCell>
        <mxCell id="jJFGgtmmb8NNKWefRlXa-16" value="String id" style="text;strokeColor=none;fillColor=none;align=left;verticalAlign=middle;spacingLeft=4;spacingRight=4;overflow=hidden;points=[[0,0.5],[1,0.5]];portConstraint=eastwest;rotatable=0;whiteSpace=wrap;html=1;labelBackgroundColor=default;fontFamily=Comic Sans MS;" parent="jJFGgtmmb8NNKWefRlXa-15" vertex="1">
          <mxGeometry y="30" width="340" height="30" as="geometry" />
        </mxCell>
        <mxCell id="jJFGgtmmb8NNKWefRlXa-17" value="String packageId" style="text;strokeColor=none;fillColor=none;align=left;verticalAlign=middle;spacingLeft=4;spacingRight=4;overflow=hidden;points=[[0,0.5],[1,0.5]];portConstraint=eastwest;rotatable=0;whiteSpace=wrap;html=1;labelBackgroundColor=default;textShadow=0;fontFamily=Comic Sans MS;" parent="jJFGgtmmb8NNKWefRlXa-15" vertex="1">
          <mxGeometry y="60" width="340" height="30" as="geometry" />
        </mxCell>
        <mxCell id="jJFGgtmmb8NNKWefRlXa-18" value="String catalogDetaiId" style="text;strokeColor=none;fillColor=none;align=left;verticalAlign=middle;spacingLeft=4;spacingRight=4;overflow=hidden;points=[[0,0.5],[1,0.5]];portConstraint=eastwest;rotatable=0;whiteSpace=wrap;html=1;labelBackgroundColor=default;fontFamily=Comic Sans MS;" parent="jJFGgtmmb8NNKWefRlXa-15" vertex="1">
          <mxGeometry y="90" width="340" height="30" as="geometry" />
        </mxCell>
        <mxCell id="jJFGgtmmb8NNKWefRlXa-20" value="String catalogId（品目ID）" style="text;strokeColor=none;fillColor=none;align=left;verticalAlign=middle;spacingLeft=4;spacingRight=4;overflow=hidden;points=[[0,0.5],[1,0.5]];portConstraint=eastwest;rotatable=0;whiteSpace=wrap;html=1;labelBackgroundColor=default;fontFamily=Comic Sans MS;" parent="jJFGgtmmb8NNKWefRlXa-15" vertex="1">
          <mxGeometry y="120" width="340" height="30" as="geometry" />
        </mxCell>
        <mxCell id="jJFGgtmmb8NNKWefRlXa-21" value="Integer sequence（排序）" style="text;strokeColor=none;fillColor=none;align=left;verticalAlign=middle;spacingLeft=4;spacingRight=4;overflow=hidden;points=[[0,0.5],[1,0.5]];portConstraint=eastwest;rotatable=0;whiteSpace=wrap;html=1;labelBackgroundColor=default;fontFamily=Comic Sans MS;" parent="jJFGgtmmb8NNKWefRlXa-15" vertex="1">
          <mxGeometry y="150" width="340" height="30" as="geometry" />
        </mxCell>
        <mxCell id="jJFGgtmmb8NNKWefRlXa-22" value="Integer quantity（数量）" style="text;strokeColor=none;fillColor=none;align=left;verticalAlign=middle;spacingLeft=4;spacingRight=4;overflow=hidden;points=[[0,0.5],[1,0.5]];portConstraint=eastwest;rotatable=0;whiteSpace=wrap;html=1;labelBackgroundColor=default;fontFamily=Comic Sans MS;" parent="jJFGgtmmb8NNKWefRlXa-15" vertex="1">
          <mxGeometry y="180" width="340" height="30" as="geometry" />
        </mxCell>
        <mxCell id="jJFGgtmmb8NNKWefRlXa-23" value="String unit（单位）" style="text;strokeColor=none;fillColor=none;align=left;verticalAlign=middle;spacingLeft=4;spacingRight=4;overflow=hidden;points=[[0,0.5],[1,0.5]];portConstraint=eastwest;rotatable=0;whiteSpace=wrap;html=1;labelBackgroundColor=default;fontFamily=Comic Sans MS;" parent="jJFGgtmmb8NNKWefRlXa-15" vertex="1">
          <mxGeometry y="210" width="340" height="30" as="geometry" />
        </mxCell>
        <mxCell id="jJFGgtmmb8NNKWefRlXa-24" value="String serviceHumanRequire（服务人员要求）" style="text;strokeColor=none;fillColor=none;align=left;verticalAlign=middle;spacingLeft=4;spacingRight=4;overflow=hidden;points=[[0,0.5],[1,0.5]];portConstraint=eastwest;rotatable=0;whiteSpace=wrap;html=1;labelBackgroundColor=default;fontFamily=Comic Sans MS;" parent="jJFGgtmmb8NNKWefRlXa-15" vertex="1">
          <mxGeometry y="240" width="340" height="30" as="geometry" />
        </mxCell>
        <mxCell id="jJFGgtmmb8NNKWefRlXa-25" value="String qualificationRequire（资质要求）" style="text;strokeColor=none;fillColor=none;align=left;verticalAlign=middle;spacingLeft=4;spacingRight=4;overflow=hidden;points=[[0,0.5],[1,0.5]];portConstraint=eastwest;rotatable=0;whiteSpace=wrap;html=1;labelBackgroundColor=default;fontFamily=Comic Sans MS;" parent="jJFGgtmmb8NNKWefRlXa-15" vertex="1">
          <mxGeometry y="270" width="340" height="30" as="geometry" />
        </mxCell>
        <mxCell id="jJFGgtmmb8NNKWefRlXa-28" value="" style="endArrow=classic;html=1;rounded=0;entryX=0;entryY=0.5;entryDx=0;entryDy=0;exitX=1;exitY=0.5;exitDx=0;exitDy=0;fontFamily=Comic Sans MS;" parent="1" source="m__d6OJdyXCMt7KyZCjO-48" target="jJFGgtmmb8NNKWefRlXa-20" edge="1">
          <mxGeometry width="50" height="50" relative="1" as="geometry">
            <mxPoint x="1120" y="-800" as="sourcePoint" />
            <mxPoint x="1529.9999999999995" y="-765.0000000000002" as="targetPoint" />
          </mxGeometry>
        </mxCell>
        <mxCell id="jJFGgtmmb8NNKWefRlXa-50" value="" style="endArrow=classic;html=1;rounded=0;entryX=0;entryY=0.5;entryDx=0;entryDy=0;exitX=1;exitY=0.5;exitDx=0;exitDy=0;fontFamily=Comic Sans MS;" parent="1" target="VYcQnqmnNoIjzm7rmO-Z-9" edge="1">
          <mxGeometry width="50" height="50" relative="1" as="geometry">
            <mxPoint x="150" y="795" as="sourcePoint" />
            <mxPoint x="660.0000000000005" y="1275" as="targetPoint" />
          </mxGeometry>
        </mxCell>
        <mxCell id="jJFGgtmmb8NNKWefRlXa-55" value="KEY" style="swimlane;fontStyle=0;childLayout=stackLayout;horizontal=1;startSize=30;horizontalStack=0;resizeParent=1;resizeParentMax=0;resizeLast=0;collapsible=1;marginBottom=0;whiteSpace=wrap;html=1;fontFamily=Comic Sans MS;" parent="1" vertex="1">
          <mxGeometry x="1110" y="830" width="300" height="420" as="geometry" />
        </mxCell>
        <mxCell id="jJFGgtmmb8NNKWefRlXa-56" value="deliveryTime 交货期限" style="text;strokeColor=none;fillColor=none;align=left;verticalAlign=middle;spacingLeft=4;spacingRight=4;overflow=hidden;points=[[0,0.5],[1,0.5]];portConstraint=eastwest;rotatable=0;whiteSpace=wrap;html=1;fontFamily=Comic Sans MS;" parent="jJFGgtmmb8NNKWefRlXa-55" vertex="1">
          <mxGeometry y="30" width="300" height="30" as="geometry" />
        </mxCell>
        <mxCell id="jJFGgtmmb8NNKWefRlXa-57" value="deliveryScore 交货的地域范围" style="text;strokeColor=none;fillColor=none;align=left;verticalAlign=middle;spacingLeft=4;spacingRight=4;overflow=hidden;points=[[0,0.5],[1,0.5]];portConstraint=eastwest;rotatable=0;whiteSpace=wrap;html=1;fontFamily=Comic Sans MS;" parent="jJFGgtmmb8NNKWefRlXa-55" vertex="1">
          <mxGeometry y="60" width="300" height="30" as="geometry" />
        </mxCell>
        <mxCell id="jJFGgtmmb8NNKWefRlXa-58" value="contractPayType 支付方式" style="text;strokeColor=none;fillColor=none;align=left;verticalAlign=middle;spacingLeft=4;spacingRight=4;overflow=hidden;points=[[0,0.5],[1,0.5]];portConstraint=eastwest;rotatable=0;whiteSpace=wrap;html=1;fontFamily=Comic Sans MS;" parent="jJFGgtmmb8NNKWefRlXa-55" vertex="1">
          <mxGeometry y="90" width="300" height="30" as="geometry" />
        </mxCell>
        <mxCell id="jJFGgtmmb8NNKWefRlXa-65" value="contractPayCondition 支付时间和条件" style="text;strokeColor=none;fillColor=none;align=left;verticalAlign=middle;spacingLeft=4;spacingRight=4;overflow=hidden;points=[[0,0.5],[1,0.5]];portConstraint=eastwest;rotatable=0;whiteSpace=wrap;html=1;fontFamily=Comic Sans MS;" parent="jJFGgtmmb8NNKWefRlXa-55" vertex="1">
          <mxGeometry y="120" width="300" height="30" as="geometry" />
        </mxCell>
        <mxCell id="jJFGgtmmb8NNKWefRlXa-64" value="productUpdateRule 产品升级换代规则" style="text;strokeColor=none;fillColor=none;align=left;verticalAlign=middle;spacingLeft=4;spacingRight=4;overflow=hidden;points=[[0,0.5],[1,0.5]];portConstraint=eastwest;rotatable=0;whiteSpace=wrap;html=1;fontFamily=Comic Sans MS;" parent="jJFGgtmmb8NNKWefRlXa-55" vertex="1">
          <mxGeometry y="150" width="300" height="30" as="geometry" />
        </mxCell>
        <mxCell id="jJFGgtmmb8NNKWefRlXa-63" value="packagingTransportationMethod 包装方式及运输" style="text;strokeColor=none;fillColor=none;align=left;verticalAlign=middle;spacingLeft=4;spacingRight=4;overflow=hidden;points=[[0,0.5],[1,0.5]];portConstraint=eastwest;rotatable=0;whiteSpace=wrap;html=1;fontFamily=Comic Sans MS;" parent="jJFGgtmmb8NNKWefRlXa-55" vertex="1">
          <mxGeometry y="180" width="300" height="30" as="geometry" />
        </mxCell>
        <mxCell id="jJFGgtmmb8NNKWefRlXa-62" value="productSaleProof 产品在售证明" style="text;strokeColor=none;fillColor=none;align=left;verticalAlign=middle;spacingLeft=4;spacingRight=4;overflow=hidden;points=[[0,0.5],[1,0.5]];portConstraint=eastwest;rotatable=0;whiteSpace=wrap;html=1;fontFamily=Comic Sans MS;" parent="jJFGgtmmb8NNKWefRlXa-55" vertex="1">
          <mxGeometry y="210" width="300" height="30" as="geometry" />
        </mxCell>
        <mxCell id="jJFGgtmmb8NNKWefRlXa-72" value="aftercare 售后服务" style="text;strokeColor=none;fillColor=none;align=left;verticalAlign=middle;spacingLeft=4;spacingRight=4;overflow=hidden;points=[[0,0.5],[1,0.5]];portConstraint=eastwest;rotatable=0;whiteSpace=wrap;html=1;fontFamily=Comic Sans MS;" parent="jJFGgtmmb8NNKWefRlXa-55" vertex="1">
          <mxGeometry y="240" width="300" height="30" as="geometry" />
        </mxCell>
        <mxCell id="jJFGgtmmb8NNKWefRlXa-71" value="qualityWarrantyScope 质量保修范围和保期" style="text;strokeColor=none;fillColor=none;align=left;verticalAlign=middle;spacingLeft=4;spacingRight=4;overflow=hidden;points=[[0,0.5],[1,0.5]];portConstraint=eastwest;rotatable=0;whiteSpace=wrap;html=1;fontFamily=Comic Sans MS;" parent="jJFGgtmmb8NNKWefRlXa-55" vertex="1">
          <mxGeometry y="270" width="300" height="30" as="geometry" />
        </mxCell>
        <mxCell id="jJFGgtmmb8NNKWefRlXa-70" value="contractLiability 违约责任" style="text;strokeColor=none;fillColor=none;align=left;verticalAlign=middle;spacingLeft=4;spacingRight=4;overflow=hidden;points=[[0,0.5],[1,0.5]];portConstraint=eastwest;rotatable=0;whiteSpace=wrap;html=1;fontFamily=Comic Sans MS;" parent="jJFGgtmmb8NNKWefRlXa-55" vertex="1">
          <mxGeometry y="300" width="300" height="30" as="geometry" />
        </mxCell>
        <mxCell id="jJFGgtmmb8NNKWefRlXa-69" value="resolveDisputes 解决争议的方式" style="text;strokeColor=none;fillColor=none;align=left;verticalAlign=middle;spacingLeft=4;spacingRight=4;overflow=hidden;points=[[0,0.5],[1,0.5]];portConstraint=eastwest;rotatable=0;whiteSpace=wrap;html=1;fontFamily=Comic Sans MS;" parent="jJFGgtmmb8NNKWefRlXa-55" vertex="1">
          <mxGeometry y="330" width="300" height="30" as="geometry" />
        </mxCell>
        <mxCell id="VYcQnqmnNoIjzm7rmO-Z-1" value="packagingTransportationMethod 包装方式及运输" style="text;strokeColor=none;fillColor=none;align=left;verticalAlign=middle;spacingLeft=4;spacingRight=4;overflow=hidden;points=[[0,0.5],[1,0.5]];portConstraint=eastwest;rotatable=0;whiteSpace=wrap;html=1;fontFamily=Comic Sans MS;" parent="jJFGgtmmb8NNKWefRlXa-55" vertex="1">
          <mxGeometry y="360" width="300" height="30" as="geometry" />
        </mxCell>
        <mxCell id="jJFGgtmmb8NNKWefRlXa-68" value="other 其他" style="text;strokeColor=none;fillColor=none;align=left;verticalAlign=middle;spacingLeft=4;spacingRight=4;overflow=hidden;points=[[0,0.5],[1,0.5]];portConstraint=eastwest;rotatable=0;whiteSpace=wrap;html=1;fontFamily=Comic Sans MS;" parent="jJFGgtmmb8NNKWefRlXa-55" vertex="1">
          <mxGeometry y="390" width="300" height="30" as="geometry" />
        </mxCell>
        <mxCell id="jJFGgtmmb8NNKWefRlXa-59" value="" style="endArrow=none;html=1;rounded=0;endFill=0;fontFamily=Comic Sans MS;" parent="1" source="uhuIzP3Es-dFqJNIFF9s-29" target="jJFGgtmmb8NNKWefRlXa-55" edge="1">
          <mxGeometry width="50" height="50" relative="1" as="geometry">
            <mxPoint x="460" y="860" as="sourcePoint" />
            <mxPoint x="510" y="810" as="targetPoint" />
          </mxGeometry>
        </mxCell>
        <mxCell id="uhuIzP3Es-dFqJNIFF9s-3" value="KcAgreementQuotationRequireDTO" style="swimlane;fontStyle=0;childLayout=stackLayout;horizontal=1;startSize=30;horizontalStack=0;resizeParent=1;resizeParentMax=0;resizeLast=0;collapsible=1;marginBottom=0;whiteSpace=wrap;html=1;fillColor=#fff2cc;strokeColor=#d6b656;fontFamily=Comic Sans MS;" parent="1" vertex="1">
          <mxGeometry x="680" y="1270" width="340" height="660" as="geometry">
            <mxRectangle x="70" y="50" width="60" height="30" as="alternateBounds" />
          </mxGeometry>
        </mxCell>
        <mxCell id="uhuIzP3Es-dFqJNIFF9s-4" value="String id" style="text;strokeColor=none;fillColor=none;align=left;verticalAlign=middle;spacingLeft=4;spacingRight=4;overflow=hidden;points=[[0,0.5],[1,0.5]];portConstraint=eastwest;rotatable=0;whiteSpace=wrap;html=1;labelBackgroundColor=default;fontFamily=Comic Sans MS;" parent="uhuIzP3Es-dFqJNIFF9s-3" vertex="1">
          <mxGeometry y="30" width="340" height="30" as="geometry" />
        </mxCell>
        <mxCell id="uhuIzP3Es-dFqJNIFF9s-5" value="String packageId" style="text;strokeColor=none;fillColor=none;align=left;verticalAlign=middle;spacingLeft=4;spacingRight=4;overflow=hidden;points=[[0,0.5],[1,0.5]];portConstraint=eastwest;rotatable=0;whiteSpace=wrap;html=1;labelBackgroundColor=default;textShadow=0;fontFamily=Comic Sans MS;" parent="uhuIzP3Es-dFqJNIFF9s-3" vertex="1">
          <mxGeometry y="60" width="340" height="30" as="geometry" />
        </mxCell>
        <mxCell id="uhuIzP3Es-dFqJNIFF9s-6" value="String catalogDetailId（标的）" style="text;strokeColor=none;fillColor=none;align=left;verticalAlign=middle;spacingLeft=4;spacingRight=4;overflow=hidden;points=[[0,0.5],[1,0.5]];portConstraint=eastwest;rotatable=0;whiteSpace=wrap;html=1;labelBackgroundColor=default;fontFamily=Comic Sans MS;" parent="uhuIzP3Es-dFqJNIFF9s-3" vertex="1">
          <mxGeometry y="90" width="340" height="30" as="geometry" />
        </mxCell>
        <mxCell id="uhuIzP3Es-dFqJNIFF9s-8" value="String catalogId（品目ID）" style="text;strokeColor=none;fillColor=none;align=left;verticalAlign=middle;spacingLeft=4;spacingRight=4;overflow=hidden;points=[[0,0.5],[1,0.5]];portConstraint=eastwest;rotatable=0;whiteSpace=wrap;html=1;labelBackgroundColor=default;fontFamily=Comic Sans MS;" parent="uhuIzP3Es-dFqJNIFF9s-3" vertex="1">
          <mxGeometry y="120" width="340" height="30" as="geometry" />
        </mxCell>
        <mxCell id="uhuIzP3Es-dFqJNIFF9s-9" value="String quotationDetailCorrelationId（标的明细表关联id）" style="text;strokeColor=none;fillColor=none;align=left;verticalAlign=middle;spacingLeft=4;spacingRight=4;overflow=hidden;points=[[0,0.5],[1,0.5]];portConstraint=eastwest;rotatable=0;whiteSpace=wrap;html=1;labelBackgroundColor=default;fontFamily=Comic Sans MS;" parent="uhuIzP3Es-dFqJNIFF9s-3" vertex="1">
          <mxGeometry y="150" width="340" height="30" as="geometry" />
        </mxCell>
        <mxCell id="uhuIzP3Es-dFqJNIFF9s-10" value="String paramId（服务要求ID）" style="text;strokeColor=none;fillColor=none;align=left;verticalAlign=middle;spacingLeft=4;spacingRight=4;overflow=hidden;points=[[0,0.5],[1,0.5]];portConstraint=eastwest;rotatable=0;whiteSpace=wrap;html=1;labelBackgroundColor=default;fontFamily=Comic Sans MS;" parent="uhuIzP3Es-dFqJNIFF9s-3" vertex="1">
          <mxGeometry y="180" width="340" height="30" as="geometry" />
        </mxCell>
        <mxCell id="uhuIzP3Es-dFqJNIFF9s-11" value="Integer sequence（排序）" style="text;strokeColor=none;fillColor=none;align=left;verticalAlign=middle;spacingLeft=4;spacingRight=4;overflow=hidden;points=[[0,0.5],[1,0.5]];portConstraint=eastwest;rotatable=0;whiteSpace=wrap;html=1;labelBackgroundColor=default;fontFamily=Comic Sans MS;" parent="uhuIzP3Es-dFqJNIFF9s-3" vertex="1">
          <mxGeometry y="210" width="340" height="30" as="geometry" />
        </mxCell>
        <mxCell id="uhuIzP3Es-dFqJNIFF9s-12" value="String bizTypeCode（环节编码）" style="text;strokeColor=none;fillColor=none;align=left;verticalAlign=middle;spacingLeft=4;spacingRight=4;overflow=hidden;points=[[0,0.5],[1,0.5]];portConstraint=eastwest;rotatable=0;whiteSpace=wrap;html=1;labelBackgroundColor=default;fontFamily=Comic Sans MS;" parent="uhuIzP3Es-dFqJNIFF9s-3" vertex="1">
          <mxGeometry y="240" width="340" height="30" as="geometry" />
        </mxCell>
        <mxCell id="uhuIzP3Es-dFqJNIFF9s-13" value="String bizTypeName（环节编码）" style="text;strokeColor=none;fillColor=none;align=left;verticalAlign=middle;spacingLeft=4;spacingRight=4;overflow=hidden;points=[[0,0.5],[1,0.5]];portConstraint=eastwest;rotatable=0;whiteSpace=wrap;html=1;labelBackgroundColor=default;fontFamily=Comic Sans MS;" parent="uhuIzP3Es-dFqJNIFF9s-3" vertex="1">
          <mxGeometry y="270" width="340" height="30" as="geometry" />
        </mxCell>
        <mxCell id="uhuIzP3Es-dFqJNIFF9s-21" value="String serviceName（服务要求名称）" style="text;strokeColor=none;fillColor=none;align=left;verticalAlign=middle;spacingLeft=4;spacingRight=4;overflow=hidden;points=[[0,0.5],[1,0.5]];portConstraint=eastwest;rotatable=0;whiteSpace=wrap;html=1;labelBackgroundColor=default;fontFamily=Comic Sans MS;" parent="uhuIzP3Es-dFqJNIFF9s-3" vertex="1">
          <mxGeometry y="300" width="340" height="30" as="geometry" />
        </mxCell>
        <mxCell id="uhuIzP3Es-dFqJNIFF9s-20" value="String priceMode（报价方式）" style="text;strokeColor=none;fillColor=none;align=left;verticalAlign=middle;spacingLeft=4;spacingRight=4;overflow=hidden;points=[[0,0.5],[1,0.5]];portConstraint=eastwest;rotatable=0;whiteSpace=wrap;html=1;labelBackgroundColor=default;fontFamily=Comic Sans MS;" parent="uhuIzP3Es-dFqJNIFF9s-3" vertex="1">
          <mxGeometry y="330" width="340" height="30" as="geometry" />
        </mxCell>
        <mxCell id="uhuIzP3Es-dFqJNIFF9s-19" value="String priceModeName（报价方式）" style="text;strokeColor=none;fillColor=none;align=left;verticalAlign=middle;spacingLeft=4;spacingRight=4;overflow=hidden;points=[[0,0.5],[1,0.5]];portConstraint=eastwest;rotatable=0;whiteSpace=wrap;html=1;labelBackgroundColor=default;fontFamily=Comic Sans MS;" parent="uhuIzP3Es-dFqJNIFF9s-3" vertex="1">
          <mxGeometry y="360" width="340" height="30" as="geometry" />
        </mxCell>
        <mxCell id="uhuIzP3Es-dFqJNIFF9s-18" value="String priceUnit（计量单位）" style="text;strokeColor=none;fillColor=none;align=left;verticalAlign=middle;spacingLeft=4;spacingRight=4;overflow=hidden;points=[[0,0.5],[1,0.5]];portConstraint=eastwest;rotatable=0;whiteSpace=wrap;html=1;labelBackgroundColor=default;fontFamily=Comic Sans MS;" parent="uhuIzP3Es-dFqJNIFF9s-3" vertex="1">
          <mxGeometry y="390" width="340" height="30" as="geometry" />
        </mxCell>
        <mxCell id="uhuIzP3Es-dFqJNIFF9s-17" value="Integer priceUnitCustomStatus（是否自定义单位）" style="text;strokeColor=none;fillColor=none;align=left;verticalAlign=middle;spacingLeft=4;spacingRight=4;overflow=hidden;points=[[0,0.5],[1,0.5]];portConstraint=eastwest;rotatable=0;whiteSpace=wrap;html=1;labelBackgroundColor=default;fontFamily=Comic Sans MS;" parent="uhuIzP3Es-dFqJNIFF9s-3" vertex="1">
          <mxGeometry y="420" width="340" height="30" as="geometry" />
        </mxCell>
        <mxCell id="uhuIzP3Es-dFqJNIFF9s-16" value="String priceUnitCustomName（自定义单位名称）" style="text;strokeColor=none;fillColor=none;align=left;verticalAlign=middle;spacingLeft=4;spacingRight=4;overflow=hidden;points=[[0,0.5],[1,0.5]];portConstraint=eastwest;rotatable=0;whiteSpace=wrap;html=1;labelBackgroundColor=default;fontFamily=Comic Sans MS;" parent="uhuIzP3Es-dFqJNIFF9s-3" vertex="1">
          <mxGeometry y="450" width="340" height="30" as="geometry" />
        </mxCell>
        <mxCell id="uhuIzP3Es-dFqJNIFF9s-15" value="Integer priceModeCustomStatus（是否自定义报价）" style="text;strokeColor=none;fillColor=none;align=left;verticalAlign=middle;spacingLeft=4;spacingRight=4;overflow=hidden;points=[[0,0.5],[1,0.5]];portConstraint=eastwest;rotatable=0;whiteSpace=wrap;html=1;labelBackgroundColor=default;fontFamily=Comic Sans MS;" parent="uhuIzP3Es-dFqJNIFF9s-3" vertex="1">
          <mxGeometry y="480" width="340" height="30" as="geometry" />
        </mxCell>
        <mxCell id="uhuIzP3Es-dFqJNIFF9s-28" value="Integer priceLimitType（最高限价区间/固定报价）" style="text;strokeColor=none;fillColor=none;align=left;verticalAlign=middle;spacingLeft=4;spacingRight=4;overflow=hidden;points=[[0,0.5],[1,0.5]];portConstraint=eastwest;rotatable=0;whiteSpace=wrap;html=1;labelBackgroundColor=default;fontFamily=Comic Sans MS;" parent="uhuIzP3Es-dFqJNIFF9s-3" vertex="1">
          <mxGeometry y="510" width="340" height="30" as="geometry" />
        </mxCell>
        <mxCell id="uhuIzP3Es-dFqJNIFF9s-27" value="BigDecimal priceLimit（最高限价/固定报价）" style="text;strokeColor=none;fillColor=none;align=left;verticalAlign=middle;spacingLeft=4;spacingRight=4;overflow=hidden;points=[[0,0.5],[1,0.5]];portConstraint=eastwest;rotatable=0;whiteSpace=wrap;html=1;labelBackgroundColor=default;fontFamily=Comic Sans MS;" parent="uhuIzP3Es-dFqJNIFF9s-3" vertex="1">
          <mxGeometry y="540" width="340" height="30" as="geometry" />
        </mxCell>
        <mxCell id="uhuIzP3Es-dFqJNIFF9s-26" value="BigDecimal priceLimitMin（最高限价下限）" style="text;strokeColor=none;fillColor=none;align=left;verticalAlign=middle;spacingLeft=4;spacingRight=4;overflow=hidden;points=[[0,0.5],[1,0.5]];portConstraint=eastwest;rotatable=0;whiteSpace=wrap;html=1;labelBackgroundColor=default;fontFamily=Comic Sans MS;" parent="uhuIzP3Es-dFqJNIFF9s-3" vertex="1">
          <mxGeometry y="570" width="340" height="30" as="geometry" />
        </mxCell>
        <mxCell id="uhuIzP3Es-dFqJNIFF9s-25" value="BigDecimal priceLimitMax（最高限价上限）" style="text;strokeColor=none;fillColor=none;align=left;verticalAlign=middle;spacingLeft=4;spacingRight=4;overflow=hidden;points=[[0,0.5],[1,0.5]];portConstraint=eastwest;rotatable=0;whiteSpace=wrap;html=1;labelBackgroundColor=default;fontFamily=Comic Sans MS;" parent="uhuIzP3Es-dFqJNIFF9s-3" vertex="1">
          <mxGeometry y="600" width="340" height="30" as="geometry" />
        </mxCell>
        <mxCell id="uhuIzP3Es-dFqJNIFF9s-23" value="BigDecimal priceWeight（价格权重）" style="text;strokeColor=none;fillColor=none;align=left;verticalAlign=middle;spacingLeft=4;spacingRight=4;overflow=hidden;points=[[0,0.5],[1,0.5]];portConstraint=eastwest;rotatable=0;whiteSpace=wrap;html=1;labelBackgroundColor=default;fontFamily=Comic Sans MS;" parent="uhuIzP3Es-dFqJNIFF9s-3" vertex="1">
          <mxGeometry y="630" width="340" height="30" as="geometry" />
        </mxCell>
        <mxCell id="uhuIzP3Es-dFqJNIFF9s-14" value="" style="endArrow=classic;html=1;rounded=0;entryX=0;entryY=0.5;entryDx=0;entryDy=0;exitX=1;exitY=0.5;exitDx=0;exitDy=0;fontFamily=Comic Sans MS;" parent="1" source="m__d6OJdyXCMt7KyZCjO-48" target="-4W3cBTythjbGOp8FqpT-1" edge="1">
          <mxGeometry width="50" height="50" relative="1" as="geometry">
            <mxPoint x="1120" y="-800" as="sourcePoint" />
            <mxPoint x="1530" y="-435" as="targetPoint" />
          </mxGeometry>
        </mxCell>
        <mxCell id="uhuIzP3Es-dFqJNIFF9s-29" value="KcAgreementBusinessClasueDTO" style="swimlane;fontStyle=0;childLayout=stackLayout;horizontal=1;startSize=30;horizontalStack=0;resizeParent=1;resizeParentMax=0;resizeLast=0;collapsible=1;marginBottom=0;whiteSpace=wrap;html=1;fillColor=#fff2cc;strokeColor=#d6b656;fontFamily=Comic Sans MS;" parent="1" vertex="1">
          <mxGeometry x="670" y="910" width="380" height="290" as="geometry" />
        </mxCell>
        <mxCell id="uhuIzP3Es-dFqJNIFF9s-30" value="String id" style="text;strokeColor=none;fillColor=none;align=left;verticalAlign=middle;spacingLeft=4;spacingRight=4;overflow=hidden;points=[[0,0.5],[1,0.5]];portConstraint=eastwest;rotatable=0;whiteSpace=wrap;html=1;fontFamily=Comic Sans MS;" parent="uhuIzP3Es-dFqJNIFF9s-29" vertex="1">
          <mxGeometry y="30" width="380" height="30" as="geometry" />
        </mxCell>
        <mxCell id="uhuIzP3Es-dFqJNIFF9s-31" value="Integer parameterStar（参数标识）" style="text;strokeColor=none;fillColor=none;align=left;verticalAlign=middle;spacingLeft=4;spacingRight=4;overflow=hidden;points=[[0,0.5],[1,0.5]];portConstraint=eastwest;rotatable=0;whiteSpace=wrap;html=1;fontFamily=Comic Sans MS;" parent="uhuIzP3Es-dFqJNIFF9s-29" vertex="1">
          <mxGeometry y="60" width="380" height="30" as="geometry" />
        </mxCell>
        <mxCell id="uhuIzP3Es-dFqJNIFF9s-32" value="String parameterStarIcon（参数标识符号）" style="text;strokeColor=none;fillColor=none;align=left;verticalAlign=middle;spacingLeft=4;spacingRight=4;overflow=hidden;points=[[0,0.5],[1,0.5]];portConstraint=eastwest;rotatable=0;whiteSpace=wrap;html=1;fontFamily=Comic Sans MS;" parent="uhuIzP3Es-dFqJNIFF9s-29" vertex="1">
          <mxGeometry y="90" width="380" height="30" as="geometry" />
        </mxCell>
        <mxCell id="uhuIzP3Es-dFqJNIFF9s-33" value="Integer sequence（排序）" style="text;strokeColor=none;fillColor=none;align=left;verticalAlign=middle;spacingLeft=4;spacingRight=4;overflow=hidden;points=[[0,0.5],[1,0.5]];portConstraint=eastwest;rotatable=0;whiteSpace=wrap;html=1;fontFamily=Comic Sans MS;" parent="uhuIzP3Es-dFqJNIFF9s-29" vertex="1">
          <mxGeometry y="120" width="380" height="30" as="geometry" />
        </mxCell>
        <mxCell id="uhuIzP3Es-dFqJNIFF9s-34" value="String extTypeCode（key）" style="text;strokeColor=none;fillColor=none;align=left;verticalAlign=middle;spacingLeft=4;spacingRight=4;overflow=hidden;points=[[0,0.5],[1,0.5]];portConstraint=eastwest;rotatable=0;whiteSpace=wrap;html=1;fontFamily=Comic Sans MS;" parent="uhuIzP3Es-dFqJNIFF9s-29" vertex="1">
          <mxGeometry y="150" width="380" height="30" as="geometry" />
        </mxCell>
        <mxCell id="uhuIzP3Es-dFqJNIFF9s-36" value="String extTypeName（key_name）" style="text;strokeColor=none;fillColor=none;align=left;verticalAlign=middle;spacingLeft=4;spacingRight=4;overflow=hidden;points=[[0,0.5],[1,0.5]];portConstraint=eastwest;rotatable=0;whiteSpace=wrap;html=1;fontFamily=Comic Sans MS;" parent="uhuIzP3Es-dFqJNIFF9s-29" vertex="1">
          <mxGeometry y="180" width="380" height="30" as="geometry" />
        </mxCell>
        <mxCell id="uhuIzP3Es-dFqJNIFF9s-38" value="String extValue（value）" style="text;strokeColor=none;fillColor=none;align=left;verticalAlign=middle;spacingLeft=4;spacingRight=4;overflow=hidden;points=[[0,0.5],[1,0.5]];portConstraint=eastwest;rotatable=0;whiteSpace=wrap;html=1;fontFamily=Comic Sans MS;" parent="uhuIzP3Es-dFqJNIFF9s-29" vertex="1">
          <mxGeometry y="210" width="380" height="30" as="geometry" />
        </mxCell>
        <mxCell id="VYcQnqmnNoIjzm7rmO-Z-3" value="String extTypeValue（value的编码，例如一次付清对应的code=1）" style="text;strokeColor=none;fillColor=none;align=left;verticalAlign=middle;spacingLeft=4;spacingRight=4;overflow=hidden;points=[[0,0.5],[1,0.5]];portConstraint=eastwest;rotatable=0;whiteSpace=wrap;html=1;fontFamily=Comic Sans MS;" parent="uhuIzP3Es-dFqJNIFF9s-29" vertex="1">
          <mxGeometry y="240" width="380" height="50" as="geometry" />
        </mxCell>
        <mxCell id="uhuIzP3Es-dFqJNIFF9s-42" value="" style="endArrow=classic;html=1;rounded=0;entryX=0;entryY=0.5;entryDx=0;entryDy=0;exitX=1;exitY=0.5;exitDx=0;exitDy=0;fontFamily=Comic Sans MS;" parent="1" target="uhuIzP3Es-dFqJNIFF9s-33" edge="1">
          <mxGeometry width="50" height="50" relative="1" as="geometry">
            <mxPoint x="150" y="795" as="sourcePoint" />
            <mxPoint x="-160" y="1948" as="targetPoint" />
          </mxGeometry>
        </mxCell>
        <mxCell id="VYcQnqmnNoIjzm7rmO-Z-8" value="KcAgreementProjectAcquisitionDTO" style="swimlane;fontStyle=0;childLayout=stackLayout;horizontal=1;startSize=30;horizontalStack=0;resizeParent=1;resizeParentMax=0;resizeLast=0;collapsible=1;marginBottom=0;whiteSpace=wrap;html=1;fillColor=#fff2cc;strokeColor=#d6b656;fontFamily=Comic Sans MS;" parent="1" vertex="1">
          <mxGeometry x="660" y="460" width="340" height="360" as="geometry">
            <mxRectangle x="70" y="50" width="60" height="30" as="alternateBounds" />
          </mxGeometry>
        </mxCell>
        <mxCell id="VYcQnqmnNoIjzm7rmO-Z-9" value="String acquisitionName （征集区划或单位名称）" style="text;strokeColor=none;fillColor=none;align=left;verticalAlign=middle;spacingLeft=4;spacingRight=4;overflow=hidden;points=[[0,0.5],[1,0.5]];portConstraint=eastwest;rotatable=0;whiteSpace=wrap;html=1;labelBackgroundColor=default;fontFamily=Comic Sans MS;" parent="VYcQnqmnNoIjzm7rmO-Z-8" vertex="1">
          <mxGeometry y="30" width="340" height="30" as="geometry" />
        </mxCell>
        <mxCell id="VYcQnqmnNoIjzm7rmO-Z-10" value="String packageId" style="text;strokeColor=none;fillColor=none;align=left;verticalAlign=middle;spacingLeft=4;spacingRight=4;overflow=hidden;points=[[0,0.5],[1,0.5]];portConstraint=eastwest;rotatable=0;whiteSpace=wrap;html=1;labelBackgroundColor=default;textShadow=0;fontFamily=Comic Sans MS;" parent="VYcQnqmnNoIjzm7rmO-Z-8" vertex="1">
          <mxGeometry y="60" width="340" height="30" as="geometry" />
        </mxCell>
        <mxCell id="VYcQnqmnNoIjzm7rmO-Z-11" value="String buyerOrgZoneCode（采购单位所属区划编码）" style="text;strokeColor=none;fillColor=none;align=left;verticalAlign=middle;spacingLeft=4;spacingRight=4;overflow=hidden;points=[[0,0.5],[1,0.5]];portConstraint=eastwest;rotatable=0;whiteSpace=wrap;html=1;labelBackgroundColor=default;fontFamily=Comic Sans MS;" parent="VYcQnqmnNoIjzm7rmO-Z-8" vertex="1">
          <mxGeometry y="90" width="340" height="30" as="geometry" />
        </mxCell>
        <mxCell id="VYcQnqmnNoIjzm7rmO-Z-12" value="String buyerOrgZoneName（采购单位所属区划名称）" style="text;strokeColor=none;fillColor=none;align=left;verticalAlign=middle;spacingLeft=4;spacingRight=4;overflow=hidden;points=[[0,0.5],[1,0.5]];portConstraint=eastwest;rotatable=0;whiteSpace=wrap;html=1;labelBackgroundColor=default;fontFamily=Comic Sans MS;" parent="VYcQnqmnNoIjzm7rmO-Z-8" vertex="1">
          <mxGeometry y="120" width="340" height="30" as="geometry" />
        </mxCell>
        <mxCell id="VYcQnqmnNoIjzm7rmO-Z-13" value="String buyerOrgAddress（采购单位地址）" style="text;strokeColor=none;fillColor=none;align=left;verticalAlign=middle;spacingLeft=4;spacingRight=4;overflow=hidden;points=[[0,0.5],[1,0.5]];portConstraint=eastwest;rotatable=0;whiteSpace=wrap;html=1;labelBackgroundColor=default;fontFamily=Comic Sans MS;" parent="VYcQnqmnNoIjzm7rmO-Z-8" vertex="1">
          <mxGeometry y="150" width="340" height="30" as="geometry" />
        </mxCell>
        <mxCell id="VYcQnqmnNoIjzm7rmO-Z-14" value="String buyerOrgTel（采购单位联系方式）" style="text;strokeColor=none;fillColor=none;align=left;verticalAlign=middle;spacingLeft=4;spacingRight=4;overflow=hidden;points=[[0,0.5],[1,0.5]];portConstraint=eastwest;rotatable=0;whiteSpace=wrap;html=1;labelBackgroundColor=default;fontFamily=Comic Sans MS;" parent="VYcQnqmnNoIjzm7rmO-Z-8" vertex="1">
          <mxGeometry y="180" width="340" height="30" as="geometry" />
        </mxCell>
        <mxCell id="VYcQnqmnNoIjzm7rmO-Z-15" value="String acquisitionOrgId（委托征集单位id）" style="text;strokeColor=none;fillColor=none;align=left;verticalAlign=middle;spacingLeft=4;spacingRight=4;overflow=hidden;points=[[0,0.5],[1,0.5]];portConstraint=eastwest;rotatable=0;whiteSpace=wrap;html=1;labelBackgroundColor=default;fontFamily=Comic Sans MS;" parent="VYcQnqmnNoIjzm7rmO-Z-8" vertex="1">
          <mxGeometry y="210" width="340" height="30" as="geometry" />
        </mxCell>
        <mxCell id="VYcQnqmnNoIjzm7rmO-Z-16" value="Integer acquisitionOrgName（委托征集单位名称）" style="text;strokeColor=none;fillColor=none;align=left;verticalAlign=middle;spacingLeft=4;spacingRight=4;overflow=hidden;points=[[0,0.5],[1,0.5]];portConstraint=eastwest;rotatable=0;whiteSpace=wrap;html=1;labelBackgroundColor=default;fontFamily=Comic Sans MS;" parent="VYcQnqmnNoIjzm7rmO-Z-8" vertex="1">
          <mxGeometry y="240" width="340" height="30" as="geometry" />
        </mxCell>
        <mxCell id="VYcQnqmnNoIjzm7rmO-Z-17" value="String acquisitionOrgCode（委托征集单位编码）" style="text;strokeColor=none;fillColor=none;align=left;verticalAlign=middle;spacingLeft=4;spacingRight=4;overflow=hidden;points=[[0,0.5],[1,0.5]];portConstraint=eastwest;rotatable=0;whiteSpace=wrap;html=1;labelBackgroundColor=default;fontFamily=Comic Sans MS;" parent="VYcQnqmnNoIjzm7rmO-Z-8" vertex="1">
          <mxGeometry y="270" width="340" height="30" as="geometry" />
        </mxCell>
        <mxCell id="VYcQnqmnNoIjzm7rmO-Z-18" value="String acquisitionTypeCode（征集类型）" style="text;strokeColor=none;fillColor=none;align=left;verticalAlign=middle;spacingLeft=4;spacingRight=4;overflow=hidden;points=[[0,0.5],[1,0.5]];portConstraint=eastwest;rotatable=0;whiteSpace=wrap;html=1;labelBackgroundColor=default;fontFamily=Comic Sans MS;" parent="VYcQnqmnNoIjzm7rmO-Z-8" vertex="1">
          <mxGeometry y="300" width="340" height="30" as="geometry" />
        </mxCell>
        <mxCell id="VYcQnqmnNoIjzm7rmO-Z-19" value="String acquisitionTypeName（征集类型）" style="text;strokeColor=none;fillColor=none;align=left;verticalAlign=middle;spacingLeft=4;spacingRight=4;overflow=hidden;points=[[0,0.5],[1,0.5]];portConstraint=eastwest;rotatable=0;whiteSpace=wrap;html=1;labelBackgroundColor=default;fontFamily=Comic Sans MS;" parent="VYcQnqmnNoIjzm7rmO-Z-8" vertex="1">
          <mxGeometry y="330" width="340" height="30" as="geometry" />
        </mxCell>
        <mxCell id="VYcQnqmnNoIjzm7rmO-Z-33" value="KcAgreementDiscountDTO" style="swimlane;fontStyle=0;childLayout=stackLayout;horizontal=1;startSize=30;horizontalStack=0;resizeParent=1;resizeParentMax=0;resizeLast=0;collapsible=1;marginBottom=0;whiteSpace=wrap;html=1;fillColor=#fff2cc;strokeColor=#d6b656;fontFamily=Comic Sans MS;" parent="1" vertex="1">
          <mxGeometry x="1642" y="-640" width="340" height="240" as="geometry">
            <mxRectangle x="70" y="50" width="60" height="30" as="alternateBounds" />
          </mxGeometry>
        </mxCell>
        <mxCell id="VYcQnqmnNoIjzm7rmO-Z-36" value="String packageId" style="text;strokeColor=none;fillColor=none;align=left;verticalAlign=middle;spacingLeft=4;spacingRight=4;overflow=hidden;points=[[0,0.5],[1,0.5]];portConstraint=eastwest;rotatable=0;whiteSpace=wrap;html=1;labelBackgroundColor=default;textShadow=0;fontFamily=Comic Sans MS;" parent="VYcQnqmnNoIjzm7rmO-Z-33" vertex="1">
          <mxGeometry y="30" width="340" height="30" as="geometry" />
        </mxCell>
        <mxCell id="VYcQnqmnNoIjzm7rmO-Z-37" value="String catalogDetailId" style="text;strokeColor=none;fillColor=none;align=left;verticalAlign=middle;spacingLeft=4;spacingRight=4;overflow=hidden;points=[[0,0.5],[1,0.5]];portConstraint=eastwest;rotatable=0;whiteSpace=wrap;html=1;labelBackgroundColor=default;fontFamily=Comic Sans MS;" parent="VYcQnqmnNoIjzm7rmO-Z-33" vertex="1">
          <mxGeometry y="60" width="340" height="30" as="geometry" />
        </mxCell>
        <mxCell id="VYcQnqmnNoIjzm7rmO-Z-39" value="BigDecimal numMax （成交数量上限）" style="text;strokeColor=none;fillColor=none;align=left;verticalAlign=middle;spacingLeft=4;spacingRight=4;overflow=hidden;points=[[0,0.5],[1,0.5]];portConstraint=eastwest;rotatable=0;whiteSpace=wrap;html=1;labelBackgroundColor=default;fontFamily=Comic Sans MS;" parent="VYcQnqmnNoIjzm7rmO-Z-33" vertex="1">
          <mxGeometry y="90" width="340" height="30" as="geometry" />
        </mxCell>
        <mxCell id="VYcQnqmnNoIjzm7rmO-Z-40" value="BigDecimal numMin （成交数量下限）" style="text;strokeColor=none;fillColor=none;align=left;verticalAlign=middle;spacingLeft=4;spacingRight=4;overflow=hidden;points=[[0,0.5],[1,0.5]];portConstraint=eastwest;rotatable=0;whiteSpace=wrap;html=1;labelBackgroundColor=default;fontFamily=Comic Sans MS;" parent="VYcQnqmnNoIjzm7rmO-Z-33" vertex="1">
          <mxGeometry y="120" width="340" height="30" as="geometry" />
        </mxCell>
        <mxCell id="VYcQnqmnNoIjzm7rmO-Z-41" value="&lt;div align=&quot;left&quot;&gt;&lt;font&gt;BigDecimal discountRate &lt;/font&gt;（折扣率）&lt;/div&gt;（）" style="text;strokeColor=none;fillColor=none;align=left;verticalAlign=middle;spacingLeft=4;spacingRight=4;overflow=hidden;points=[[0,0.5],[1,0.5]];portConstraint=eastwest;rotatable=0;whiteSpace=wrap;html=1;labelBackgroundColor=default;fontFamily=Comic Sans MS;" parent="VYcQnqmnNoIjzm7rmO-Z-33" vertex="1">
          <mxGeometry y="150" width="340" height="30" as="geometry" />
        </mxCell>
        <mxCell id="VYcQnqmnNoIjzm7rmO-Z-45" value="String upperLimitType （区间上限类型）" style="text;strokeColor=none;fillColor=none;align=left;verticalAlign=middle;spacingLeft=4;spacingRight=4;overflow=hidden;points=[[0,0.5],[1,0.5]];portConstraint=eastwest;rotatable=0;whiteSpace=wrap;html=1;labelBackgroundColor=default;fontFamily=Comic Sans MS;" parent="VYcQnqmnNoIjzm7rmO-Z-33" vertex="1">
          <mxGeometry y="180" width="340" height="30" as="geometry" />
        </mxCell>
        <mxCell id="VYcQnqmnNoIjzm7rmO-Z-46" value="String lowerLimitType （区间下限类型）" style="text;strokeColor=none;fillColor=none;align=left;verticalAlign=middle;spacingLeft=4;spacingRight=4;overflow=hidden;points=[[0,0.5],[1,0.5]];portConstraint=eastwest;rotatable=0;whiteSpace=wrap;html=1;labelBackgroundColor=default;fontFamily=Comic Sans MS;" parent="VYcQnqmnNoIjzm7rmO-Z-33" vertex="1">
          <mxGeometry y="210" width="340" height="30" as="geometry" />
        </mxCell>
        <mxCell id="VYcQnqmnNoIjzm7rmO-Z-48" value="" style="endArrow=classic;html=1;rounded=0;entryX=0;entryY=0.5;entryDx=0;entryDy=0;fontFamily=Comic Sans MS;exitX=1;exitY=0.5;exitDx=0;exitDy=0;" parent="1" source="m__d6OJdyXCMt7KyZCjO-48" target="VYcQnqmnNoIjzm7rmO-Z-39" edge="1">
          <mxGeometry width="50" height="50" relative="1" as="geometry">
            <mxPoint x="1250" y="-1728" as="sourcePoint" />
            <mxPoint x="1529.9999999999995" y="165" as="targetPoint" />
          </mxGeometry>
        </mxCell>
        <mxCell id="PbJelDRNLOMwJ_flGZEq-1" value="KcAgreementSupplierQuotationDetailDTO" style="swimlane;fontStyle=0;childLayout=stackLayout;horizontal=1;startSize=30;horizontalStack=0;resizeParent=1;resizeParentMax=0;resizeLast=0;collapsible=1;marginBottom=0;whiteSpace=wrap;html=1;fillColor=#fff2cc;strokeColor=#d6b656;fontFamily=Comic Sans MS;" vertex="1" parent="1">
          <mxGeometry x="-1510" y="1320" width="550" height="1290" as="geometry">
            <mxRectangle x="70" y="50" width="60" height="30" as="alternateBounds" />
          </mxGeometry>
        </mxCell>
        <mxCell id="PbJelDRNLOMwJ_flGZEq-2" value="String id" style="text;strokeColor=none;fillColor=none;align=left;verticalAlign=middle;spacingLeft=4;spacingRight=4;overflow=hidden;points=[[0,0.5],[1,0.5]];portConstraint=eastwest;rotatable=0;whiteSpace=wrap;html=1;labelBackgroundColor=default;fontFamily=Comic Sans MS;" vertex="1" parent="PbJelDRNLOMwJ_flGZEq-1">
          <mxGeometry y="30" width="550" height="30" as="geometry" />
        </mxCell>
        <mxCell id="PbJelDRNLOMwJ_flGZEq-3" value="String packageId" style="text;strokeColor=none;fillColor=none;align=left;verticalAlign=middle;spacingLeft=4;spacingRight=4;overflow=hidden;points=[[0,0.5],[1,0.5]];portConstraint=eastwest;rotatable=0;whiteSpace=wrap;html=1;labelBackgroundColor=default;textShadow=0;fontFamily=Comic Sans MS;" vertex="1" parent="PbJelDRNLOMwJ_flGZEq-1">
          <mxGeometry y="60" width="550" height="30" as="geometry" />
        </mxCell>
        <mxCell id="PbJelDRNLOMwJ_flGZEq-4" value="String catalogDetailId（）" style="text;strokeColor=none;fillColor=none;align=left;verticalAlign=middle;spacingLeft=4;spacingRight=4;overflow=hidden;points=[[0,0.5],[1,0.5]];portConstraint=eastwest;rotatable=0;whiteSpace=wrap;html=1;labelBackgroundColor=default;fontFamily=Comic Sans MS;" vertex="1" parent="PbJelDRNLOMwJ_flGZEq-1">
          <mxGeometry y="90" width="550" height="30" as="geometry" />
        </mxCell>
        <mxCell id="PbJelDRNLOMwJ_flGZEq-5" value="String mainCatalogueId（）" style="text;strokeColor=none;fillColor=none;align=left;verticalAlign=middle;spacingLeft=4;spacingRight=4;overflow=hidden;points=[[0,0.5],[1,0.5]];portConstraint=eastwest;rotatable=0;whiteSpace=wrap;html=1;labelBackgroundColor=default;fontFamily=Comic Sans MS;" vertex="1" parent="PbJelDRNLOMwJ_flGZEq-1">
          <mxGeometry y="120" width="550" height="30" as="geometry" />
        </mxCell>
        <mxCell id="PbJelDRNLOMwJ_flGZEq-6" value="Integer demandClassifyCode（）" style="text;strokeColor=none;fillColor=none;align=left;verticalAlign=middle;spacingLeft=4;spacingRight=4;overflow=hidden;points=[[0,0.5],[1,0.5]];portConstraint=eastwest;rotatable=0;whiteSpace=wrap;html=1;labelBackgroundColor=default;fontFamily=Comic Sans MS;" vertex="1" parent="PbJelDRNLOMwJ_flGZEq-1">
          <mxGeometry y="150" width="550" height="30" as="geometry" />
        </mxCell>
        <mxCell id="PbJelDRNLOMwJ_flGZEq-7" value="String responseGoodsId（）" style="text;strokeColor=none;fillColor=none;align=left;verticalAlign=middle;spacingLeft=4;spacingRight=4;overflow=hidden;points=[[0,0.5],[1,0.5]];portConstraint=eastwest;rotatable=0;whiteSpace=wrap;html=1;labelBackgroundColor=default;fontFamily=Comic Sans MS;" vertex="1" parent="PbJelDRNLOMwJ_flGZEq-1">
          <mxGeometry y="180" width="550" height="30" as="geometry" />
        </mxCell>
        <mxCell id="PbJelDRNLOMwJ_flGZEq-8" value="String responseGoodsName（）" style="text;strokeColor=none;fillColor=none;align=left;verticalAlign=middle;spacingLeft=4;spacingRight=4;overflow=hidden;points=[[0,0.5],[1,0.5]];portConstraint=eastwest;rotatable=0;whiteSpace=wrap;html=1;labelBackgroundColor=default;fontFamily=Comic Sans MS;" vertex="1" parent="PbJelDRNLOMwJ_flGZEq-1">
          <mxGeometry y="210" width="550" height="30" as="geometry" />
        </mxCell>
        <mxCell id="PbJelDRNLOMwJ_flGZEq-9" value="String responseGoodsDesc（）" style="text;strokeColor=none;fillColor=none;align=left;verticalAlign=middle;spacingLeft=4;spacingRight=4;overflow=hidden;points=[[0,0.5],[1,0.5]];portConstraint=eastwest;rotatable=0;whiteSpace=wrap;html=1;labelBackgroundColor=default;fontFamily=Comic Sans MS;" vertex="1" parent="PbJelDRNLOMwJ_flGZEq-1">
          <mxGeometry y="240" width="550" height="30" as="geometry" />
        </mxCell>
        <mxCell id="PbJelDRNLOMwJ_flGZEq-10" value="String supplierId（）" style="text;strokeColor=none;fillColor=none;align=left;verticalAlign=middle;spacingLeft=4;spacingRight=4;overflow=hidden;points=[[0,0.5],[1,0.5]];portConstraint=eastwest;rotatable=0;whiteSpace=wrap;html=1;labelBackgroundColor=default;fontFamily=Comic Sans MS;" vertex="1" parent="PbJelDRNLOMwJ_flGZEq-1">
          <mxGeometry y="270" width="550" height="30" as="geometry" />
        </mxCell>
        <mxCell id="PbJelDRNLOMwJ_flGZEq-11" value="String supplierName（）" style="text;strokeColor=none;fillColor=none;align=left;verticalAlign=middle;spacingLeft=4;spacingRight=4;overflow=hidden;points=[[0,0.5],[1,0.5]];portConstraint=eastwest;rotatable=0;whiteSpace=wrap;html=1;labelBackgroundColor=default;fontFamily=Comic Sans MS;" vertex="1" parent="PbJelDRNLOMwJ_flGZEq-1">
          <mxGeometry y="300" width="550" height="30" as="geometry" />
        </mxCell>
        <mxCell id="PbJelDRNLOMwJ_flGZEq-12" value="String detailName（）" style="text;strokeColor=none;fillColor=none;align=left;verticalAlign=middle;spacingLeft=4;spacingRight=4;overflow=hidden;points=[[0,0.5],[1,0.5]];portConstraint=eastwest;rotatable=0;whiteSpace=wrap;html=1;labelBackgroundColor=default;fontFamily=Comic Sans MS;" vertex="1" parent="PbJelDRNLOMwJ_flGZEq-1">
          <mxGeometry y="330" width="550" height="30" as="geometry" />
        </mxCell>
        <mxCell id="PbJelDRNLOMwJ_flGZEq-13" value="String productOrigin（）" style="text;strokeColor=none;fillColor=none;align=left;verticalAlign=middle;spacingLeft=4;spacingRight=4;overflow=hidden;points=[[0,0.5],[1,0.5]];portConstraint=eastwest;rotatable=0;whiteSpace=wrap;html=1;labelBackgroundColor=default;fontFamily=Comic Sans MS;" vertex="1" parent="PbJelDRNLOMwJ_flGZEq-1">
          <mxGeometry y="360" width="550" height="30" as="geometry" />
        </mxCell>
        <mxCell id="PbJelDRNLOMwJ_flGZEq-14" value="String modelSpecification（）" style="text;strokeColor=none;fillColor=none;align=left;verticalAlign=middle;spacingLeft=4;spacingRight=4;overflow=hidden;points=[[0,0.5],[1,0.5]];portConstraint=eastwest;rotatable=0;whiteSpace=wrap;html=1;labelBackgroundColor=default;fontFamily=Comic Sans MS;" vertex="1" parent="PbJelDRNLOMwJ_flGZEq-1">
          <mxGeometry y="390" width="550" height="30" as="geometry" />
        </mxCell>
        <mxCell id="PbJelDRNLOMwJ_flGZEq-15" value="String producer（）" style="text;strokeColor=none;fillColor=none;align=left;verticalAlign=middle;spacingLeft=4;spacingRight=4;overflow=hidden;points=[[0,0.5],[1,0.5]];portConstraint=eastwest;rotatable=0;whiteSpace=wrap;html=1;labelBackgroundColor=default;fontFamily=Comic Sans MS;" vertex="1" parent="PbJelDRNLOMwJ_flGZEq-1">
          <mxGeometry y="420" width="550" height="30" as="geometry" />
        </mxCell>
        <mxCell id="PbJelDRNLOMwJ_flGZEq-16" value="String brandName（）" style="text;strokeColor=none;fillColor=none;align=left;verticalAlign=middle;spacingLeft=4;spacingRight=4;overflow=hidden;points=[[0,0.5],[1,0.5]];portConstraint=eastwest;rotatable=0;whiteSpace=wrap;html=1;labelBackgroundColor=default;fontFamily=Comic Sans MS;" vertex="1" parent="PbJelDRNLOMwJ_flGZEq-1">
          <mxGeometry y="450" width="550" height="30" as="geometry" />
        </mxCell>
        <mxCell id="PbJelDRNLOMwJ_flGZEq-17" value="String serviceScope（）" style="text;strokeColor=none;fillColor=none;align=left;verticalAlign=middle;spacingLeft=4;spacingRight=4;overflow=hidden;points=[[0,0.5],[1,0.5]];portConstraint=eastwest;rotatable=0;whiteSpace=wrap;html=1;labelBackgroundColor=default;fontFamily=Comic Sans MS;" vertex="1" parent="PbJelDRNLOMwJ_flGZEq-1">
          <mxGeometry y="480" width="550" height="30" as="geometry" />
        </mxCell>
        <mxCell id="PbJelDRNLOMwJ_flGZEq-18" value="String serviceRequire（）" style="text;strokeColor=none;fillColor=none;align=left;verticalAlign=middle;spacingLeft=4;spacingRight=4;overflow=hidden;points=[[0,0.5],[1,0.5]];portConstraint=eastwest;rotatable=0;whiteSpace=wrap;html=1;labelBackgroundColor=default;fontFamily=Comic Sans MS;" vertex="1" parent="PbJelDRNLOMwJ_flGZEq-1">
          <mxGeometry y="510" width="550" height="30" as="geometry" />
        </mxCell>
        <mxCell id="PbJelDRNLOMwJ_flGZEq-19" value="String serviceLife（）" style="text;strokeColor=none;fillColor=none;align=left;verticalAlign=middle;spacingLeft=4;spacingRight=4;overflow=hidden;points=[[0,0.5],[1,0.5]];portConstraint=eastwest;rotatable=0;whiteSpace=wrap;html=1;labelBackgroundColor=default;fontFamily=Comic Sans MS;" vertex="1" parent="PbJelDRNLOMwJ_flGZEq-1">
          <mxGeometry y="540" width="550" height="30" as="geometry" />
        </mxCell>
        <mxCell id="PbJelDRNLOMwJ_flGZEq-20" value="String serviceRule（）" style="text;strokeColor=none;fillColor=none;align=left;verticalAlign=middle;spacingLeft=4;spacingRight=4;overflow=hidden;points=[[0,0.5],[1,0.5]];portConstraint=eastwest;rotatable=0;whiteSpace=wrap;html=1;labelBackgroundColor=default;fontFamily=Comic Sans MS;" vertex="1" parent="PbJelDRNLOMwJ_flGZEq-1">
          <mxGeometry y="570" width="550" height="30" as="geometry" />
        </mxCell>
        <mxCell id="PbJelDRNLOMwJ_flGZEq-21" value="String serviceResponse（）" style="text;strokeColor=none;fillColor=none;align=left;verticalAlign=middle;spacingLeft=4;spacingRight=4;overflow=hidden;points=[[0,0.5],[1,0.5]];portConstraint=eastwest;rotatable=0;whiteSpace=wrap;html=1;labelBackgroundColor=default;fontFamily=Comic Sans MS;" vertex="1" parent="PbJelDRNLOMwJ_flGZEq-1">
          <mxGeometry y="600" width="550" height="30" as="geometry" />
        </mxCell>
        <mxCell id="PbJelDRNLOMwJ_flGZEq-22" value="String workScope（）" style="text;strokeColor=none;fillColor=none;align=left;verticalAlign=middle;spacingLeft=4;spacingRight=4;overflow=hidden;points=[[0,0.5],[1,0.5]];portConstraint=eastwest;rotatable=0;whiteSpace=wrap;html=1;labelBackgroundColor=default;fontFamily=Comic Sans MS;" vertex="1" parent="PbJelDRNLOMwJ_flGZEq-1">
          <mxGeometry y="630" width="550" height="30" as="geometry" />
        </mxCell>
        <mxCell id="PbJelDRNLOMwJ_flGZEq-23" value="String workPeriod（）" style="text;strokeColor=none;fillColor=none;align=left;verticalAlign=middle;spacingLeft=4;spacingRight=4;overflow=hidden;points=[[0,0.5],[1,0.5]];portConstraint=eastwest;rotatable=0;whiteSpace=wrap;html=1;labelBackgroundColor=default;fontFamily=Comic Sans MS;" vertex="1" parent="PbJelDRNLOMwJ_flGZEq-1">
          <mxGeometry y="660" width="550" height="30" as="geometry" />
        </mxCell>
        <mxCell id="PbJelDRNLOMwJ_flGZEq-24" value="String projectManagerRequire（）" style="text;strokeColor=none;fillColor=none;align=left;verticalAlign=middle;spacingLeft=4;spacingRight=4;overflow=hidden;points=[[0,0.5],[1,0.5]];portConstraint=eastwest;rotatable=0;whiteSpace=wrap;html=1;labelBackgroundColor=default;fontFamily=Comic Sans MS;" vertex="1" parent="PbJelDRNLOMwJ_flGZEq-1">
          <mxGeometry y="690" width="550" height="30" as="geometry" />
        </mxCell>
        <mxCell id="PbJelDRNLOMwJ_flGZEq-25" value="String certificateRequire（）" style="text;strokeColor=none;fillColor=none;align=left;verticalAlign=middle;spacingLeft=4;spacingRight=4;overflow=hidden;points=[[0,0.5],[1,0.5]];portConstraint=eastwest;rotatable=0;whiteSpace=wrap;html=1;labelBackgroundColor=default;fontFamily=Comic Sans MS;" vertex="1" parent="PbJelDRNLOMwJ_flGZEq-1">
          <mxGeometry y="720" width="550" height="30" as="geometry" />
        </mxCell>
        <mxCell id="PbJelDRNLOMwJ_flGZEq-26" value="String saleService（）" style="text;strokeColor=none;fillColor=none;align=left;verticalAlign=middle;spacingLeft=4;spacingRight=4;overflow=hidden;points=[[0,0.5],[1,0.5]];portConstraint=eastwest;rotatable=0;whiteSpace=wrap;html=1;labelBackgroundColor=default;fontFamily=Comic Sans MS;" vertex="1" parent="PbJelDRNLOMwJ_flGZEq-1">
          <mxGeometry y="750" width="550" height="30" as="geometry" />
        </mxCell>
        <mxCell id="PbJelDRNLOMwJ_flGZEq-27" value="String detailSequence（）" style="text;strokeColor=none;fillColor=none;align=left;verticalAlign=middle;spacingLeft=4;spacingRight=4;overflow=hidden;points=[[0,0.5],[1,0.5]];portConstraint=eastwest;rotatable=0;whiteSpace=wrap;html=1;labelBackgroundColor=default;fontFamily=Comic Sans MS;" vertex="1" parent="PbJelDRNLOMwJ_flGZEq-1">
          <mxGeometry y="780" width="550" height="30" as="geometry" />
        </mxCell>
        <mxCell id="PbJelDRNLOMwJ_flGZEq-28" value="String categoryName（）" style="text;strokeColor=none;fillColor=none;align=left;verticalAlign=middle;spacingLeft=4;spacingRight=4;overflow=hidden;points=[[0,0.5],[1,0.5]];portConstraint=eastwest;rotatable=0;whiteSpace=wrap;html=1;labelBackgroundColor=default;fontFamily=Comic Sans MS;" vertex="1" parent="PbJelDRNLOMwJ_flGZEq-1">
          <mxGeometry y="810" width="550" height="30" as="geometry" />
        </mxCell>
        <mxCell id="PbJelDRNLOMwJ_flGZEq-29" value="String categoryCode（）" style="text;strokeColor=none;fillColor=none;align=left;verticalAlign=middle;spacingLeft=4;spacingRight=4;overflow=hidden;points=[[0,0.5],[1,0.5]];portConstraint=eastwest;rotatable=0;whiteSpace=wrap;html=1;labelBackgroundColor=default;fontFamily=Comic Sans MS;" vertex="1" parent="PbJelDRNLOMwJ_flGZEq-1">
          <mxGeometry y="840" width="550" height="30" as="geometry" />
        </mxCell>
        <mxCell id="PbJelDRNLOMwJ_flGZEq-30" value="String detailType（）" style="text;strokeColor=none;fillColor=none;align=left;verticalAlign=middle;spacingLeft=4;spacingRight=4;overflow=hidden;points=[[0,0.5],[1,0.5]];portConstraint=eastwest;rotatable=0;whiteSpace=wrap;html=1;labelBackgroundColor=default;fontFamily=Comic Sans MS;" vertex="1" parent="PbJelDRNLOMwJ_flGZEq-1">
          <mxGeometry y="870" width="550" height="30" as="geometry" />
        </mxCell>
        <mxCell id="PbJelDRNLOMwJ_flGZEq-31" value="BigDecimal count（）" style="text;strokeColor=none;fillColor=none;align=left;verticalAlign=middle;spacingLeft=4;spacingRight=4;overflow=hidden;points=[[0,0.5],[1,0.5]];portConstraint=eastwest;rotatable=0;whiteSpace=wrap;html=1;labelBackgroundColor=default;fontFamily=Comic Sans MS;" vertex="1" parent="PbJelDRNLOMwJ_flGZEq-1">
          <mxGeometry y="900" width="550" height="30" as="geometry" />
        </mxCell>
        <mxCell id="PbJelDRNLOMwJ_flGZEq-32" value="String unit（）" style="text;strokeColor=none;fillColor=none;align=left;verticalAlign=middle;spacingLeft=4;spacingRight=4;overflow=hidden;points=[[0,0.5],[1,0.5]];portConstraint=eastwest;rotatable=0;whiteSpace=wrap;html=1;labelBackgroundColor=default;fontFamily=Comic Sans MS;" vertex="1" parent="PbJelDRNLOMwJ_flGZEq-1">
          <mxGeometry y="930" width="550" height="30" as="geometry" />
        </mxCell>
        <mxCell id="PbJelDRNLOMwJ_flGZEq-33" value="BigDecimal unitPrice（）" style="text;strokeColor=none;fillColor=none;align=left;verticalAlign=middle;spacingLeft=4;spacingRight=4;overflow=hidden;points=[[0,0.5],[1,0.5]];portConstraint=eastwest;rotatable=0;whiteSpace=wrap;html=1;labelBackgroundColor=default;fontFamily=Comic Sans MS;" vertex="1" parent="PbJelDRNLOMwJ_flGZEq-1">
          <mxGeometry y="960" width="550" height="30" as="geometry" />
        </mxCell>
        <mxCell id="PbJelDRNLOMwJ_flGZEq-34" value="String priceRequiredId（）" style="text;strokeColor=none;fillColor=none;align=left;verticalAlign=middle;spacingLeft=4;spacingRight=4;overflow=hidden;points=[[0,0.5],[1,0.5]];portConstraint=eastwest;rotatable=0;whiteSpace=wrap;html=1;labelBackgroundColor=default;fontFamily=Comic Sans MS;" vertex="1" parent="PbJelDRNLOMwJ_flGZEq-1">
          <mxGeometry y="990" width="550" height="30" as="geometry" />
        </mxCell>
        <mxCell id="PbJelDRNLOMwJ_flGZEq-35" value="String priceName（）" style="text;strokeColor=none;fillColor=none;align=left;verticalAlign=middle;spacingLeft=4;spacingRight=4;overflow=hidden;points=[[0,0.5],[1,0.5]];portConstraint=eastwest;rotatable=0;whiteSpace=wrap;html=1;labelBackgroundColor=default;fontFamily=Comic Sans MS;" vertex="1" parent="PbJelDRNLOMwJ_flGZEq-1">
          <mxGeometry y="1020" width="550" height="30" as="geometry" />
        </mxCell>
        <mxCell id="PbJelDRNLOMwJ_flGZEq-36" value="String priceUnit（）" style="text;strokeColor=none;fillColor=none;align=left;verticalAlign=middle;spacingLeft=4;spacingRight=4;overflow=hidden;points=[[0,0.5],[1,0.5]];portConstraint=eastwest;rotatable=0;whiteSpace=wrap;html=1;labelBackgroundColor=default;fontFamily=Comic Sans MS;" vertex="1" parent="PbJelDRNLOMwJ_flGZEq-1">
          <mxGeometry y="1050" width="550" height="30" as="geometry" />
        </mxCell>
        <mxCell id="PbJelDRNLOMwJ_flGZEq-37" value="BigDecimal totalPrice（）" style="text;strokeColor=none;fillColor=none;align=left;verticalAlign=middle;spacingLeft=4;spacingRight=4;overflow=hidden;points=[[0,0.5],[1,0.5]];portConstraint=eastwest;rotatable=0;whiteSpace=wrap;html=1;labelBackgroundColor=default;fontFamily=Comic Sans MS;" vertex="1" parent="PbJelDRNLOMwJ_flGZEq-1">
          <mxGeometry y="1080" width="550" height="30" as="geometry" />
        </mxCell>
        <mxCell id="PbJelDRNLOMwJ_flGZEq-38" value="BigDecimal priceRate（）" style="text;strokeColor=none;fillColor=none;align=left;verticalAlign=middle;spacingLeft=4;spacingRight=4;overflow=hidden;points=[[0,0.5],[1,0.5]];portConstraint=eastwest;rotatable=0;whiteSpace=wrap;html=1;labelBackgroundColor=default;fontFamily=Comic Sans MS;" vertex="1" parent="PbJelDRNLOMwJ_flGZEq-1">
          <mxGeometry y="1110" width="550" height="30" as="geometry" />
        </mxCell>
        <mxCell id="PbJelDRNLOMwJ_flGZEq-39" value="BigDecimal priceRateHundred（）" style="text;strokeColor=none;fillColor=none;align=left;verticalAlign=middle;spacingLeft=4;spacingRight=4;overflow=hidden;points=[[0,0.5],[1,0.5]];portConstraint=eastwest;rotatable=0;whiteSpace=wrap;html=1;labelBackgroundColor=default;fontFamily=Comic Sans MS;" vertex="1" parent="PbJelDRNLOMwJ_flGZEq-1">
          <mxGeometry y="1140" width="550" height="30" as="geometry" />
        </mxCell>
        <mxCell id="PbJelDRNLOMwJ_flGZEq-40" value="BigDecimal discountRateHundred（）" style="text;strokeColor=none;fillColor=none;align=left;verticalAlign=middle;spacingLeft=4;spacingRight=4;overflow=hidden;points=[[0,0.5],[1,0.5]];portConstraint=eastwest;rotatable=0;whiteSpace=wrap;html=1;labelBackgroundColor=default;fontFamily=Comic Sans MS;" vertex="1" parent="PbJelDRNLOMwJ_flGZEq-1">
          <mxGeometry y="1170" width="550" height="30" as="geometry" />
        </mxCell>
        <mxCell id="PbJelDRNLOMwJ_flGZEq-41" value="BigDecimal quotationCount（）" style="text;strokeColor=none;fillColor=none;align=left;verticalAlign=middle;spacingLeft=4;spacingRight=4;overflow=hidden;points=[[0,0.5],[1,0.5]];portConstraint=eastwest;rotatable=0;whiteSpace=wrap;html=1;labelBackgroundColor=default;fontFamily=Comic Sans MS;" vertex="1" parent="PbJelDRNLOMwJ_flGZEq-1">
          <mxGeometry y="1200" width="550" height="30" as="geometry" />
        </mxCell>
        <mxCell id="PbJelDRNLOMwJ_flGZEq-42" value="String sourceParamId（）" style="text;strokeColor=none;fillColor=none;align=left;verticalAlign=middle;spacingLeft=4;spacingRight=4;overflow=hidden;points=[[0,0.5],[1,0.5]];portConstraint=eastwest;rotatable=0;whiteSpace=wrap;html=1;labelBackgroundColor=default;fontFamily=Comic Sans MS;" vertex="1" parent="PbJelDRNLOMwJ_flGZEq-1">
          <mxGeometry y="1230" width="550" height="30" as="geometry" />
        </mxCell>
        <mxCell id="PbJelDRNLOMwJ_flGZEq-43" value="&lt;b&gt;List&amp;lt;KcAgreementSupplierQuotationDetailDTO&amp;gt; detailsItemList（明细信息）&lt;/b&gt;" style="text;strokeColor=none;fillColor=none;align=left;verticalAlign=middle;spacingLeft=4;spacingRight=4;overflow=hidden;points=[[0,0.5],[1,0.5]];portConstraint=eastwest;rotatable=0;whiteSpace=wrap;html=1;labelBackgroundColor=default;fontFamily=Comic Sans MS;" vertex="1" parent="PbJelDRNLOMwJ_flGZEq-1">
          <mxGeometry y="1260" width="550" height="30" as="geometry" />
        </mxCell>
      </root>
    </mxGraphModel>
  </diagram>
</mxfile>
